<svg version="1.1" xmlns="http://www.w3.org/2000/svg" xmlns:xlink="http://www.w3.org/1999/xlink" width="296.75966" height="181.57364" viewBox="0,0,296.75966,181.57364"><defs><radialGradient cx="242.00311" cy="180.75893" r="24.69369" gradientUnits="userSpaceOnUse" id="color-1"><stop offset="0" stop-color="#ffe900"/><stop offset="1" stop-color="#ffe900" stop-opacity="0"/></radialGradient><radialGradient cx="241.3934" cy="180.75893" r="9.29825" gradientUnits="userSpaceOnUse" id="color-2"><stop offset="0" stop-color="#ffd500"/><stop offset="1" stop-color="#f6ff00"/></radialGradient><radialGradient cx="146.18584" cy="115.05938" r="44.51326" gradientUnits="userSpaceOnUse" id="color-3"><stop offset="0" stop-color="#860000"/><stop offset="1" stop-color="#860000" stop-opacity="0"/></radialGradient><linearGradient x1="142.90987" y1="89.04492" x2="150.07471" y2="146.64969" gradientUnits="userSpaceOnUse" id="color-4"><stop offset="0" stop-color="#ff0000"/><stop offset="1" stop-color="#b30000"/></linearGradient></defs><g transform="translate(-71.12018,-38.94788)"><g data-paper-data="{&quot;isPaintingLayer&quot;:true}" fill-rule="nonzero" stroke-miterlimit="10" stroke-dasharray="" stroke-dashoffset="0" style="mix-blend-mode: normal"><path d="M74.87018,200.13162c0,-5.99564 0,8.41226 0,-38.22019c0,-49.37318 0,-99.35209 0,-102.98814c0,-6.93822 10.29833,-16.22541 20.35238,-16.22541c20.96483,0 202.1831,0 243.42912,0c15.34479,0 25.47816,9.89252 25.47816,21.04968c0,9.82953 0,126.57151 0,132.46434c0,8.2702 -8.68555,20.55962 -22.16147,20.55962c-40.54014,0 -226.75305,0 -247.95187,0c-9.54122,0 -19.14631,-7.31573 -19.14631,-16.63991z" fill="#ff5151" stroke="#b30000" stroke-width="7.5" stroke-linecap="butt" stroke-linejoin="miter"/><text transform="translate(186.98314,87.91024) scale(0.67042,0.67042)" font-size="40" xml:space="preserve" fill="#bf0000" fill-rule="nonzero" stroke="#bf0000" stroke-width="3" stroke-linecap="butt" stroke-linejoin="miter" stroke-miterlimit="10" stroke-dasharray="" stroke-dashoffset="0" font-family="Sans Serif" font-weight="normal" text-anchor="start" style="mix-blend-mode: normal"><tspan x="0" dy="0">1 extra Life</tspan></text><text transform="translate(188.98314,107.65044) scale(0.38362,0.38362)" font-size="40" xml:space="preserve" fill="#bf0000" fill-rule="nonzero" stroke="#bf0000" stroke-width="3" stroke-linecap="butt" stroke-linejoin="miter" stroke-miterlimit="10" stroke-dasharray="" stroke-dashoffset="0" font-family="Sans Serif" font-weight="normal" text-anchor="start" style="mix-blend-mode: normal"><tspan x="0" dy="0">If you die, you become</tspan><tspan x="0" dy="48px">1 extra Life</tspan></text><text transform="translate(117.50516,190.26903) scale(0.67042,0.67042)" font-size="40" xml:space="preserve" fill="#bf0000" fill-rule="nonzero" stroke="#bf0000" stroke-width="3" stroke-linecap="butt" stroke-linejoin="miter" stroke-miterlimit="10" stroke-dasharray="" stroke-dashoffset="0" font-family="Sans Serif" font-weight="normal" text-anchor="start" style="mix-blend-mode: normal"><tspan x="0" dy="0">costs:</tspan></text><g stroke="none" stroke-width="0" stroke-linecap="butt" stroke-linejoin="miter"><path d="M216.82831,180.35882c0,-13.63795 11.05574,-24.69369 24.69369,-24.69369c13.63795,0 24.69369,11.05574 24.69369,24.69369c0,13.63795 -11.05574,24.69369 -24.69369,24.69369c-13.63795,0 -24.69369,-11.05574 -24.69369,-24.69369z" fill="url(#color-1)"/><path d="M232.22376,180.35882c0,-5.13528 4.16296,-9.29825 9.29825,-9.29825c5.13528,0 9.29825,4.16296 9.29825,9.29825c0,5.13528 -4.16296,9.29825 -9.29825,9.29825c-5.13528,0 -9.29825,-4.16296 -9.29825,-9.29825z" fill="url(#color-2)"/></g><text transform="translate(190.45041,151.9476) scale(0.58152,0.58152)" font-size="40" xml:space="preserve" fill="#bf0000" fill-rule="nonzero" stroke="#bf0000" stroke-width="3" stroke-linecap="butt" stroke-linejoin="miter" stroke-miterlimit="10" stroke-dasharray="" stroke-dashoffset="0" font-family="Sans Serif" font-weight="normal" text-anchor="start" style="mix-blend-mode: normal"><tspan x="0" dy="0">unique</tspan></text><text transform="translate(268.38733,189.76406) scale(0.67042,0.67042)" font-size="40" xml:space="preserve" fill="#bf0000" fill-rule="nonzero" stroke="#bf0000" stroke-width="3" stroke-linecap="butt" stroke-linejoin="miter" stroke-miterlimit="10" stroke-dasharray="" stroke-dashoffset="0" font-family="Sans Serif" font-weight="normal" text-anchor="start" style="mix-blend-mode: normal"><tspan x="0" dy="0">15</tspan></text><path d="M102.01295,120.55357c-3.03436,-24.39601 14.28269,-46.63272 38.6787,-49.66708c24.39601,-3.03436 46.63272,14.28269 49.66708,38.6787c3.03436,24.39601 -14.28269,46.63272 -38.6787,49.66708c-24.39601,3.03436 -46.63272,-14.28269 -49.66708,-38.6787z" fill="url(#color-3)" stroke="none" stroke-width="0" stroke-linecap="butt" stroke-linejoin="miter"/><path d="M144.08086,98.46014c1.7519,-5.85838 6.54383,-10.37479 12.66933,-11.13667c8.44474,-1.05035 16.20837,5.41296 17.32953,14.42699c2.20805,17.75256 -16.69532,38.32795 -24.69859,39.32339c-8.00327,0.99544 -31.29807,-13.73704 -33.57892,-32.07488c-1.12116,-9.01403 4.82261,-17.18226 13.26735,-18.23261c6.1255,-0.76188 11.8778,2.44303 15.0113,7.69378z" fill="url(#color-4)" stroke="#000000" stroke-width="3.72999" stroke-linecap="butt" stroke-linejoin="round"/><g fill="none" stroke="#000000" stroke-width="3.72999" stroke-linecap="round" stroke-linejoin="miter"><path d="M100.14328,119.81222l4.88564,19.11161"/><path d="M92.86042,131.33304l19.11161,-4.88564" data-paper-data="{&quot;index&quot;:null}"/></g></g></g></svg>