<svg version="1.1" xmlns="http://www.w3.org/2000/svg" xmlns:xlink="http://www.w3.org/1999/xlink" width="64.65714" height="36.5677" viewBox="0,0,64.65714,36.5677"><g transform="translate(-205.00708,-129.33033)"><g data-paper-data="{&quot;isPaintingLayer&quot;:true}" fill-rule="nonzero" stroke="#000000" stroke-width="0" stroke-linecap="round" stroke-linejoin="miter" stroke-miterlimit="10" stroke-dasharray="" stroke-dashoffset="0" style="mix-blend-mode: normal"><path d="M213.8545,138.84295c0.75706,-4.5227 8.39316,-3.73445 11.15984,-2.83322c2.76667,0.90124 4.35655,4.29734 4.35655,4.29734c0,0 -3.24268,-5.2077 3.59111,-8.47364c6.64907,-3.17765 9.51686,-4.4577 15.68831,3.12243c6.17145,7.58013 0.85328,21.70128 0.85328,21.70128l-28.0766,4.02849c0,0 -8.32955,-17.31997 -7.57247,-21.84268z" fill="#b96600"/><path d="M217.05008,150.80328c0,0 11.9246,-3.50459 21.25908,-4.85139c4.09242,-0.59046 13.14572,-0.11258 13.14572,-0.11258l-0.88459,7.63432l-29.41968,7.24066z" fill="#864a00"/><path d="M233.16123,156.40313c13.0039,-2.44232 27.90271,-7.78138 33.04133,-7.33681c5.13863,0.44457 5.42133,8.48165 -5.13479,9.75114c-4.72401,0.56809 -17.33428,0.64251 -27.17166,1.97918c-9.83738,1.33666 -20.96789,5.27867 -24.89308,5.09519c-3.9252,-0.18349 -7.14741,-4.31976 1.43735,-7.69163c8.58476,-3.37188 9.71694,0.64527 22.72084,-1.79706z" fill="#a05900"/></g></g></svg>