<svg version="1.1" xmlns="http://www.w3.org/2000/svg" xmlns:xlink="http://www.w3.org/1999/xlink" width="296.75967" height="181.57365" viewBox="0,0,296.75967,181.57365"><defs><linearGradient x1="127.2498" y1="98.06963" x2="127.2498" y2="154.74547" gradientUnits="userSpaceOnUse" id="color-1"><stop offset="0" stop-color="#ffa000"/><stop offset="1" stop-color="#ff9f45"/></linearGradient><linearGradient x1="127.2498" y1="98.06963" x2="127.2498" y2="154.74547" gradientUnits="userSpaceOnUse" id="color-2"><stop offset="0" stop-color="#ffa000"/><stop offset="1" stop-color="#ff9f45"/></linearGradient><linearGradient x1="127.67921" y1="115.1793" x2="127.67921" y2="137.63578" gradientUnits="userSpaceOnUse" id="color-3"><stop offset="0" stop-color="#ffa000"/><stop offset="1" stop-color="#ff9f45"/></linearGradient><linearGradient x1="94.60448" y1="95.41027" x2="157.71996" y2="95.41027" gradientUnits="userSpaceOnUse" id="color-4"><stop offset="0" stop-color="#4b4b4b"/><stop offset="1" stop-color="#000000"/></linearGradient><radialGradient cx="157.73877" cy="118.24852" r="21.22683" gradientUnits="userSpaceOnUse" id="color-5"><stop offset="0" stop-color="#ffde9b"/><stop offset="1" stop-color="#ffde9b" stop-opacity="0"/></radialGradient><radialGradient cx="228.88869" cy="188.8277" r="24.69369" gradientUnits="userSpaceOnUse" id="color-6"><stop offset="0" stop-color="#ffe900"/><stop offset="1" stop-color="#ffe900" stop-opacity="0"/></radialGradient><radialGradient cx="228.27895" cy="188.8277" r="9.29825" gradientUnits="userSpaceOnUse" id="color-7"><stop offset="0" stop-color="#ffd500"/><stop offset="1" stop-color="#f6ff00"/></radialGradient></defs><g transform="translate(-71.12018,-38.94786)"><g data-paper-data="{&quot;isPaintingLayer&quot;:true}" fill-rule="nonzero" stroke-linecap="butt" stroke-linejoin="miter" stroke-miterlimit="10" stroke-dasharray="" stroke-dashoffset="0" style="mix-blend-mode: normal"><path d="M74.87018,200.1316c0,-5.99564 0,8.41226 0,-38.22019c0,-49.37318 0,-99.35209 0,-102.98814c0,-6.93822 10.29833,-16.22541 20.35238,-16.22541c20.96483,0 202.1831,0 243.42912,0c15.34479,0 25.47816,9.89252 25.47816,21.04968c0,9.82953 0,126.57151 0,132.46434c0,8.2702 -8.68555,20.55962 -22.16147,20.55962c-40.54014,0 -226.75305,0 -247.95187,0c-9.54122,0 -19.14631,-7.31573 -19.14631,-16.63991z" fill="#ff5151" stroke="#b30000" stroke-width="7.5"/><text transform="translate(186.98319,87.9103) scale(0.67042,0.67042)" font-size="40" xml:space="preserve" fill="#bf0000" fill-rule="nonzero" stroke="#bf0000" stroke-width="3" stroke-linecap="butt" stroke-linejoin="miter" stroke-miterlimit="10" stroke-dasharray="" stroke-dashoffset="0" font-family="Sans Serif" font-weight="normal" text-anchor="start" style="mix-blend-mode: normal"><tspan x="0" dy="0">Magic Hat</tspan></text><text transform="translate(188.98319,111.58551) scale(0.38362,0.38362)" font-size="40" xml:space="preserve" fill="#bf0000" fill-rule="nonzero" stroke="#bf0000" stroke-width="3" stroke-linecap="butt" stroke-linejoin="miter" stroke-miterlimit="10" stroke-dasharray="" stroke-dashoffset="0" font-family="Sans Serif" font-weight="normal" text-anchor="start" style="mix-blend-mode: normal"><tspan x="0" dy="0">Makes your player </tspan><tspan x="0" dy="48px">nicer!</tspan></text><path d="M98.91189,140.89954c0,-10.86408 0,-25.10416 0,-31.01131c0,-5.20657 2.69924,-8.22824 2.69924,-8.22824c0,0 4.81793,-3.59036 10.48715,-3.59036c6.36183,0 21.46676,0 32.08065,0c3.62474,0 6.65662,1.40343 8.59899,3.52414c1.95592,2.13548 2.80979,5.00092 2.80979,8.65093c0,10.94304 0,26.21972 0,32.43711c0,5.29104 -1.24759,8.32093 -1.24759,8.32093c0,0 -3.06324,3.74274 -9.09184,3.74274c-11.09511,0 -28.00851,0 -34.57581,0c-5.18646,0 -9.79147,-3.19946 -9.79147,-3.19946c0,0 -1.96911,-2.85538 -1.96911,-10.64649z" fill="url(#color-1)" stroke="url(#color-2)" stroke-width="2"/><path d="M108.87639,126.40753c0,-10.38451 8.41831,-18.80282 18.80282,-18.80282c10.38451,0 18.80282,8.41831 18.80282,18.80282c0,10.38451 -8.41832,18.80282 -18.80282,18.80282c-10.38451,0 -18.80282,-8.41832 -18.80282,-18.80282z" fill="#ffffff" stroke="none" stroke-width="0"/><path d="M116.45097,126.40753c0,-6.20117 5.02705,-11.22824 11.22824,-11.22824c6.20117,0 11.22824,5.02705 11.22824,11.22824c0,6.20117 -5.02705,11.22825 -11.22824,11.22825c-6.20117,0 -11.22824,-5.02705 -11.22824,-11.22825z" fill="url(#color-3)" stroke="none" stroke-width="0"/><path d="M129.8156,121.82935c0,-1.8702 1.51609,-3.38629 3.38629,-3.38629c1.8702,0 3.38629,1.51609 3.38629,3.38629c0,1.8702 -1.51609,3.38629 -3.38629,3.38629c-1.8702,0 -3.38629,-1.51609 -3.38629,-3.38629z" fill="#ffffff" stroke="none" stroke-width="NaN"/><g stroke="none" stroke-width="0"><path d="M108.78465,100.77643v-40.79509h37.78913v40.79509z" fill="#272727"/><path d="M109.07094,100.77643v-40.79509h37.78913l-8.87472,23.33192l-15.15215,16.7165z" fill="#272727"/><path d="M108.72143,94.16508v-7.44332h37.50285v7.44332z" fill="#de0000"/><path d="M102.77274,104.49808c-10.32275,-2.01329 -11.88434,-15.95065 -4.00793,-17.17688c7.45142,-1.16007 8.7632,0.5802 13.93338,3.51338c6.62154,3.75658 7.14464,8.88718 12.35602,9.80692c13.7974,2.43506 24.04754,3.14478 28.96289,-2.0122c4.91535,-5.15698 5.6766,-12.25837 -2.29025,-12.3101c-5.23995,-0.03403 -8.71297,2.9908 -16.02958,8.03068c-7.18197,4.94714 -18.31539,12.21422 -32.92452,10.14819z" fill="url(#color-4)"/><path d="M108.72143,94.16508v-7.44332h15.74547v7.44332z" fill="#de0000"/></g><path d="M136.51195,118.24852c0,-11.72326 9.50357,-21.22683 21.22683,-21.22683c11.72326,0 21.22683,9.50357 21.22683,21.22683c0,11.72326 -9.50357,21.22683 -21.22683,21.22683c-11.72326,0 -21.22683,-9.50357 -21.22683,-21.22683z" fill="url(#color-5)" stroke="none" stroke-width="0"/><path d="M168.04491,118.38271c0,2.41398 -4.36471,2.00928 -4.36471,2.00928c0,0 0.14659,7.438 -2.1625,7.438c-2.38227,0 -2.79383,-7.53908 -2.79383,-7.53908c0,0 -4.42046,0.38685 -4.42046,-1.90821c0,-2.57694 4.53149,-2.88878 4.53149,-2.88878c0,0 0.13046,-8.27619 2.33926,-8.27619c2.55366,0 2.70264,8.37223 2.70264,8.37223c0,0 4.16812,0.77621 4.16812,2.79275z" fill="#f4ff00" stroke="none" stroke-width="0"/><path d="M156.70815,109.23603c0,1.32769 -2.4006,1.1051 -2.4006,1.1051c0,0 0.08063,4.09091 -1.18937,4.09091c-1.31024,0 -1.5366,-4.14649 -1.5366,-4.14649c0,0 -2.43126,0.21277 -2.43126,-1.04952c0,-1.41732 2.49232,-1.58884 2.49232,-1.58884c0,0 0.07175,-4.5519 1.28659,-4.5519c1.40451,0 1.48645,4.60472 1.48645,4.60472c0,0 2.29246,0.42691 2.29246,1.53602z" fill="#f4ff00" stroke="none" stroke-width="0"/><path d="M159.2847,130.8789c0,1.32769 -2.4006,1.1051 -2.4006,1.1051c0,0 0.08063,4.09091 -1.18937,4.09091c-1.31025,0 -1.5366,-4.14649 -1.5366,-4.14649c0,0 -2.43126,0.21276 -2.43126,-1.04952c0,-1.41732 2.49232,-1.58883 2.49232,-1.58883c0,0 0.07175,-4.55191 1.28659,-4.55191c1.40452,0 1.48644,4.60473 1.48644,4.60473c0,0 2.29247,0.42691 2.29247,1.53602z" fill="#f4ff00" stroke="none" stroke-width="0"/><g stroke="none" stroke-width="0"><path d="M203.7139,188.42758c0,-13.63795 11.05574,-24.69369 24.69369,-24.69369c13.63795,0 24.69369,11.05574 24.69369,24.69369c0,13.63795 -11.05574,24.69369 -24.69369,24.69369c-13.63795,0 -24.69369,-11.05574 -24.69369,-24.69369z" fill="url(#color-6)"/><path d="M219.10933,188.42758c0,-5.13528 4.16296,-9.29825 9.29825,-9.29825c5.13528,0 9.29825,4.16296 9.29825,9.29825c0,5.13528 -4.16296,9.29825 -9.29825,9.29825c-5.13528,0 -9.29825,-4.16296 -9.29825,-9.29825z" fill="url(#color-7)"/></g><text transform="translate(108.18442,197.31912) scale(0.67042,0.67042)" font-size="40" xml:space="preserve" fill="#bf0000" fill-rule="nonzero" stroke="#bf0000" stroke-width="3" stroke-linecap="butt" stroke-linejoin="miter" stroke-miterlimit="10" stroke-dasharray="" stroke-dashoffset="0" font-family="Sans Serif" font-weight="normal" text-anchor="start" style="mix-blend-mode: normal"><tspan x="0" dy="0">costs:</tspan></text><text transform="translate(259.06659,196.81414) scale(0.67042,0.67042)" font-size="40" xml:space="preserve" fill="#bf0000" fill-rule="nonzero" stroke="#bf0000" stroke-width="3" stroke-linecap="butt" stroke-linejoin="miter" stroke-miterlimit="10" stroke-dasharray="" stroke-dashoffset="0" font-family="Sans Serif" font-weight="normal" text-anchor="start" style="mix-blend-mode: normal"><tspan x="0" dy="0">10</tspan></text><path d="M101.06906,219.58799l-24.16876,-15.04887l1.24292,-56.42188l255.73793,-105.19582l29.17746,10.50645l3.74826,56.4607z" fill="#580000" stroke="none" stroke-width="NaN"/><text transform="translate(123.56571,187.28298) rotate(-22.81592) scale(1.04465,1.04465)" font-size="40" xml:space="preserve" fill="#ffffff" fill-rule="nonzero" stroke="#ffffff" stroke-width="3" stroke-linecap="butt" stroke-linejoin="miter" stroke-miterlimit="10" stroke-dasharray="" stroke-dashoffset="0" font-family="Sans Serif" font-weight="normal" text-anchor="start" style="mix-blend-mode: normal"><tspan x="0" dy="0">purchased</tspan></text><path d="M74.87019,200.13162c0,-5.99564 0,8.41226 0,-38.22019c0,-49.37318 0,-99.35209 0,-102.98814c0,-6.93822 10.29833,-16.22541 20.35238,-16.22541c20.96483,0 202.1831,0 243.42912,0c15.34479,0 25.47816,9.89252 25.47816,21.04968c0,9.82953 0,126.57151 0,132.46434c0,8.2702 -8.68555,20.55962 -22.16147,20.55962c-40.54014,0 -226.75305,0 -247.95187,0c-9.54122,0 -19.14631,-7.31573 -19.14631,-16.63991z" fill="none" stroke="#b30000" stroke-width="7.5"/></g></g></svg>