<svg version="1.1" xmlns="http://www.w3.org/2000/svg" xmlns:xlink="http://www.w3.org/1999/xlink" width="86.82056" height="86.82056" viewBox="0,0,86.82056,86.82056"><defs><radialGradient cx="240" cy="181.32638" r="43.41028" gradientUnits="userSpaceOnUse" id="color-1"><stop offset="0" stop-color="#3d7070"/><stop offset="1" stop-color="#3d7070" stop-opacity="0"/></radialGradient><linearGradient x1="240" y1="152.16033" x2="240" y2="207.83967" gradientUnits="userSpaceOnUse" id="color-2"><stop offset="0" stop-color="#99fbff"/><stop offset="1" stop-color="#ffffff"/></linearGradient></defs><g transform="translate(-196.58972,-136.58972)"><g data-paper-data="{&quot;isPaintingLayer&quot;:true}" fill-rule="nonzero" stroke-linecap="butt" stroke-linejoin="miter" stroke-miterlimit="10" stroke-dasharray="" stroke-dashoffset="0" style="mix-blend-mode: normal"><path d="M196.58972,180c0,-23.97485 19.43545,-43.41028 43.41028,-43.41028c23.97485,0 43.41028,19.43545 43.41028,43.41028c0,23.97485 -19.43545,43.41028 -43.41028,43.41028c-23.97485,0 -43.41028,-19.43545 -43.41028,-43.41028z" fill="url(#color-1)" stroke="none" stroke-width="0"/><path d="M212.16033,180c0,-15.37544 12.46423,-27.83967 27.83967,-27.83967c15.37544,0 27.83967,12.46423 27.83967,27.83967c0,15.37544 -12.46423,27.83967 -27.83967,27.83967c-15.37544,0 -27.83967,-12.46423 -27.83967,-27.83967z" fill="url(#color-2)" stroke="#477777" stroke-width="1.5"/></g></g></svg>