<svg version="1.1" xmlns="http://www.w3.org/2000/svg" xmlns:xlink="http://www.w3.org/1999/xlink" width="573" height="113.72218" viewBox="0,0,573,113.72218"><defs><linearGradient x1="259" y1="310.3125" x2="259" y2="406.3125" gradientUnits="userSpaceOnUse" id="color-1"><stop offset="0" stop-color="#656565" stop-opacity="0"/><stop offset="1" stop-color="#656565"/></linearGradient><radialGradient cx="216.62663" cy="334.18395" r="40.97928" gradientUnits="userSpaceOnUse" id="color-2"><stop offset="0" stop-color="#ffe900"/><stop offset="1" stop-color="#ffe900" stop-opacity="0"/></radialGradient><radialGradient cx="215.61676" cy="334.24698" r="15.43048" gradientUnits="userSpaceOnUse" id="color-3"><stop offset="0" stop-color="#ffd500"/><stop offset="1" stop-color="#f6ff00"/></radialGradient></defs><g transform="translate(27.5,-292.59032)"><g data-paper-data="{&quot;isPaintingLayer&quot;:true}" fill-rule="nonzero" stroke-linecap="butt" stroke-linejoin="miter" stroke-miterlimit="10" stroke-dasharray="" stroke-dashoffset="0" style="mix-blend-mode: normal"><path d="M-27.5,406.3125v-96h573v96z" fill="url(#color-1)" stroke="none" stroke-width="0"/><text transform="translate(237.26467,347.92047) rotate(-3.57112) scale(0.8208,0.8208)" font-size="40" xml:space="preserve" fill="#000000" fill-rule="nonzero" stroke="#000000" stroke-width="2" stroke-linecap="butt" stroke-linejoin="miter" stroke-miterlimit="10" stroke-dasharray="" stroke-dashoffset="0" font-family="Sans Serif" font-weight="normal" text-anchor="start" style="mix-blend-mode: normal"><tspan x="0" dy="0">x2</tspan></text><g stroke="none" stroke-width="0"><path d="M174.88871,336.12357c-1.40976,-22.58828 15.75882,-42.04253 38.3471,-43.45229c22.58828,-1.40976 42.04254,15.75882 43.4523,38.34711c1.40976,22.58828 -15.75882,42.04254 -38.34712,43.45229c-22.58828,1.40976 -42.04253,-15.75883 -43.45229,-38.34712z" fill="url(#color-2)"/><path d="M200.3879,334.53215c-0.53084,-8.50547 5.93388,-15.83085 14.43936,-16.36168c8.50547,-0.53084 15.83085,5.93387 16.36168,14.43935c0.53084,8.50547 -5.93388,15.83085 -14.43936,16.36168c-8.50547,0.53084 -15.83085,-5.93388 -16.36168,-14.43936z" fill="url(#color-3)"/></g></g></g></svg>