<svg version="1.1" xmlns="http://www.w3.org/2000/svg" xmlns:xlink="http://www.w3.org/1999/xlink" width="573" height="98.16562" viewBox="0,0,573,98.16562"><defs><linearGradient x1="259" y1="310.3125" x2="259" y2="406.3125" gradientUnits="userSpaceOnUse" id="color-1"><stop offset="0" stop-color="#656565" stop-opacity="0"/><stop offset="1" stop-color="#656565"/></linearGradient><radialGradient cx="421.52776" cy="327.63556" r="19.20083" gradientUnits="userSpaceOnUse" id="color-2"><stop offset="0" stop-color="#ffe900"/><stop offset="1" stop-color="#ffe900" stop-opacity="0"/></radialGradient><radialGradient cx="421.05459" cy="327.66509" r="7.22995" gradientUnits="userSpaceOnUse" id="color-3"><stop offset="0" stop-color="#ffd500"/><stop offset="1" stop-color="#f6ff00"/></radialGradient></defs><g transform="translate(27.5,-308.14687)"><g data-paper-data="{&quot;isPaintingLayer&quot;:true}" fill-rule="nonzero" stroke-linecap="butt" stroke-linejoin="miter" stroke-miterlimit="10" stroke-dasharray="" stroke-dashoffset="0" style="mix-blend-mode: normal"><path d="M-27.5,406.3125v-96h573v96z" fill="url(#color-1)" stroke="none" stroke-width="0"/><g stroke="none" stroke-width="0"><path d="M401.97147,328.54437c-0.66054,-10.58373 7.38379,-19.69902 17.96752,-20.35956c10.58373,-0.66054 19.69902,7.38379 20.35956,17.96753c0.66054,10.58373 -7.38379,19.69902 -17.96753,20.35956c-10.58373,0.66054 -19.69902,-7.3838 -20.35956,-17.96753z" fill="url(#color-2)"/><path d="M413.91911,327.79871c-0.24872,-3.98524 2.78032,-7.41754 6.76556,-7.66626c3.98524,-0.24872 7.41754,2.78031 7.66626,6.76555c0.24872,3.98524 -2.78032,7.41754 -6.76556,7.66626c-3.98524,0.24872 -7.41754,-2.78032 -7.66626,-6.76556z" fill="url(#color-3)"/></g><text transform="translate(43.15271,333.17723) scale(0.5,0.5)" font-size="40" xml:space="preserve" fill="#000000" fill-rule="nonzero" stroke="#000000" stroke-width="3" stroke-linecap="butt" stroke-linejoin="miter" stroke-miterlimit="10" stroke-dasharray="" stroke-dashoffset="0" font-family="Sans Serif" font-weight="normal" text-anchor="start" style="mix-blend-mode: normal"><tspan x="0" dy="0">Achievement unlocked: 10 jumps (+5         )</tspan></text></g></g></svg>