<svg version="1.1" xmlns="http://www.w3.org/2000/svg" xmlns:xlink="http://www.w3.org/1999/xlink" width="186.0332" height="130.5803" viewBox="0,0,186.0332,130.5803"><defs><linearGradient x1="149.36902" y1="217.79774" x2="333.01667" y2="217.79774" gradientUnits="userSpaceOnUse" id="color-1"><stop offset="0" stop-color="#4b4b4b"/><stop offset="1" stop-color="#000000"/></linearGradient></defs><g transform="translate(-146.9834,-114.70985)"><g data-paper-data="{&quot;isPaintingLayer&quot;:true}" fill-rule="nonzero" stroke="none" stroke-width="0" stroke-linecap="butt" stroke-linejoin="miter" stroke-miterlimit="10" stroke-dasharray="" stroke-dashoffset="0" style="mix-blend-mode: normal"><g><path d="M190.62916,233.41168v-118.70183h109.95535v118.70183z" fill="#272727"/><path d="M191.46219,233.41168v-118.70183h109.95535l-25.82284,67.88908l-44.08833,48.64016z" fill="#272727"/><path d="M190.44524,214.17458v-21.65788h109.12236v21.65788z" fill="#de0000"/><path d="M173.13627,244.2406c-30.03619,-5.85808 -34.57998,-46.41175 -11.66191,-49.97973c21.68147,-3.37548 25.49836,1.68821 40.54207,10.2229c19.26676,10.93056 20.78881,25.8591 35.95243,28.53528c40.14643,7.08531 69.97134,9.15041 84.27357,-5.85492c14.30223,-15.0053 16.51726,-35.6683 -6.66397,-35.8188c-15.24673,-0.09902 -25.3522,8.70236 -46.64141,23.36695c-20.89745,14.39475 -53.29245,35.53981 -95.80078,29.52829z" fill="url(#color-1)"/><path d="M190.44524,214.17458v-21.65788h45.81474v21.65788z" fill="#de0000"/></g></g></g></svg>