<svg version="1.1" xmlns="http://www.w3.org/2000/svg" xmlns:xlink="http://www.w3.org/1999/xlink" width="296.75966" height="181.57364" viewBox="0,0,296.75966,181.57364"><defs><radialGradient cx="238.98116" cy="176.90021" r="24.69369" gradientUnits="userSpaceOnUse" id="color-1"><stop offset="0" stop-color="#ffe900"/><stop offset="1" stop-color="#ffe900" stop-opacity="0"/></radialGradient><radialGradient cx="238.37141" cy="176.90021" r="9.29825" gradientUnits="userSpaceOnUse" id="color-2"><stop offset="0" stop-color="#ffd500"/><stop offset="1" stop-color="#f6ff00"/></radialGradient><linearGradient x1="135.00001" y1="95.75457" x2="135.00001" y2="150.24544" gradientUnits="userSpaceOnUse" id="color-3"><stop offset="0" stop-color="#009dff"/><stop offset="1" stop-color="#0085ff"/></linearGradient><linearGradient x1="135.00001" y1="95.75457" x2="135.00001" y2="150.24544" gradientUnits="userSpaceOnUse" id="color-4"><stop offset="0" stop-color="#009dff"/><stop offset="1" stop-color="#0085ff"/></linearGradient><linearGradient x1="135.00001" y1="112.20463" x2="135.00001" y2="133.79537" gradientUnits="userSpaceOnUse" id="color-5"><stop offset="0" stop-color="#009dff"/><stop offset="1" stop-color="#0085ff"/></linearGradient></defs><g transform="translate(-71.12019,-38.94784)"><g data-paper-data="{&quot;isPaintingLayer&quot;:true}" fill-rule="nonzero" stroke-linecap="butt" stroke-linejoin="miter" stroke-miterlimit="10" stroke-dasharray="" stroke-dashoffset="0" style="mix-blend-mode: normal"><path d="M74.87019,200.13158c0,-5.99564 0,8.41226 0,-38.22019c0,-49.37318 0,-99.35209 0,-102.98814c0,-6.93822 10.29833,-16.22541 20.35238,-16.22541c20.96483,0 202.1831,0 243.42912,0c15.34479,0 25.47816,9.89252 25.47816,21.04968c0,9.82953 0,126.57151 0,132.46434c0,8.2702 -8.68555,20.55962 -22.16147,20.55962c-40.54014,0 -226.75305,0 -247.95187,0c-9.54122,0 -19.14631,-7.31573 -19.14631,-16.63991z" fill="#ff5151" stroke="#b30000" stroke-width="7.5"/><text transform="translate(186.9832,87.91029) scale(0.67042,0.67042)" font-size="40" xml:space="preserve" fill="#bf0000" fill-rule="nonzero" stroke="#bf0000" stroke-width="3" stroke-linecap="butt" stroke-linejoin="miter" stroke-miterlimit="10" stroke-dasharray="" stroke-dashoffset="0" font-family="Sans Serif" font-weight="normal" text-anchor="start" style="mix-blend-mode: normal"><tspan x="0" dy="0">Headphones</tspan></text><text transform="translate(188.9832,111.5855) scale(0.38362,0.38362)" font-size="40" xml:space="preserve" fill="#bf0000" fill-rule="nonzero" stroke="#bf0000" stroke-width="3" stroke-linecap="butt" stroke-linejoin="miter" stroke-miterlimit="10" stroke-dasharray="" stroke-dashoffset="0" font-family="Sans Serif" font-weight="normal" text-anchor="start" style="mix-blend-mode: normal"><tspan x="0" dy="0">Makes your player </tspan><tspan x="0" dy="48px">nicer!</tspan></text><g stroke="none" stroke-width="0"><path d="M213.80636,176.50008c0,-13.63795 11.05574,-24.69369 24.69369,-24.69369c13.63795,0 24.69369,11.05574 24.69369,24.69369c0,13.63795 -11.05574,24.69369 -24.69369,24.69369c-13.63795,0 -24.69369,-11.05574 -24.69369,-24.69369z" fill="url(#color-1)"/><path d="M229.2018,176.50008c0,-5.13528 4.16296,-9.29825 9.29825,-9.29825c5.13528,0 9.29825,4.16296 9.29825,9.29825c0,5.13528 -4.16296,9.29825 -9.29825,9.29825c-5.13528,0 -9.29825,-4.16296 -9.29825,-9.29825z" fill="url(#color-2)"/></g><g stroke="none" stroke-width="1"><path d="M166.53387,105.39608c-1.66457,0 -2.97244,-1.30788 -2.97244,-2.97244c0,-15.45669 -12.60315,-28.17874 -28.17874,-28.17874c-15.45669,0 -28.17874,12.60315 -28.17874,28.17874c0,1.66457 -1.30788,2.97244 -2.97244,2.97244c-1.66456,0 -2.97244,-1.30788 -2.97244,-2.97244c0,-18.78583 15.3378,-34.12362 34.12362,-34.12362c18.78582,0 34.12363,15.3378 34.12363,34.12362c0,1.66457 -1.30787,2.97244 -2.97244,2.97244z" fill="#7d8b8c"/><path d="M169.38741,103.73151c-0.59449,0.95118 -1.54567,1.66457 -2.73465,1.66457c-1.66457,0 -2.97244,-1.30788 -2.97244,-2.97244c0,-15.57559 -12.72205,-28.17874 -28.17874,-28.17874c-15.57559,0 -28.17874,12.72205 -28.17874,28.17874c0,1.66457 -1.30787,2.97244 -2.97244,2.97244c-1.18897,0 -2.25906,-0.71339 -2.73465,-1.66457c2.14016,-16.64567 16.52677,-29.60551 33.76693,-29.60551c17.24016,0 31.62677,12.84094 34.00473,29.60551z" fill="#536060"/><path d="M160.47009,109.55748c0,-2.97244 2.49685,-5.46929 5.46929,-5.46929h0.1189c2.97244,0 5.46929,2.49685 5.46929,5.46929v12.00866c0,2.97244 -2.49685,5.4693 -5.46929,5.4693h-0.1189c-2.97244,0 -5.46929,-2.49686 -5.46929,-5.4693z" fill="#394444"/><path d="M171.52757,109.55748v12.00866c0,2.97244 -2.49685,5.4693 -5.46929,5.4693h-0.1189c-2.97244,0 -5.46929,-2.49686 -5.46929,-5.4693v-12.00866" fill="#2b3535"/><path d="M153.69293,104.44489c0,-2.73465 2.25905,-4.9937 4.9937,-4.9937h4.63701c2.73465,0 4.99371,2.25906 4.99371,4.9937v19.26142c0,2.73465 -2.25906,4.9937 -4.99371,4.9937h-4.63701c-2.73465,0 -4.9937,-2.25905 -4.9937,-4.9937z" fill="#db3b5e"/><path d="M168.31734,123.7063c0,2.73465 -2.25906,4.9937 -4.99371,4.9937h-4.63701c-2.73465,0 -4.9937,-2.25905 -4.9937,-4.9937v-19.26142c0,-2.73465 2.25905,-4.9937 4.9937,-4.9937h4.63701" fill="#c42c54"/><path d="M163.32363,128.70001h-4.63701c-2.73465,0 -4.9937,-2.25905 -4.9937,-4.9937v-19.26142c0,-2.73465 2.25905,-4.9937 4.9937,-4.9937h4.63701" fill="#394444"/><path d="M158.68662,128.70001c-2.73465,0 -4.9937,-2.25905 -4.9937,-4.9937v-19.26142c0,-2.73465 0.95118,-4.9937 3.68582,-4.9937h5.94488" fill="#2b3535"/><path d="M110.05749,121.56615c0,2.97244 -2.49685,5.4693 -5.46929,5.4693h-0.1189c-2.97244,0 -5.46929,-2.49686 -5.46929,-5.4693v-12.00866c0,-2.97244 2.49685,-5.46929 5.46929,-5.46929h0.1189c2.97244,0 5.46929,2.49685 5.46929,5.46929z" fill="#394444"/><path d="M110.05749,109.55748v12.00866c0,2.97244 -2.49685,5.4693 -5.46929,5.4693h-0.1189c-2.97244,0 -5.46929,-2.49686 -5.46929,-5.4693v-12.00866" fill="#2b3535"/><path d="M116.83466,123.7063c0,2.73465 -2.25905,4.9937 -4.9937,4.9937h-4.63701c-2.73465,0 -4.9937,-2.25905 -4.9937,-4.9937v-19.26142c0,-2.73465 2.25906,-4.9937 4.9937,-4.9937h4.63701c2.73465,0 4.9937,2.25906 4.9937,4.9937z" fill="#db3b5e"/><path d="M107.20395,99.45119h4.63701c2.73465,0 4.9937,2.25906 4.9937,4.9937v19.26142c0,2.73465 -2.25905,4.9937 -4.9937,4.9937h-4.63701c-2.73465,0 -4.9937,-2.25905 -4.9937,-4.9937" fill="#c42c54"/><path d="M107.20395,99.45119h4.63701c2.73465,0 4.9937,2.25906 4.9937,4.9937v19.26142c0,2.73465 -2.25905,4.9937 -4.9937,4.9937h-4.63701" fill="#394444"/><path d="M107.20395,99.45119h5.94488c2.73465,0 3.68582,2.25906 3.68582,4.9937v19.26142c0,2.73465 -2.25905,4.9937 -4.9937,4.9937" fill="#2b3535"/></g><path d="M107.7546,136.9333c0,-10.44524 0,-24.13633 0,-29.81575c0,-5.00584 2.59519,-7.91102 2.59519,-7.91102c0,0 4.63218,-3.45195 10.08284,-3.45195c6.11656,0 20.63916,0 30.84386,0c3.485,0 6.39999,1.34933 8.26749,3.38828c1.88052,2.05316 2.70146,4.80812 2.70146,8.31742c0,10.52115 0,25.20889 0,31.18658c0,5.08706 -1.19949,8.00014 -1.19949,8.00014c0,0 -2.94514,3.59844 -8.74133,3.59844c-10.66737,0 -26.92872,0 -33.24283,0c-4.98651,0 -9.41399,-3.07611 -9.41399,-3.07611c0,0 -1.8932,-2.7453 -1.8932,-10.23604z" fill="url(#color-3)" stroke="url(#color-4)" stroke-width="2"/><path d="M116.92209,123c0,-9.98416 8.09377,-18.07793 18.07793,-18.07793c9.98416,0 18.07793,8.09377 18.07793,18.07793c0,9.98416 -8.09377,18.07793 -18.07793,18.07793c-9.98416,0 -18.07793,-8.09377 -18.07793,-18.07793z" fill="#ffffff" stroke="none" stroke-width="0"/><path d="M124.20465,123c0,-5.9621 4.83324,-10.79537 10.79537,-10.79537c5.9621,0 10.79537,4.83324 10.79537,10.79537c0,5.9621 -4.83324,10.79537 -10.79537,10.79537c-5.9621,0 -10.79537,-4.83324 -10.79537,-10.79537z" fill="url(#color-5)" stroke="none" stroke-width="0"/><path d="M137.05403,118.59832c0,-1.7981 1.45764,-3.25574 3.25574,-3.25574c1.7981,0 3.25574,1.45764 3.25574,3.25574c0,1.7981 -1.45764,3.25574 -3.25574,3.25574c-1.7981,0 -3.25574,-1.45764 -3.25574,-3.25574z" fill="#ffffff" stroke="none" stroke-width="NaN"/><text transform="translate(115.98315,186.76789) scale(0.67042,0.67042)" font-size="40" xml:space="preserve" fill="#bf0000" fill-rule="nonzero" stroke="#bf0000" stroke-width="3" stroke-linecap="butt" stroke-linejoin="miter" stroke-miterlimit="10" stroke-dasharray="" stroke-dashoffset="0" font-family="Sans Serif" font-weight="normal" text-anchor="start" style="mix-blend-mode: normal"><tspan x="0" dy="0">costs:</tspan></text><text transform="translate(266.86532,186.26291) scale(0.67042,0.67042)" font-size="40" xml:space="preserve" fill="#bf0000" fill-rule="nonzero" stroke="#bf0000" stroke-width="3" stroke-linecap="butt" stroke-linejoin="miter" stroke-miterlimit="10" stroke-dasharray="" stroke-dashoffset="0" font-family="Sans Serif" font-weight="normal" text-anchor="start" style="mix-blend-mode: normal"><tspan x="0" dy="0">10</tspan></text></g></g></svg>