<svg version="1.1" xmlns="http://www.w3.org/2000/svg" xmlns:xlink="http://www.w3.org/1999/xlink" width="165.52978" height="107.8778" viewBox="0,0,165.52978,107.8778"><g transform="translate(-79.11575,-157.476)"><g data-paper-data="{&quot;isPaintingLayer&quot;:true}" fill-rule="nonzero" stroke="none" stroke-width="0" stroke-linecap="butt" stroke-linejoin="miter" stroke-miterlimit="10" stroke-dasharray="" stroke-dashoffset="0" style="mix-blend-mode: normal"><g><path d="M79.11575,254.13511c0,-6.19591 5.02278,-11.21869 11.21869,-11.21869c6.19591,0 11.21869,5.02278 11.21869,11.21869c0,6.1959 -5.02278,11.21869 -11.21869,11.21869c-6.19591,0 -11.21869,-5.02278 -11.21869,-11.21869z" fill="#f10000"/><path d="M81.58072,255.25498c0,-5.37484 4.35716,-9.73199 9.73199,-9.73199c5.37484,0 9.73199,4.35716 9.73199,9.73199c0,5.37484 -4.35716,9.73199 -9.73199,9.73199c-5.37484,0 -9.73199,-4.35716 -9.73199,-9.73199z" fill="#cb0000"/></g><g><path d="M222.20815,253.02465c0,-6.1959 5.02278,-11.21869 11.21869,-11.21869c6.19591,0 11.21869,5.02278 11.21869,11.21869c0,6.1959 -5.02278,11.21869 -11.21869,11.21869c-6.19591,0 -11.21869,-5.02278 -11.21869,-11.21869z" fill="#f10000"/><path d="M224.67313,254.14452c0,-5.37484 4.35716,-9.73199 9.73199,-9.73199c5.37484,0 9.73199,4.35716 9.73199,9.73199c0,5.37484 -4.35716,9.73199 -9.73199,9.73199c-5.37484,0 -9.73199,-4.35716 -9.73199,-9.73199z" fill="#cb0000"/></g><path d="M81.20341,245.6031c0,0 -2.03026,-2.70615 -2.03026,-4.01856c0,-1.17735 2.03026,-3.49479 2.03026,-3.49479h158.36029c0,0 2.63934,2.60641 2.63934,3.78377c0,1.31241 -2.63934,3.72959 -2.63934,3.72959z" fill="#1767ff"/><path d="M84.77221,245.45862c0,0 -1.94459,-1.78249 -1.94459,-2.64695c0,-0.7755 1.94459,-2.30196 1.94459,-2.30196h151.67787c0,0 2.52797,1.71681 2.52797,2.4923c0,0.86446 -2.52797,2.45662 -2.52797,2.45662z" fill="#114fc1"/><g><path d="M148.51461,226.78752c0,-6.1959 5.02278,-11.21869 11.21869,-11.21869c6.19591,0 11.21869,5.02278 11.21869,11.21869c0,6.1959 -5.02278,11.21869 -11.21869,11.21869c-6.19591,0 -11.21869,-5.02278 -11.21869,-11.21869z" fill="#f10000"/><path d="M150.97959,227.90739c0,-5.37484 4.35716,-9.73199 9.73199,-9.73199c5.37484,0 9.73199,4.35716 9.73199,9.73199c0,5.37484 -4.35716,9.73199 -9.73199,9.73199c-5.37484,0 -9.73199,-4.35716 -9.73199,-9.73199z" fill="#cb0000"/></g><g><path d="M148.10818,204.75539c0,-6.1959 5.02278,-11.21869 11.21869,-11.21869c6.19591,0 11.21869,5.02278 11.21869,11.21869c0,6.1959 -5.02278,11.21869 -11.21869,11.21869c-6.19591,0 -11.21869,-5.02278 -11.21869,-11.21869z" fill="#f10000"/><path d="M150.57316,205.87526c0,-5.37484 4.35716,-9.73199 9.73199,-9.73199c5.37484,0 9.73199,4.35716 9.73199,9.73199c0,5.37484 -4.35716,9.73199 -9.73199,9.73199c-5.37484,0 -9.73199,-4.35716 -9.73199,-9.73199z" fill="#cb0000"/></g><g><path d="M205.15817,168.69469c0,-6.1959 5.02278,-11.21869 11.21869,-11.21869c6.19591,0 11.21869,5.02278 11.21869,11.21869c0,6.1959 -5.02278,11.21869 -11.21869,11.21869c-6.19591,0 -11.21869,-5.02278 -11.21869,-11.21869z" fill="#f10000"/><path d="M207.62315,169.81456c0,-5.37484 4.35716,-9.73199 9.73199,-9.73199c5.37484,0 9.73199,4.35716 9.73199,9.73199c0,5.37484 -4.35716,9.73199 -9.73199,9.73199c-5.37484,0 -9.73199,-4.35716 -9.73199,-9.73199z" fill="#cb0000"/></g></g></g></svg>