<svg version="1.1" xmlns="http://www.w3.org/2000/svg" xmlns:xlink="http://www.w3.org/1999/xlink" width="600.92299" height="290.0755" viewBox="0,0,600.92299,290.0755"><g transform="translate(77.60703,-116.30892)"><g data-paper-data="{&quot;isPaintingLayer&quot;:true}" fill-rule="nonzero" stroke-linejoin="miter" stroke-miterlimit="10" stroke-dasharray="" stroke-dashoffset="0" style="mix-blend-mode: normal"><g stroke-linecap="round"><path d="M299.53373,160.60706h32.51734l55.67379,110.85472h-145.34303z" fill="#272d37" stroke="none" stroke-width="0.77771"/><path d="M290.76935,178.24357l34.61841,-2.43786l4.87582,38.03144l-24.37913,57.04731l-63.87346,-0.97516z" fill="#242a33" stroke="none" stroke-width="0.9963"/><path d="M314.38937,203.67046v-36.44042" fill="none" stroke="#ba4923" stroke-width="10.0226"/><path d="M299.53373,160.55773h32.81293l8.17862,16.89914l-49.76149,0.09858z" fill="#ba4923" stroke="none" stroke-width="0.77771"/><path d="M327.69924,221.85318v-45.26458" fill="none" stroke="#ba4923" stroke-width="6.96287"/></g><path d="M-29.68404,380.00002v-110h553v110z" fill="#464f64" stroke="none" stroke-width="0" stroke-linecap="butt"/><path d="M378.3564,144.57777h37.9344l64.94815,129.3216h-169.55493z" fill="#464f64" stroke="none" stroke-width="0.9963" stroke-linecap="round"/><path d="M368.48732,164.17942l40.80815,-2.87375l5.74762,44.83143l-73.7381,200.24732l-91.29398,-15.14952z" fill="#3c4555" stroke="none" stroke-width="0.9963" stroke-linecap="round"/><path d="M392.19154,184.84081v-29.79767" fill="none" stroke="#ff622e" stroke-width="12.91654" stroke-linecap="round"/><path d="M378.3564,144.52029h38.27927l9.54106,19.71428l-58.05101,0.11503z" fill="#ff622e" stroke="none" stroke-width="0.9963" stroke-linecap="round"/><path d="M411.78282,154.28609v46.20433" fill="none" stroke="#ff622e" stroke-width="8.89388" stroke-linecap="round"/><path d="M49.57908,149.75716h35.38161l78.5778,168.61932c0,0 -30.57162,33.55846 -52.86342,39.45562c-42.77504,11.31588 -188.2821,32.54438 -188.2821,32.54438z" fill="#272d37" stroke="none" stroke-width="0.77771" stroke-linecap="round"/><path d="M66.97902,158.59564v39.65026" fill="none" stroke="#ba4923" stroke-width="10.0226" stroke-linecap="round"/><path d="M49.57908,149.70353h35.70325l8.89903,18.3877l-54.14472,0.10726z" fill="#ba4923" stroke="none" stroke-width="0.77771" stroke-linecap="round"/><path d="M80.22553,206.60537v-49.2517" fill="none" stroke="#ba4923" stroke-width="6.96287" stroke-linecap="round"/><path d="M189.30823,116.37758h45.32647l77.60425,154.5218h-202.59519z" fill="#464f64" stroke="none" stroke-width="0.9963" stroke-linecap="round"/><path d="M179.90664,137.3827l45.20587,0.1053l2.28955,29.45848l-78.94775,213.43794l-94.9433,-6.35791z" fill="#3c4555" stroke="none" stroke-width="0.9963" stroke-linecap="round"/><path d="M205.83932,128.88223v81.00904" fill="none" stroke="#ff622e" stroke-width="12.91653" stroke-linecap="round"/><path d="M189.30823,116.30893h45.73854l11.40027,23.5559l-69.3631,0.13745z" fill="#ff622e" stroke="none" stroke-width="0.9963" stroke-linecap="round"/><path d="M223.74826,164.18563v-31.20791" fill="none" stroke="#ff622e" stroke-width="8.89387" stroke-linecap="round"/></g></g></svg>