<svg version="1.1" xmlns="http://www.w3.org/2000/svg" xmlns:xlink="http://www.w3.org/1999/xlink" width="543.239" height="304.04207" viewBox="0,0,543.239,304.04207"><defs><linearGradient x1="212.89045" y1="257.86846" x2="212.89045" y2="373.06096" gradientUnits="userSpaceOnUse" id="color-1"><stop offset="0" stop-color="#ff0000"/><stop offset="1" stop-color="#404040"/></linearGradient></defs><g transform="translate(40.49176,-69.01889)"><g data-paper-data="{&quot;isPaintingLayer&quot;:true}" fill-rule="nonzero" stroke-linejoin="miter" stroke-miterlimit="10" stroke-dasharray="" stroke-dashoffset="0" style="mix-blend-mode: normal"><path d="M-23.61036,373.06096v-115.19251h526.3576v115.19251z" fill="url(#color-1)" stroke="none" stroke-width="0" stroke-linecap="butt"/><path d="M489.4837,264.80232l-520.30585,0.4531" fill="none" stroke="#4c4c4c" stroke-width="10" stroke-linecap="round"/><path d="M492.67375,255.23217l-528.16551,0.4531" fill="none" stroke="#510000" stroke-width="10" stroke-linecap="round"/><path d="M88.93537,273.84882v-80.33851h351.77152v80.33851z" fill="#e00a0a" stroke="none" stroke-width="NaN" stroke-linecap="butt"/><path d="M445.07102,200.69114h-350.85769" fill="none" stroke="#4c4c4c" stroke-width="10" stroke-linecap="round"/><path d="M446.34425,194.16609h-357.22396" fill="none" stroke="#510000" stroke-width="10" stroke-linecap="round"/><path d="M170.12321,216.31056v-80.33852h181.13046v80.33852z" fill="#e00a0a" stroke="none" stroke-width="NaN" stroke-linecap="butt"/><path d="M353.50081,143.15288h-180.65992" fill="none" stroke="#4c4c4c" stroke-width="10" stroke-linecap="round"/><path d="M354.15641,136.62783h-183.93797" fill="none" stroke="#510000" stroke-width="10" stroke-linecap="round"/><path d="M256.25394,153.70162v-80.33851h70.50347v80.33852z" fill="#e00a0a" stroke="none" stroke-width="NaN" stroke-linecap="butt"/><path d="M327.63209,80.54394h-70.32032" fill="none" stroke="#4c4c4c" stroke-width="10" stroke-linecap="round"/><path d="M327.88727,74.01889h-71.59627" fill="none" stroke="#510000" stroke-width="10" stroke-linecap="round"/><path d="M412.90559,122.66559v-48.80698h70.50347v48.80699z" fill="#e00a0a" stroke="none" stroke-width="NaN" stroke-linecap="butt"/><path d="M484.28374,81.03944h-70.32032" fill="none" stroke="#4c4c4c" stroke-width="10" stroke-linecap="round"/><path d="M412.94265,74.51439h71.59627" fill="none" stroke="#510000" stroke-width="10" stroke-linecap="round"/></g></g></svg>