<svg version="1.1" xmlns="http://www.w3.org/2000/svg" xmlns:xlink="http://www.w3.org/1999/xlink" width="564" height="410" viewBox="0,0,564,410"><defs><linearGradient x1="236.69443" y1="-28.15973" x2="236.69443" y2="379.84027" gradientUnits="userSpaceOnUse" id="color-1"><stop offset="0" stop-color="#008eff"/><stop offset="1" stop-color="#66ebff"/></linearGradient><radialGradient cx="26.40319" cy="24.30408" r="20.69369" gradientUnits="userSpaceOnUse" id="color-2"><stop offset="0" stop-color="#ffe900"/><stop offset="1" stop-color="#ffe900" stop-opacity="0"/></radialGradient><radialGradient cx="25.89223" cy="24.30408" r="7.79207" gradientUnits="userSpaceOnUse" id="color-3"><stop offset="0" stop-color="#ffd500"/><stop offset="1" stop-color="#f6ff00"/></radialGradient></defs><g transform="translate(45.30557,29.15973)"><g data-paper-data="{&quot;isPaintingLayer&quot;:true}" fill-rule="nonzero" stroke-linecap="butt" stroke-linejoin="miter" stroke-miterlimit="10" stroke-dasharray="" stroke-dashoffset="0" style="mix-blend-mode: normal"><path d="M-44.30557,379.84027v-408h562v408z" fill="url(#color-1)" stroke="#000000" stroke-width="2"/><path d="M5.30632,23.96876c0,-11.42882 9.26487,-20.69369 20.69369,-20.69369c11.42882,0 20.69369,9.26487 20.69369,20.69369c0,11.42882 -9.26487,20.69369 -20.69369,20.69369c-11.42882,0 -20.69369,-9.26487 -20.69369,-20.69369z" fill="url(#color-2)" stroke="none" stroke-width="0"/><path d="M18.20794,23.96876c0,-4.30345 3.48863,-7.79207 7.79207,-7.79207c4.30345,0 7.79207,3.48863 7.79207,7.79207c0,4.30345 -3.48863,7.79207 -7.79207,7.79207c-4.30345,0 -7.79207,-3.48863 -7.79207,-7.79207z" fill="url(#color-3)" stroke="none" stroke-width="0"/></g></g></svg>