<svg version="1.1" xmlns="http://www.w3.org/2000/svg" xmlns:xlink="http://www.w3.org/1999/xlink" width="487.71644" height="239.68477" viewBox="0,0,487.71644,239.68477"><g transform="translate(19.18107,-25.66904)"><g data-paper-data="{&quot;isPaintingLayer&quot;:true}" fill-rule="nonzero" stroke="none" stroke-width="0" stroke-linecap="butt" stroke-linejoin="miter" stroke-miterlimit="10" stroke-dasharray="" stroke-dashoffset="0" style="mix-blend-mode: normal"><g><path d="M280.45595,215.17725c-6.19591,0 -11.21869,-5.02278 -11.21869,-11.21869c0,-6.19591 5.02278,-11.21869 11.21869,-11.21869c6.1959,0 11.21869,5.02278 11.21869,11.21869c0,6.19591 -5.02278,11.21869 -11.21869,11.21869z" fill="#f10000"/><path d="M281.57582,212.71228c-5.37484,0 -9.73199,-4.35716 -9.73199,-9.73199c0,-5.37484 4.35716,-9.73199 9.73199,-9.73199c5.37484,0 9.73199,4.35716 9.73199,9.73199c0,5.37484 -4.35716,9.73199 -9.73199,9.73199z" fill="#cb0000"/></g><g><path d="M279.34549,72.08486c-6.1959,0 -11.21869,-5.02278 -11.21869,-11.21869c0,-6.19591 5.02278,-11.21869 11.21869,-11.21869c6.1959,0 11.21869,5.02278 11.21869,11.21869c0,6.19591 -5.02278,11.21869 -11.21869,11.21869z" fill="#f10000"/><path d="M280.46536,69.61988c-5.37484,0 -9.73199,-4.35716 -9.73199,-9.73199c0,-5.37484 4.35716,-9.73199 9.73199,-9.73199c5.37484,0 9.73199,4.35716 9.73199,9.73199c0,5.37484 -4.35716,9.73199 -9.73199,9.73199z" fill="#cb0000"/></g><path d="M271.92394,213.08958c0,0 -2.70615,2.03026 -4.01856,2.03026c-1.17735,0 -3.49479,-2.03026 -3.49479,-2.03026v-158.36029c0,0 2.60641,-2.63934 3.78377,-2.63934c1.31241,0 3.72959,2.63934 3.72959,2.63934z" fill="#1767ff"/><path d="M271.77946,209.5208c0,0 -1.78249,1.94459 -2.64695,1.94459c-0.7755,0 -2.30196,-1.94459 -2.30196,-1.94459v-151.67787c0,0 1.71681,-2.52797 2.4923,-2.52797c0.86446,0 2.45662,2.52797 2.45662,2.52797z" fill="#114fc1"/><g><path d="M312.35553,64.08026c0,-6.19591 5.02278,-11.21869 11.21869,-11.21869c6.19591,0 11.21869,5.02278 11.21869,11.21869c0,6.1959 -5.02278,11.21869 -11.21869,11.21869c-6.19591,0 -11.21869,-5.02278 -11.21869,-11.21869z" fill="#f10000"/><path d="M314.8205,65.20013c0,-5.37484 4.35716,-9.73199 9.73199,-9.73199c5.37484,0 9.73199,4.35716 9.73199,9.73199c0,5.37484 -4.35716,9.73199 -9.73199,9.73199c-5.37484,0 -9.73199,-4.35716 -9.73199,-9.73199z" fill="#cb0000"/></g><g><path d="M406.32222,62.39187c0,-6.1959 5.02278,-11.21869 11.21869,-11.21869c6.19591,0 11.21869,5.02278 11.21869,11.21869c0,6.1959 -5.02278,11.21869 -11.21869,11.21869c-6.19591,0 -11.21869,-5.02278 -11.21869,-11.21869z" fill="#f10000"/><path d="M408.78719,63.51173c0,-5.37484 4.35716,-9.73199 9.73199,-9.73199c5.37484,0 9.73199,4.35716 9.73199,9.73199c0,5.37484 -4.35716,9.73199 -9.73199,9.73199c-5.37484,0 -9.73199,-4.35716 -9.73199,-9.73199z" fill="#cb0000"/></g><path d="M313.85779,55.54826c0,0 -1.44487,-2.70615 -1.44487,-4.01856c0,-1.17735 1.44487,-3.49479 1.44487,-3.49479h112.70013c0,0 1.87834,2.60641 1.87834,3.78377c0,1.31241 -1.87834,3.72959 -1.87834,3.72959z" fill="#1767ff"/><path d="M316.39759,55.40378c0,0 -1.38391,-1.78249 -1.38391,-2.64695c0,-0.7755 1.38391,-2.30196 1.38391,-2.30196h107.94447c0,0 1.79908,1.71681 1.79908,2.4923c0,0.86446 -1.79908,2.45662 -1.79908,2.45662z" fill="#114fc1"/><g><path d="M322.8689,48.10642c-6.19591,0 -11.21869,-5.02278 -11.21869,-11.21869c0,-6.19591 5.02278,-11.21869 11.21869,-11.21869c6.1959,0 11.21869,5.02278 11.21869,11.21869c0,6.19591 -5.02278,11.21869 -11.21869,11.21869z" fill="#f10000"/><path d="M323.98877,45.64145c-5.37484,0 -9.73199,-4.35716 -9.73199,-9.73199c0,-5.37484 4.35716,-9.73199 9.73199,-9.73199c5.37484,0 9.73199,4.35716 9.73199,9.73199c0,5.37484 -4.35716,9.73199 -9.73199,9.73199z" fill="#cb0000"/></g><g><path d="M-19.18107,57.27354c0,-6.19591 5.02278,-11.21869 11.21869,-11.21869c6.19591,0 11.21869,5.02278 11.21869,11.21869c0,6.1959 -5.02278,11.21869 -11.21869,11.21869c-6.19591,0 -11.21869,-5.02278 -11.21869,-11.21869z" fill="#f10000"/><path d="M-16.7161,58.39341c0,-5.37484 4.35716,-9.73199 9.73199,-9.73199c5.37484,0 9.73199,4.35716 9.73199,9.73199c0,5.37484 -4.35716,9.73199 -9.73199,9.73199c-5.37484,0 -9.73199,-4.35716 -9.73199,-9.73199z" fill="#cb0000"/></g><g><path d="M74.78562,55.58515c0,-6.1959 5.02278,-11.21869 11.21869,-11.21869c6.19591,0 11.21869,5.02278 11.21869,11.21869c0,6.1959 -5.02278,11.21869 -11.21869,11.21869c-6.19591,0 -11.21869,-5.02278 -11.21869,-11.21869z" fill="#f10000"/><path d="M77.25059,56.70501c0,-5.37484 4.35716,-9.73199 9.73199,-9.73199c5.37484,0 9.73199,4.35716 9.73199,9.73199c0,5.37484 -4.35716,9.73199 -9.73199,9.73199c-5.37484,0 -9.73199,-4.35716 -9.73199,-9.73199z" fill="#cb0000"/></g><path d="M-17.67881,48.74154c0,0 -1.44487,-2.70615 -1.44487,-4.01856c0,-1.17735 1.44487,-3.49479 1.44487,-3.49479h112.70013c0,0 1.87834,2.60641 1.87834,3.78377c0,1.31241 -1.87834,3.72959 -1.87834,3.72959z" fill="#1767ff"/><path d="M-15.13901,48.59706c0,0 -1.38391,-1.78249 -1.38391,-2.64695c0,-0.7755 1.38391,-2.30196 1.38391,-2.30196h107.94447c0,0 1.79908,1.71681 1.79908,2.4923c0,0.86446 -1.79908,2.45662 -1.79908,2.45662z" fill="#114fc1"/><g><path d="M124.58559,145.14124c-6.19591,0 -11.21869,-5.02278 -11.21869,-11.21869c0,-6.19591 5.02278,-11.21869 11.21869,-11.21869c6.1959,0 11.21869,5.02278 11.21869,11.21869c0,6.19591 -5.02278,11.21869 -11.21869,11.21869z" fill="#f10000"/><path d="M125.70546,142.67627c-5.37484,0 -9.73199,-4.35716 -9.73199,-9.73199c0,-5.37484 4.35716,-9.73199 9.73199,-9.73199c5.37484,0 9.73199,4.35716 9.73199,9.73199c0,5.37484 -4.35716,9.73199 -9.73199,9.73199z" fill="#cb0000"/></g><g><path d="M200.69599,196.6937c-6.19591,0 -11.21869,-5.02278 -11.21869,-11.21869c0,-6.19591 5.02278,-11.21869 11.21869,-11.21869c6.1959,0 11.21869,5.02278 11.21869,11.21869c0,6.19591 -5.02278,11.21869 -11.21869,11.21869z" fill="#f10000"/><path d="M201.81586,194.22873c-5.37484,0 -9.73199,-4.35716 -9.73199,-9.73199c0,-5.37484 4.35716,-9.73199 9.73199,-9.73199c5.37484,0 9.73199,4.35716 9.73199,9.73199c0,5.37484 -4.35716,9.73199 -9.73199,9.73199z" fill="#cb0000"/></g><g><path d="M199.0076,102.72701c-6.1959,0 -11.21869,-5.02278 -11.21869,-11.21869c0,-6.19591 5.02278,-11.21869 11.21869,-11.21869c6.1959,0 11.21869,5.02278 11.21869,11.21869c0,6.19591 -5.02278,11.21869 -11.21869,11.21869z" fill="#f10000"/><path d="M200.12746,100.26204c-5.37484,0 -9.73199,-4.35716 -9.73199,-9.73199c0,-5.37484 4.35716,-9.73199 9.73199,-9.73199c5.37484,0 9.73199,4.35716 9.73199,9.73199c0,5.37484 -4.35716,9.73199 -9.73199,9.73199z" fill="#cb0000"/></g><path d="M192.16399,195.19144c0,0 -2.70615,1.44487 -4.01856,1.44487c-1.17735,0 -3.49479,-1.44487 -3.49479,-1.44487v-112.70013c0,0 2.60641,-1.87834 3.78377,-1.87834c1.31241,0 3.72959,1.87834 3.72959,1.87834z" fill="#1767ff"/><path d="M192.01951,192.65164c0,0 -1.78249,1.38391 -2.64695,1.38391c-0.7755,0 -2.30196,-1.38391 -2.30196,-1.38391v-107.94447c0,0 1.71681,-1.79908 2.4923,-1.79908c0.86446,0 2.45662,1.79908 2.45662,1.79908z" fill="#114fc1"/><g><path d="M417.50876,48.50858c-6.19591,0 -11.21869,-5.02278 -11.21869,-11.21869c0,-6.19591 5.02278,-11.21869 11.21869,-11.21869c6.1959,0 11.21869,5.02278 11.21869,11.21869c0,6.19591 -5.02278,11.21869 -11.21869,11.21869z" fill="#f10000"/><path d="M418.62863,46.04361c-5.37484,0 -9.73199,-4.35716 -9.73199,-9.73199c0,-5.37484 4.35716,-9.73199 9.73199,-9.73199c5.37484,0 9.73199,4.35716 9.73199,9.73199c0,5.37484 -4.35716,9.73199 -9.73199,9.73199z" fill="#cb0000"/></g><g><path d="M79.11575,254.13512c0,-6.19591 5.02278,-11.21869 11.21869,-11.21869c6.19591,0 11.21869,5.02278 11.21869,11.21869c0,6.1959 -5.02278,11.21869 -11.21869,11.21869c-6.19591,0 -11.21869,-5.02278 -11.21869,-11.21869z" fill="#f10000"/><path d="M81.58072,255.25498c0,-5.37484 4.35716,-9.73199 9.73199,-9.73199c5.37484,0 9.73199,4.35716 9.73199,9.73199c0,5.37484 -4.35716,9.73199 -9.73199,9.73199c-5.37484,0 -9.73199,-4.35716 -9.73199,-9.73199z" fill="#cb0000"/></g><g><path d="M222.20815,253.02466c0,-6.1959 5.02278,-11.21869 11.21869,-11.21869c6.19591,0 11.21869,5.02278 11.21869,11.21869c0,6.1959 -5.02278,11.21869 -11.21869,11.21869c-6.19591,0 -11.21869,-5.02278 -11.21869,-11.21869z" fill="#f10000"/><path d="M224.67313,254.14453c0,-5.37484 4.35716,-9.73199 9.73199,-9.73199c5.37484,0 9.73199,4.35716 9.73199,9.73199c0,5.37484 -4.35716,9.73199 -9.73199,9.73199c-5.37484,0 -9.73199,-4.35716 -9.73199,-9.73199z" fill="#cb0000"/></g><path d="M81.20341,245.60311c0,0 -2.03026,-2.70615 -2.03026,-4.01856c0,-1.17735 2.03026,-3.49479 2.03026,-3.49479h158.36029c0,0 2.63934,2.60641 2.63934,3.78377c0,1.31241 -2.63934,3.72959 -2.63934,3.72959z" fill="#1767ff"/><path d="M84.77221,245.45863c0,0 -1.94459,-1.78249 -1.94459,-2.64695c0,-0.7755 1.94459,-2.30196 1.94459,-2.30196h151.67787c0,0 2.52797,1.71681 2.52797,2.4923c0,0.86446 -2.52797,2.45662 -2.52797,2.45662z" fill="#114fc1"/><g><path d="M243.32193,227.33957c0,-6.19591 5.02278,-11.21869 11.21869,-11.21869c6.19591,0 11.21869,5.02278 11.21869,11.21869c0,6.1959 -5.02278,11.21869 -11.21869,11.21869c-6.19591,0 -11.21869,-5.02278 -11.21869,-11.21869z" fill="#f10000"/><path d="M245.7869,228.45944c0,-5.37484 4.35716,-9.73199 9.73199,-9.73199c5.37484,0 9.73199,4.35716 9.73199,9.73199c0,5.37484 -4.35716,9.73199 -9.73199,9.73199c-5.37484,0 -9.73199,-4.35716 -9.73199,-9.73199z" fill="#cb0000"/></g><g><path d="M457.31668,61.30571c-6.19591,0 -11.21869,-5.02278 -11.21869,-11.21869c0,-6.19591 5.02278,-11.21869 11.21869,-11.21869c6.1959,0 11.21869,5.02278 11.21869,11.21869c0,6.19591 -5.02278,11.21869 -11.21869,11.21869z" fill="#f10000"/><path d="M458.43655,58.84074c-5.37484,0 -9.73199,-4.35716 -9.73199,-9.73199c0,-5.37484 4.35716,-9.73199 9.73199,-9.73199c5.37484,0 9.73199,4.35716 9.73199,9.73199c0,5.37484 -4.35716,9.73199 -9.73199,9.73199z" fill="#cb0000"/></g></g></g></svg>