<svg version="1.1" xmlns="http://www.w3.org/2000/svg" xmlns:xlink="http://www.w3.org/1999/xlink" width="147.71314" height="138.30651" viewBox="0,0,147.71314,138.30651"><g transform="translate(-166.14343,-110.84675)"><g data-paper-data="{&quot;isPaintingLayer&quot;:true}" fill-rule="nonzero" stroke-linecap="butt" stroke-linejoin="miter" stroke-miterlimit="10" stroke-dasharray="" stroke-dashoffset="0" style="mix-blend-mode: normal"><path d="M166.14343,127.07217c0,-6.93822 10.29833,-16.22541 20.35238,-16.22541c20.96483,0 60.63658,0 101.8826,0c15.34479,0 25.47816,9.89252 25.47816,21.04968c0,9.82953 0,90.80438 0,96.69721c0,8.2702 -8.68555,20.55962 -22.16147,20.55962c-40.54014,0 -85.20653,0 -106.40535,0c-9.54122,0 -19.14631,-7.31573 -19.14631,-16.63991c0,0 -0.00001,-101.80514 -0.00001,-105.44119z" fill="#ff5151" stroke="none" stroke-width="0"/><path d="M266.12627,222.01594l-68.14219,-68.14219l15.88966,-15.88966l68.14219,68.14219z" fill="#bf0000" stroke="#bf0000" stroke-width="1.5"/><path d="M197.98408,206.12628l68.14219,-68.14219l15.88966,15.88966l-68.14219,68.14219z" data-paper-data="{&quot;index&quot;:null}" fill="#bf0000" stroke="#bf0000" stroke-width="1.5"/></g></g></svg>