<svg version="1.1" xmlns="http://www.w3.org/2000/svg" xmlns:xlink="http://www.w3.org/1999/xlink" width="147.71314" height="138.30651" viewBox="0,0,147.71314,138.30651"><g transform="translate(-166.14343,-110.8468)"><g data-paper-data="{&quot;isPaintingLayer&quot;:true}" fill-rule="nonzero" stroke="none" stroke-linecap="butt" stroke-linejoin="miter" stroke-miterlimit="10" stroke-dasharray="" stroke-dashoffset="0" style="mix-blend-mode: normal"><path d="M166.14343,127.07222c0,-6.93822 10.29833,-16.22541 20.35238,-16.22541c20.96483,0 60.63658,0 101.8826,0c15.34479,0 25.47816,9.89252 25.47816,21.04968c0,9.82953 0,90.80438 0,96.69721c0,8.2702 -8.68555,20.55962 -22.16147,20.55962c-40.54014,0 -85.20653,0 -106.40535,0c-9.54122,0 -19.14631,-7.31573 -19.14631,-16.63991c0,0 -0.00001,-101.80514 -0.00001,-105.44119z" fill="#ff5151" stroke-width="0"/><path d="M285.18498,189.96476c-2.4053,0 -4.29515,-1.88987 -4.29515,-4.29515c0,-22.33477 -18.21144,-40.71802 -40.71802,-40.71802c-22.33477,0 -40.71802,18.21144 -40.71802,40.71802c0,2.4053 -1.88987,4.29515 -4.29515,4.29515c-2.40528,0 -4.29515,-1.88987 -4.29515,-4.29515c0,-27.14536 22.16299,-49.30832 49.30832,-49.30832c27.14535,0 49.30834,22.16299 49.30834,49.30832c0,2.4053 -1.88985,4.29515 -4.29515,4.29515z" fill="#7d8b8c" stroke-width="1"/><path d="M289.30832,187.55946c-0.85903,1.37445 -2.23348,2.4053 -3.95155,2.4053c-2.4053,0 -4.29515,-1.88987 -4.29515,-4.29515c0,-22.50659 -18.38324,-40.71802 -40.71802,-40.71802c-22.50659,0 -40.71802,18.38324 -40.71802,40.71802c0,2.4053 -1.88985,4.29515 -4.29515,4.29515c-1.71805,0 -3.26432,-1.03084 -3.95155,-2.4053c3.09252,-24.05285 23.88104,-42.77969 48.79291,-42.77969c24.91187,0 45.70039,18.55505 49.13653,42.77969z" fill="#536060" stroke-width="1"/><path d="M276.42288,195.97794c0,-4.29515 3.60793,-7.90307 7.90307,-7.90307h0.1718c4.29515,0 7.90307,3.60793 7.90307,7.90307v17.3524c0,4.29515 -3.60793,7.90309 -7.90307,7.90309h-0.1718c-4.29515,0 -7.90307,-3.60794 -7.90307,-7.90309z" fill="#394444" stroke-width="1"/><path d="M292.40083,195.97794v17.3524c0,4.29515 -3.60793,7.90309 -7.90307,7.90309h-0.1718c-4.29515,0 -7.90307,-3.60794 -7.90307,-7.90309v-17.3524" fill="#2b3535" stroke-width="1"/><path d="M266.62993,188.59029c0,-3.95155 3.2643,-7.21585 7.21585,-7.21585h6.70044c3.95155,0 7.21587,3.26432 7.21587,7.21585v27.83259c0,3.95155 -3.26432,7.21585 -7.21587,7.21585h-6.70044c-3.95155,0 -7.21585,-3.2643 -7.21585,-7.21585z" fill="#db3b5e" stroke-width="1"/><path d="M287.76207,216.42286c0,3.95155 -3.26432,7.21585 -7.21587,7.21585h-6.70044c-3.95155,0 -7.21585,-3.2643 -7.21585,-7.21585v-27.83259c0,-3.95155 3.2643,-7.21585 7.21585,-7.21585h6.70044" fill="#c42c54" stroke-width="1"/><path d="M280.54621,223.63873h-6.70044c-3.95155,0 -7.21585,-3.2643 -7.21585,-7.21585v-27.83259c0,-3.95155 3.2643,-7.21585 7.21585,-7.21585h6.70044" fill="#394444" stroke-width="1"/><path d="M273.84576,223.63873c-3.95155,0 -7.21585,-3.2643 -7.21585,-7.21585v-27.83259c0,-3.95155 1.37445,-7.21585 5.32598,-7.21585h8.5903" fill="#2b3535" stroke-width="1"/><path d="M203.57712,213.33036c0,4.29515 -3.60793,7.90309 -7.90307,7.90309h-0.1718c-4.29515,0 -7.90307,-3.60794 -7.90307,-7.90309v-17.3524c0,-4.29515 3.60793,-7.90307 7.90307,-7.90307h0.1718c4.29515,0 7.90307,3.60793 7.90307,7.90307z" fill="#394444" stroke-width="1"/><path d="M203.57712,195.97794v17.3524c0,4.29515 -3.60793,7.90309 -7.90307,7.90309h-0.1718c-4.29515,0 -7.90307,-3.60794 -7.90307,-7.90309v-17.3524" fill="#2b3535" stroke-width="1"/><path d="M213.37007,216.42286c0,3.95155 -3.2643,7.21585 -7.21585,7.21585h-6.70044c-3.95155,0 -7.21585,-3.2643 -7.21585,-7.21585v-27.83259c0,-3.95155 3.26432,-7.21585 7.21585,-7.21585h6.70044c3.95155,0 7.21585,3.26432 7.21585,7.21585z" fill="#db3b5e" stroke-width="1"/><path d="M199.45378,181.37444h6.70044c3.95155,0 7.21585,3.26432 7.21585,7.21585v27.83259c0,3.95155 -3.2643,7.21585 -7.21585,7.21585h-6.70044c-3.95155,0 -7.21585,-3.2643 -7.21585,-7.21585" fill="#c42c54" stroke-width="1"/><path d="M199.45378,181.37444h6.70044c3.95155,0 7.21585,3.26432 7.21585,7.21585v27.83259c0,3.95155 -3.2643,7.21585 -7.21585,7.21585h-6.70044" fill="#394444" stroke-width="1"/><path d="M199.45378,181.37444h8.5903c3.95155,0 5.32598,3.26432 5.32598,7.21585v27.83259c0,3.95155 -3.2643,7.21585 -7.21585,7.21585" fill="#2b3535" stroke-width="1"/></g></g></svg>