<svg version="1.1" xmlns="http://www.w3.org/2000/svg" xmlns:xlink="http://www.w3.org/1999/xlink" width="45.49084" height="45.49085" viewBox="0,0,45.49084,45.49085"><defs><linearGradient x1="240" y1="158.25458" x2="240" y2="201.74543" gradientUnits="userSpaceOnUse" id="color-1"><stop offset="0" stop-color="#ffa000"/><stop offset="1" stop-color="#ff9f45"/></linearGradient><linearGradient x1="240" y1="158.25458" x2="240" y2="201.74543" gradientUnits="userSpaceOnUse" id="color-2"><stop offset="0" stop-color="#ffa000"/><stop offset="1" stop-color="#ff9f45"/></linearGradient><linearGradient x1="240" y1="171.38388" x2="240" y2="188.61612" gradientUnits="userSpaceOnUse" id="color-3"><stop offset="0" stop-color="#ffa000"/><stop offset="1" stop-color="#ff9f45"/></linearGradient></defs><g transform="translate(-217.25458,-157.25458)"><g data-paper-data="{&quot;isPaintingLayer&quot;:true}" fill-rule="nonzero" stroke-linecap="butt" stroke-linejoin="miter" stroke-miterlimit="10" stroke-dasharray="" stroke-dashoffset="0" style="mix-blend-mode: normal"><path d="M218.25458,191.1206c0,-8.33667 0,-19.26396 0,-23.79688c0,-3.99532 2.0713,-6.31403 2.0713,-6.31403c0,0 3.69709,-2.75511 8.04743,-2.75511c4.88182,0 16.47276,0 24.61745,0c2.78149,0 5.10803,1.07694 6.59854,2.70429c1.5009,1.63869 2.15612,3.83751 2.15612,6.63839c0,8.39726 0,20.12 0,24.89098c0,4.06014 -0.95735,6.38516 -0.95735,6.38516c0,0 -2.35061,2.87203 -6.97673,2.87203c-8.51396,0 -21.49265,0 -26.53214,0c-3.97989,0 -7.5136,-2.45514 -7.5136,-2.45514c0,0 -1.51102,-2.19111 -1.51102,-8.1697z" fill="url(#color-1)" stroke="url(#color-2)" stroke-width="2"/><path d="M225.57144,180c0,-7.96867 6.45989,-14.42856 14.42856,-14.42856c7.96867,0 14.42856,6.45989 14.42856,14.42856c0,7.96867 -6.45989,14.42856 -14.42856,14.42856c-7.96867,0 -14.42856,-6.45989 -14.42856,-14.42856z" fill="#ffffff" stroke="none" stroke-width="0"/><path d="M231.38388,180c0,-4.75854 3.85756,-8.61612 8.61612,-8.61612c4.75854,0 8.61612,3.85756 8.61612,8.61612c0,4.75854 -3.85756,8.61612 -8.61612,8.61612c-4.75854,0 -8.61612,-3.85756 -8.61612,-8.61612z" fill="url(#color-3)" stroke="none" stroke-width="0"/><path d="M241.63937,176.48688c0,-1.43512 1.16339,-2.59851 2.59851,-2.59851c1.43512,0 2.59851,1.16339 2.59851,2.59851c0,1.43512 -1.16339,2.59851 -2.59851,2.59851c-1.43512,0 -2.59851,-1.16339 -2.59851,-2.59851z" fill="#ffffff" stroke="none" stroke-width="NaN"/></g></g></svg>