<svg version="1.1" xmlns="http://www.w3.org/2000/svg" xmlns:xlink="http://www.w3.org/1999/xlink" width="169.14654" height="140.86301" viewBox="0,0,169.14654,140.86301"><g transform="translate(-155.42673,-109.56849)"><g data-paper-data="{&quot;isPaintingLayer&quot;:true}" fill-rule="nonzero" stroke="none" stroke-width="1" stroke-linecap="butt" stroke-linejoin="miter" stroke-miterlimit="10" stroke-dasharray="" stroke-dashoffset="0" style="mix-blend-mode: normal"><g><path d="M312.92712,196.08279c-3.88207,0 -6.93223,-3.05019 -6.93223,-6.93223c0,-36.04761 -29.39269,-65.71759 -65.71759,-65.71759c-36.04761,0 -65.71759,29.39269 -65.71759,65.71759c0,3.88207 -3.05019,6.93223 -6.93223,6.93223c-3.88204,0 -6.93223,-3.05019 -6.93223,-6.93223c0,-43.81175 35.77036,-79.58206 79.58206,-79.58206c43.81173,0 79.58209,35.77036 79.58209,79.58206c0,3.88207 -3.05016,6.93223 -6.93223,6.93223z" fill="#7d8b8c"/><path d="M319.58207,192.20072c-1.38644,2.21832 -3.60476,3.88207 -6.37767,3.88207c-3.88207,0 -6.93223,-3.05019 -6.93223,-6.93223c0,-36.32493 -29.66997,-65.71759 -65.71759,-65.71759c-36.32493,0 -65.71759,29.66997 -65.71759,65.71759c0,3.88207 -3.05016,6.93223 -6.93223,6.93223c-2.77288,0 -5.26851,-1.66375 -6.37767,-3.88207c4.99123,-38.82053 38.54324,-69.04506 78.75021,-69.04506c40.20697,0 73.75898,29.94726 79.3048,69.04506z" fill="#536060"/><path d="M298.78537,205.78788c0,-6.93223 5.82308,-12.75531 12.75531,-12.75531h0.27728c6.93223,0 12.75531,5.82308 12.75531,12.75531v28.00622c0,6.93223 -5.82308,12.75534 -12.75531,12.75534h-0.27728c-6.93223,0 -12.75531,-5.8231 -12.75531,-12.75534z" fill="#394444"/><path d="M324.57327,205.78788v28.00622c0,6.93223 -5.82308,12.75534 -12.75531,12.75534h-0.27728c-6.93223,0 -12.75531,-5.8231 -12.75531,-12.75534v-28.00622" fill="#2b3535"/><path d="M282.97986,193.86444c0,-6.37767 5.26848,-11.64615 11.64615,-11.64615h10.8143c6.37767,0 11.64618,5.26851 11.64618,11.64615v44.92091c0,6.37767 -5.26851,11.64615 -11.64618,11.64615h-10.8143c-6.37767,0 -11.64615,-5.26848 -11.64615,-11.64615z" fill="#db3b5e"/><path d="M317.08647,238.78533c0,6.37767 -5.26851,11.64615 -11.64618,11.64615h-10.8143c-6.37767,0 -11.64615,-5.26848 -11.64615,-11.64615v-44.92091c0,-6.37767 5.26848,-11.64615 11.64615,-11.64615h10.8143" fill="#c42c54"/><path d="M305.44029,250.43151h-10.8143c-6.37767,0 -11.64615,-5.26848 -11.64615,-11.64615v-44.92091c0,-6.37767 5.26848,-11.64615 11.64615,-11.64615h10.8143" fill="#394444"/><path d="M294.62599,250.43151c-6.37767,0 -11.64615,-5.26848 -11.64615,-11.64615v-44.92091c0,-6.37767 2.21832,-11.64615 8.59596,-11.64615h13.86447" fill="#2b3535"/><path d="M181.21463,233.79413c0,6.93223 -5.82308,12.75534 -12.75531,12.75534h-0.27728c-6.93223,0 -12.75531,-5.8231 -12.75531,-12.75534v-28.00622c0,-6.93223 5.82308,-12.75531 12.75531,-12.75531h0.27728c6.93223,0 12.75531,5.82308 12.75531,12.75531z" fill="#394444"/><path d="M181.21463,205.78788v28.00622c0,6.93223 -5.82308,12.75534 -12.75531,12.75534h-0.27728c-6.93223,0 -12.75531,-5.8231 -12.75531,-12.75534v-28.00622" fill="#2b3535"/><path d="M197.02014,238.78533c0,6.37767 -5.26848,11.64615 -11.64615,11.64615h-10.8143c-6.37767,0 -11.64615,-5.26848 -11.64615,-11.64615v-44.92091c0,-6.37767 5.26851,-11.64615 11.64615,-11.64615h10.8143c6.37767,0 11.64615,5.26851 11.64615,11.64615z" fill="#db3b5e"/><path d="M174.55968,182.21829h10.8143c6.37767,0 11.64615,5.26851 11.64615,11.64615v44.92091c0,6.37767 -5.26848,11.64615 -11.64615,11.64615h-10.8143c-6.37767,0 -11.64615,-5.26848 -11.64615,-11.64615" fill="#c42c54"/><path d="M174.55968,182.21829h10.8143c6.37767,0 11.64615,5.26851 11.64615,11.64615v44.92091c0,6.37767 -5.26848,11.64615 -11.64615,11.64615h-10.8143" fill="#394444"/><path d="M174.55968,182.21829h13.86447c6.37767,0 8.59596,5.26851 8.59596,11.64615v44.92091c0,6.37767 -5.26848,11.64615 -11.64615,11.64615" fill="#2b3535"/></g></g></g></svg>