<svg version="1.1" xmlns="http://www.w3.org/2000/svg" xmlns:xlink="http://www.w3.org/1999/xlink" width="63.73053" height="53.07394" viewBox="0,0,63.73053,53.07394"><g transform="translate(-208.09339,-132.5685)"><g data-paper-data="{&quot;isPaintingLayer&quot;:true}" fill-rule="nonzero" stroke="none" stroke-width="1" stroke-linecap="butt" stroke-linejoin="miter" stroke-miterlimit="10" stroke-dasharray="" stroke-dashoffset="0" style="mix-blend-mode: normal"><path d="M267.43592,165.1651c-1.46267,0 -2.6119,-1.14924 -2.6119,-2.6119c0,-13.58191 -11.07449,-24.76088 -24.76088,-24.76088c-13.58191,0 -24.76088,11.07449 -24.76088,24.76088c0,1.46267 -1.14924,2.6119 -2.6119,2.6119c-1.46266,0 -2.6119,-1.14924 -2.6119,-2.6119c0,-16.50726 13.47745,-29.98469 29.98469,-29.98469c16.50725,0 29.9847,13.47745 29.9847,29.98469c0,1.46267 -1.14923,2.6119 -2.6119,2.6119z" fill="#7d8b8c"/><path d="M269.94335,163.70243c-0.52238,0.83581 -1.35819,1.46267 -2.40296,1.46267c-1.46267,0 -2.6119,-1.14924 -2.6119,-2.6119c0,-13.6864 -11.17896,-24.76088 -24.76088,-24.76088c-13.6864,0 -24.76088,11.17896 -24.76088,24.76088c0,1.46267 -1.14923,2.6119 -2.6119,2.6119c-1.04476,0 -1.98505,-0.62686 -2.40296,-1.46267c1.88058,-14.62668 14.52221,-26.01459 29.67127,-26.01459c15.14906,0 27.79069,11.28344 29.88023,26.01459z" fill="#536060"/><path d="M262.10763,168.82176c0,-2.6119 2.194,-4.80591 4.80591,-4.80591h0.10447c2.6119,0 4.80591,2.194 4.80591,4.80591v10.5521c0,2.6119 -2.194,4.80592 -4.80591,4.80592h-0.10447c-2.6119,0 -4.80591,-2.19401 -4.80591,-4.80592z" fill="#394444"/><path d="M271.82392,168.82176v10.5521c0,2.6119 -2.194,4.80592 -4.80591,4.80592h-0.10447c-2.6119,0 -4.80591,-2.19401 -4.80591,-4.80592v-10.5521" fill="#2b3535"/><path d="M256.15248,164.32928c0,-2.40296 1.98504,-4.388 4.388,-4.388h4.07458c2.40296,0 4.38801,1.98505 4.38801,4.388v16.92517c0,2.40296 -1.98505,4.388 -4.38801,4.388h-4.07458c-2.40296,0 -4.388,-1.98504 -4.388,-4.388z" fill="#db3b5e"/><path d="M269.00307,181.25444c0,2.40296 -1.98505,4.388 -4.38801,4.388h-4.07458c-2.40296,0 -4.388,-1.98504 -4.388,-4.388v-16.92517c0,-2.40296 1.98504,-4.388 4.388,-4.388h4.07458" fill="#c42c54"/><path d="M264.61505,185.64245h-4.07458c-2.40296,0 -4.388,-1.98504 -4.388,-4.388v-16.92517c0,-2.40296 1.98504,-4.388 4.388,-4.388h4.07458" fill="#394444"/><path d="M260.54047,185.64245c-2.40296,0 -4.388,-1.98504 -4.388,-4.388v-16.92517c0,-2.40296 0.83581,-4.388 3.23876,-4.388h5.22381" fill="#2b3535"/><path d="M217.80968,179.37387c0,2.6119 -2.194,4.80592 -4.80591,4.80592h-0.10447c-2.6119,0 -4.80591,-2.19401 -4.80591,-4.80592v-10.5521c0,-2.6119 2.194,-4.80591 4.80591,-4.80591h0.10447c2.6119,0 4.80591,2.194 4.80591,4.80591z" fill="#394444"/><path d="M217.80968,168.82176v10.5521c0,2.6119 -2.194,4.80592 -4.80591,4.80592h-0.10447c-2.6119,0 -4.80591,-2.19401 -4.80591,-4.80592v-10.5521" fill="#2b3535"/><path d="M223.76483,181.25444c0,2.40296 -1.98504,4.388 -4.388,4.388h-4.07458c-2.40296,0 -4.388,-1.98504 -4.388,-4.388v-16.92517c0,-2.40296 1.98505,-4.388 4.388,-4.388h4.07458c2.40296,0 4.388,1.98505 4.388,4.388z" fill="#db3b5e"/><path d="M215.30225,159.94128h4.07458c2.40296,0 4.388,1.98505 4.388,4.388v16.92517c0,2.40296 -1.98504,4.388 -4.388,4.388h-4.07458c-2.40296,0 -4.388,-1.98504 -4.388,-4.388" fill="#c42c54"/><path d="M215.30225,159.94128h4.07458c2.40296,0 4.388,1.98505 4.388,4.388v16.92517c0,2.40296 -1.98504,4.388 -4.388,4.388h-4.07458" fill="#394444"/><path d="M215.30225,159.94128h5.22381c2.40296,0 3.23876,1.98505 3.23876,4.388v16.92517c0,2.40296 -1.98504,4.388 -4.388,4.388" fill="#2b3535"/></g></g></svg>