<svg version="1.1" xmlns="http://www.w3.org/2000/svg" xmlns:xlink="http://www.w3.org/1999/xlink" width="331.79186" height="120.72624" viewBox="0,0,331.79186,120.72624"><defs><linearGradient x1="201.64298" y1="244.08386" x2="201.64298" y2="346.74223" gradientUnits="userSpaceOnUse" id="color-1"><stop offset="0" stop-color="#ffa000"/><stop offset="1" stop-color="#ff9f45"/></linearGradient><linearGradient x1="200.13008" y1="312.24901" x2="200.13008" y2="364.8101" gradientUnits="userSpaceOnUse" id="color-2"><stop offset="0" stop-color="#a27d00"/><stop offset="1" stop-color="#baa232"/></linearGradient></defs><g transform="translate(-34.23415,-244.08386)"><g data-paper-data="{&quot;isPaintingLayer&quot;:true}" fill-rule="nonzero" stroke="none" stroke-linecap="butt" stroke-linejoin="miter" stroke-miterlimit="10" stroke-dasharray="" stroke-dashoffset="0" style="mix-blend-mode: normal"><path d="M55.58711,346.74223c0,0 -0.58342,-49.28482 0,-68.16516c0.82127,-26.57728 26.11053,-34.49321 48.45475,-34.49321c35.19106,0 141.16698,0 201.21041,0c25.49292,0 42.70588,21.0562 42.70588,34.49321c0,18.88935 0,68.16516 0,68.16516z" fill="url(#color-1)" stroke-width="NaN"/><path d="M34.23416,347.41621c0,-8.32368 0,-17.45491 0,-22.02693c0,-5.55373 8.78014,-13.14027 18.88914,-13.14027c35.05138,0 237.47513,0 296.65666,0c10.28695,0 16.24605,8.36166 16.24605,17.4523c0,7.24977 0,14.96317 0,19.26884c0,6.3738 -8.89916,15.83995 -23.70496,15.83995c-65.86936,0 -248.64662,0 -284.82534,0c-12.1669,0 -23.26156,-8.20485 -23.26156,-17.39389z" fill="url(#color-2)" stroke-width="0"/></g></g></svg>