<svg version="1.1" xmlns="http://www.w3.org/2000/svg" xmlns:xlink="http://www.w3.org/1999/xlink" width="138.93118" height="138.93118" viewBox="0,0,138.93118,138.93118"><g transform="translate(-170.53441,-110.53441)"><g data-paper-data="{&quot;isPaintingLayer&quot;:true}" fill-rule="nonzero" stroke-linejoin="miter" stroke-miterlimit="10" stroke-dasharray="" stroke-dashoffset="0" style="mix-blend-mode: normal"><path d="M170.53441,180c0,-38.36479 31.1008,-69.46559 69.46559,-69.46559c38.36479,0 69.46559,31.1008 69.46559,69.46559c0,38.36479 -31.1008,69.46559 -69.46559,69.46559c-38.36479,0 -69.46559,-31.1008 -69.46559,-69.46559z" fill="#695b40" stroke="none" stroke-width="0" stroke-linecap="butt"/><path d="M190.18923,180c0,-27.50973 22.30104,-49.81077 49.81077,-49.81077c27.50973,0 49.81077,22.30104 49.81077,49.81077c0,27.50973 -22.30104,49.81077 -49.81077,49.81077c-27.50973,0 -49.81077,-22.30104 -49.81077,-49.81077z" fill="#98742c" stroke="none" stroke-width="0" stroke-linecap="butt"/><path d="M206.3627,191.71618c0,-8.88766 0,-20.53716 0,-25.36967c0,-4.25938 2.2082,-6.73134 2.2082,-6.73134c0,0 3.94144,-2.9372 8.5793,-2.9372c5.20447,0 17.56148,0 26.24447,0c2.96532,0 5.44563,1.14812 7.03465,2.88302c1.60009,1.747 2.29862,4.09114 2.29862,7.07713c0,8.95225 0,21.44977 0,26.53607c0,4.32848 -1.02062,6.80717 -1.02062,6.80717c0,0 -2.50597,3.06185 -7.43784,3.06185c-9.07667,0 -22.91313,0 -28.2857,0c-4.24293,0 -8.01019,-2.6174 -8.01019,-2.6174c0,0 -1.61088,-2.33593 -1.61088,-8.70965z" fill="#69420c" stroke="#69420c" stroke-width="2" stroke-linecap="butt"/><path d="M214.16314,179.8606c0,-8.49533 6.88683,-15.38217 15.38217,-15.38217c8.49533,0 15.38218,6.88683 15.38218,15.38217c0,8.49533 -6.88684,15.38217 -15.38218,15.38217c-8.49533,0 -15.38217,-6.88683 -15.38217,-15.38217z" fill="#ffffff" stroke="none" stroke-width="0" stroke-linecap="butt"/><path d="M220.35973,179.8606c0,-5.07304 4.11251,-9.18558 9.18558,-9.18558c5.07304,0 9.18558,4.11251 9.18558,9.18558c0,5.07304 -4.11251,9.18558 -9.18558,9.18558c-5.07304,0 -9.18558,-4.11251 -9.18558,-9.18558z" fill="#69420c" stroke="#69420c" stroke-width="0" stroke-linecap="butt"/><path d="M231.29303,176.11529c0,-1.52997 1.24029,-2.77025 2.77026,-2.77025c1.52997,0 2.77025,1.24028 2.77025,2.77025c0,1.52997 -1.24028,2.77025 -2.77025,2.77025c-1.52997,0 -2.77026,-1.24028 -2.77026,-2.77025z" fill="#ffffff" stroke="none" stroke-width="NaN" stroke-linecap="butt"/><g fill="#69420c" stroke="#69420c" stroke-width="6.5" stroke-linecap="round"><path d="M262.3118,167.41621l9.33105,13.66079"/><path d="M271.06093,182.03689l-9.33105,13.66079" data-paper-data="{&quot;index&quot;:null}"/></g><g fill="#69420c" stroke="#69420c" stroke-width="5" stroke-linecap="round"><path d="M285.13898,181.39923l-6.69796,-8.00488"/><path d="M284.72126,181.9617l-6.69796,8.00488" data-paper-data="{&quot;index&quot;:null}"/></g></g></g></svg>