<svg version="1.1" xmlns="http://www.w3.org/2000/svg" xmlns:xlink="http://www.w3.org/1999/xlink" width="284.25" height="281.25" viewBox="0,0,284.25,281.25"><defs><linearGradient x1="259" y1="66" x2="259" y2="326" gradientUnits="userSpaceOnUse" id="color-1"><stop offset="0" stop-color="#8900b0"/><stop offset="1" stop-color="#8032ba"/></linearGradient><linearGradient x1="240" y1="50" x2="240" y2="310" gradientUnits="userSpaceOnUse" id="color-2"><stop offset="0" stop-color="#ee00ff"/><stop offset="1" stop-color="#a400ff"/></linearGradient></defs><g transform="translate(-104.75,-44.75)"><g data-paper-data="{&quot;isPaintingLayer&quot;:true}" fill-rule="nonzero" stroke-linecap="butt" stroke-linejoin="miter" stroke-miterlimit="10" stroke-dasharray="" stroke-dashoffset="0" style="mix-blend-mode: normal"><path d="M129,285.8125c0,-54.76326 0,-149.51142 0,-180c0,-18.62286 21.61289,-39.8125 40.5,-39.8125c31.27592,0 129.11504,0 183,0c21.8703,0 36.5,23.04659 36.5,42.8125c0,30.45991 0,120.90918 0,175c0,24.96681 -29.21328,42.1875 -52.5,42.1875c-32.52954,0 -121.79207,0 -172,0c-21.24696,0 -35.5,-16.2851 -35.5,-40.1875z" fill="url(#color-1)" stroke="none" stroke-width="0"/><path d="M110,269.8125c0,-54.76326 0,-149.51143 0,-180c0,-18.62286 21.61289,-39.8125 40.5,-39.8125c31.27591,0 129.11504,0 183,0c21.8703,0 36.5,23.04659 36.5,42.8125c0,30.45992 0,120.90917 0,175c0,24.96681 -29.21329,42.1875 -52.5,42.1875c-32.52954,0 -121.79207,0 -172,0c-21.24697,0 -35.5,-16.28511 -35.5,-40.1875z" fill="url(#color-2)" stroke="#ffffff" stroke-width="10.5"/></g></g></svg>