<svg version="1.1" xmlns="http://www.w3.org/2000/svg" xmlns:xlink="http://www.w3.org/1999/xlink" width="588.78304" height="288.61715" viewBox="0,0,588.78304,288.61715"><defs><linearGradient x1="161.04619" y1="248.99289" x2="161.04619" y2="382.48518" gradientUnits="userSpaceOnUse" id="color-1"><stop offset="0" stop-color="#e0cf09"/><stop offset="1" stop-color="#ff9400"/></linearGradient></defs><g transform="translate(61.11312,-93.86803)"><g data-paper-data="{&quot;isPaintingLayer&quot;:true}" fill-rule="nonzero" stroke-linejoin="miter" stroke-miterlimit="10" stroke-dasharray="" stroke-dashoffset="0" style="mix-blend-mode: normal"><path d="M-13.90098,382.48518v-133.49229h521.30916v133.49229z" fill="url(#color-1)" stroke="none" stroke-width="0" stroke-linecap="butt"/><path d="M516.75567,257.02829l-566.45735,0.52508" fill="none" stroke="#fd9800" stroke-width="12" stroke-linecap="round"/><path d="M520.45249,245.93779l-575.56561,0.52508" fill="none" stroke="#ffad00" stroke-width="12" stroke-linecap="round"/><path d="M70.9253,264.74869v-117.91529h153.7591v117.91529z" fill="#e0cf09" stroke="none" stroke-width="NaN" stroke-linecap="butt"/><path d="M71.93711,155.88957h125.02002" fill="none" stroke="#fd9800" stroke-width="12" stroke-linecap="round"/><path d="M198.09525,146.18025h-126.63824" fill="none" stroke="#ffad00" stroke-width="12" stroke-linecap="round"/><path d="M196.46828,192.37312v-91.85194h104.07584v46.24108c0,0 -33.07968,-0.61486 -53.07277,4.83066c-19.99309,5.44553 -21.74155,24.50583 -21.74155,24.50583z" fill="#e0cf09" stroke="none" stroke-width="NaN" stroke-linecap="butt"/><path d="M301.32365,109.57735h-103.84355" fill="none" stroke="#fd9800" stroke-width="12" stroke-linecap="round"/><path d="M197,99.86803h105.46177" fill="none" stroke="#ffad00" stroke-width="12" stroke-linecap="round"/><path d="M260.65612,240.11877l17.19031,-37.46606l20.27575,37.46606z" fill="#ff0000" stroke="none" stroke-width="NaN" stroke-linecap="butt"/><path d="M366.81357,263.23286v-115.47185h153.7591v115.47185z" data-paper-data="{&quot;index&quot;:null}" fill="#e0cf09" stroke="none" stroke-width="NaN" stroke-linecap="butt"/><path d="M278.78921,236.65378l-0.48226,-27.76897l15.02791,27.76897z" fill="#bf0000" stroke="none" stroke-width="NaN" stroke-linecap="butt"/><path d="M298.23531,240.2319l17.19031,-37.46606l20.27575,37.46606z" fill="#ff0000" stroke="none" stroke-width="NaN" stroke-linecap="butt"/><path d="M316.3684,236.7669l-0.48226,-27.76896l15.02791,27.76896z" fill="#bf0000" stroke="none" stroke-width="NaN" stroke-linecap="butt"/><path d="M367.39713,176.21188c0,0 -1.74846,-19.0603 -21.74155,-24.50583c-19.99309,-5.44552 -53.07277,-4.83066 -53.07277,-4.83066v-46.24108h104.07584v91.85194z" data-paper-data="{&quot;index&quot;:null}" fill="#e0cf09" stroke="none" stroke-width="NaN" stroke-linecap="butt"/><path d="M291.80328,109.69048h103.84355" data-paper-data="{&quot;index&quot;:null}" fill="none" stroke="#fd9800" stroke-width="12" stroke-linecap="round"/><path d="M396.12693,99.98116h-105.46177" data-paper-data="{&quot;index&quot;:null}" fill="none" stroke="#ffad00" stroke-width="12" stroke-linecap="round"/><path d="M521.18982,156.0027h-125.02002" data-paper-data="{&quot;index&quot;:null}" fill="none" stroke="#fd9800" stroke-width="12" stroke-linecap="round"/><path d="M395.03168,146.29338h126.63824" data-paper-data="{&quot;index&quot;:null}" fill="none" stroke="#ffad00" stroke-width="12" stroke-linecap="round"/></g></g></svg>