<svg version="1.1" xmlns="http://www.w3.org/2000/svg" xmlns:xlink="http://www.w3.org/1999/xlink" width="296.75966" height="181.57364" viewBox="0,0,296.75966,181.57364"><defs><radialGradient cx="238.48116" cy="187.90025" r="24.69369" gradientUnits="userSpaceOnUse" id="color-1"><stop offset="0" stop-color="#ffe900"/><stop offset="1" stop-color="#ffe900" stop-opacity="0"/></radialGradient><radialGradient cx="237.87143" cy="187.90025" r="9.29825" gradientUnits="userSpaceOnUse" id="color-2"><stop offset="0" stop-color="#ffd500"/><stop offset="1" stop-color="#f6ff00"/></radialGradient><linearGradient x1="128" y1="82.25458" x2="128" y2="156.74548" gradientUnits="userSpaceOnUse" id="color-3"><stop offset="0" stop-color="#03c400"/><stop offset="1" stop-color="#2aff00"/></linearGradient><linearGradient x1="128" y1="82.25458" x2="128" y2="156.74548" gradientUnits="userSpaceOnUse" id="color-4"><stop offset="0" stop-color="#03c400"/><stop offset="1" stop-color="#2aff00"/></linearGradient><linearGradient x1="127.56786" y1="104.74241" x2="127.56786" y2="134.25766" gradientUnits="userSpaceOnUse" id="color-5"><stop offset="0" stop-color="#03c400"/><stop offset="1" stop-color="#2aff00"/></linearGradient></defs><g transform="translate(-71.12018,-38.94786)"><g data-paper-data="{&quot;isPaintingLayer&quot;:true}" fill-rule="nonzero" stroke-linejoin="miter" stroke-miterlimit="10" stroke-dasharray="" stroke-dashoffset="0" style="mix-blend-mode: normal"><path d="M74.87018,200.1316c0,-5.99564 0,8.41226 0,-38.22019c0,-49.37318 0,-99.35209 0,-102.98814c0,-6.93822 10.29833,-16.22541 20.35238,-16.22541c20.96483,0 202.1831,0 243.42912,0c15.34479,0 25.47816,9.89252 25.47816,21.04968c0,9.82953 0,126.57151 0,132.46434c0,8.2702 -8.68555,20.55962 -22.16147,20.55962c-40.54014,0 -226.75305,0 -247.95187,0c-9.54122,0 -19.14631,-7.31573 -19.14631,-16.63991z" fill="#ff5151" stroke="#b30000" stroke-width="7.5" stroke-linecap="butt"/><g stroke="none" stroke-width="0" stroke-linecap="butt"><path d="M213.30637,187.50012c0,-13.63795 11.05574,-24.69369 24.69369,-24.69369c13.63795,0 24.69369,11.05574 24.69369,24.69369c0,13.63795 -11.05574,24.69369 -24.69369,24.69369c-13.63795,0 -24.69369,-11.05574 -24.69369,-24.69369z" fill="url(#color-1)"/><path d="M228.7018,187.50012c0,-5.13528 4.16296,-9.29825 9.29825,-9.29825c5.13528,0 9.29825,4.16296 9.29825,9.29825c0,5.13528 -4.16296,9.29825 -9.29825,9.29825c-5.13528,0 -9.29825,-4.16296 -9.29825,-9.29825z" fill="url(#color-2)"/></g><text transform="translate(186.98314,87.91025) scale(0.67042,0.67042)" font-size="40" xml:space="preserve" fill="#bf0000" fill-rule="nonzero" stroke="#bf0000" stroke-width="3" stroke-linecap="butt" stroke-linejoin="miter" stroke-miterlimit="10" stroke-dasharray="" stroke-dashoffset="0" font-family="Sans Serif" font-weight="normal" text-anchor="start" style="mix-blend-mode: normal"><tspan x="0" dy="0">Cowboy Hat</tspan></text><text transform="translate(188.98314,111.58546) scale(0.38362,0.38362)" font-size="40" xml:space="preserve" fill="#bf0000" fill-rule="nonzero" stroke="#bf0000" stroke-width="3" stroke-linecap="butt" stroke-linejoin="miter" stroke-miterlimit="10" stroke-dasharray="" stroke-dashoffset="0" font-family="Sans Serif" font-weight="normal" text-anchor="start" style="mix-blend-mode: normal"><tspan x="0" dy="0">Makes your player </tspan><tspan x="0" dy="48px">nicer!</tspan></text><path d="M90.75459,138.54733c0,-14.279 0,-32.99519 0,-40.75914c0,-6.84316 3.54771,-10.81463 3.54771,-10.81463c0,0 6.33235,-4.71893 13.78359,-4.71893c8.36155,0 28.21444,0 42.16461,0c4.76412,0 8.749,1.84458 11.30194,4.63189c2.57073,2.80674 3.69299,6.57286 3.69299,11.37019c0,14.38277 0,34.46141 0,42.63311c0,6.95418 -1.63974,10.93646 -1.63974,10.93646c0,0 -4.02611,4.91919 -11.9497,4.91919c-14.58266,0 -36.81247,0 -45.44408,0c-6.81673,0 -12.86925,-4.20515 -12.86925,-4.20515c0,0 -2.58807,-3.75292 -2.58807,-13.99301z" fill="url(#color-3)" stroke="url(#color-4)" stroke-width="2" stroke-linecap="butt"/><path d="M102.85471,119.50001c-1,-15.36086 9.27362,-20.3727 9.27362,-20.3727c0,0 8.48503,3.99288 16.77286,3.99288c7.93879,0 13.85806,-3.10547 13.85806,-3.10547c0,0 9.52176,5.77539 9.52176,19.48529c0,13.64869 -11.06446,24.71315 -24.71315,24.71315c-13.64869,0 -23.82649,-11.09329 -24.71315,-24.71315z" fill="#ffffff" stroke="none" stroke-width="0" stroke-linecap="butt"/><path d="M112.81022,119.50001c0,-8.1504 6.6072,-14.75764 14.75764,-14.75764c8.1504,0 14.75764,6.6072 14.75764,14.75764c0,8.1504 -6.6072,14.75764 -14.75764,14.75764c-8.1504,0 -14.75764,-6.6072 -14.75764,-14.75764z" fill="url(#color-5)" stroke="none" stroke-width="0" stroke-linecap="butt"/><path d="M130.80789,113.48278c0,-2.45806 1.99265,-4.45071 4.45071,-4.45071c2.45806,0 4.45071,1.99265 4.45071,4.45071c0,2.45806 -1.99265,4.45071 -4.45071,4.45071c-2.45806,0 -4.45071,-1.99265 -4.45071,-4.45071z" fill="#ffffff" stroke="none" stroke-width="NaN" stroke-linecap="butt"/><path d="M97.88452,57.54342c1.29654,-5.66361 10.89565,-4.09427 14.32742,-2.747c3.43176,1.34727 5.18809,5.76186 5.18809,5.76186c0,0 -3.71104,-6.82981 5.17721,-10.44837c8.64798,-3.52074 12.37114,-4.92481 19.60868,5.12519c7.23754,10.05 -0.54738,27.51193 -0.54738,27.51193l-35.81349,2.99081c0,0 -9.23707,-22.5308 -7.94052,-28.19441z" fill="#b96600" stroke="#000000" stroke-width="0" stroke-linecap="round"/><path d="M101.02982,72.91047c0,0 15.34502,-3.53884 27.25231,-4.54263c5.22038,-0.44007 16.63526,0.84293 16.63526,0.84293l-1.69106,9.58966l-37.753,6.95292z" fill="#864a00" stroke="#000000" stroke-width="0" stroke-linecap="round"/><path d="M120.98763,81.20081c16.63051,-2.11436 35.87486,-7.75052 42.34091,-6.80307c6.46606,0.94746 6.22121,11.13402 -7.22543,11.94845c-6.01755,0.36445 -21.97271,-0.48664 -34.5153,0.46664c-12.5426,0.95327 -26.91603,5.10488 -31.8669,4.57859c-4.95087,-0.52629 -8.71632,-5.99941 2.3945,-9.62071c11.11083,-3.62131 12.24171,1.54447 28.87223,-0.56991z" fill="#a05900" stroke="#000000" stroke-width="0" stroke-linecap="round"/><text transform="translate(297.31649,201.91373) scale(0.9618,0.9618)" font-size="40" xml:space="preserve" fill="#bf0000" fill-rule="nonzero" stroke="#bf0000" stroke-width="3" stroke-linecap="butt" stroke-linejoin="miter" stroke-miterlimit="10" stroke-dasharray="" stroke-dashoffset="0" font-family="Sans Serif" font-weight="normal" text-anchor="start" style="mix-blend-mode: normal"><tspan x="0" dy="0">5</tspan></text><path d="M287.94003,172.78873l-29.29408,29.29408" fill="none" stroke="#bf0000" stroke-width="1.5" stroke-linecap="round"/><text transform="translate(188.14983,147.91877) scale(0.35585,0.35585)" font-size="40" xml:space="preserve" fill="#bf0000" fill-rule="nonzero" stroke="#bf0000" stroke-width="4" stroke-linecap="butt" stroke-linejoin="miter" stroke-miterlimit="10" stroke-dasharray="" stroke-dashoffset="0" font-family="Sans Serif" font-weight="normal" text-anchor="start" style="mix-blend-mode: normal"><tspan x="0" dy="0">Special offer:</tspan><tspan x="0" dy="48px">50% Discount!</tspan></text><text transform="translate(108.18442,197.31913) scale(0.67042,0.67042)" font-size="40" xml:space="preserve" fill="#bf0000" fill-rule="nonzero" stroke="#bf0000" stroke-width="3" stroke-linecap="butt" stroke-linejoin="miter" stroke-miterlimit="10" stroke-dasharray="" stroke-dashoffset="0" font-family="Sans Serif" font-weight="normal" text-anchor="start" style="mix-blend-mode: normal"><tspan x="0" dy="0">costs:</tspan></text><text transform="translate(259.0666,196.81415) scale(0.67042,0.67042)" font-size="40" xml:space="preserve" fill="#bf0000" fill-rule="nonzero" stroke="#bf0000" stroke-width="3" stroke-linecap="butt" stroke-linejoin="miter" stroke-miterlimit="10" stroke-dasharray="" stroke-dashoffset="0" font-family="Sans Serif" font-weight="normal" text-anchor="start" style="mix-blend-mode: normal"><tspan x="0" dy="0">10</tspan></text></g></g></svg>