<svg version="1.1" xmlns="http://www.w3.org/2000/svg" xmlns:xlink="http://www.w3.org/1999/xlink" width="933.23069" height="709.55159" viewBox="0,0,933.23069,709.55159"><defs><linearGradient x1="235.69444" y1="379.84027" x2="235.69444" y2="-28.15973" gradientUnits="userSpaceOnUse" id="color-1"><stop offset="0" stop-color="#ff0000"/><stop offset="1" stop-color="#414141"/></linearGradient><linearGradient x1="214.5983" y1="215.18172" x2="214.5983" y2="371.06098" gradientUnits="userSpaceOnUse" id="color-2"><stop offset="0" stop-color="#ff0000"/><stop offset="1" stop-color="#404040"/></linearGradient><linearGradient x1="246.58288" y1="314.08908" x2="246.58288" y2="434.55922" gradientUnits="userSpaceOnUse" id="color-3"><stop offset="0" stop-color="#ff6000"/><stop offset="1" stop-color="#ff0000"/></linearGradient><radialGradient cx="248" cy="170" r="466.61534" gradientUnits="userSpaceOnUse" id="color-4"><stop offset="0" stop-color="#363636" stop-opacity="0"/><stop offset="1" stop-color="#363636"/></radialGradient></defs><g transform="translate(218.61535,184.77581)"><g data-paper-data="{&quot;isPaintingLayer&quot;:true}" fill-rule="nonzero" stroke-linejoin="miter" stroke-miterlimit="10" stroke-dasharray="" stroke-dashoffset="0" style="mix-blend-mode: normal"><path d="M516.69444,-28.15973v408h-562v-408z" data-paper-data="{&quot;index&quot;:null}" fill="url(#color-1)" stroke="#000000" stroke-width="2" stroke-linecap="butt"/><g stroke-linecap="round"><path d="M326.47102,138.3264h37.44972l64.11865,127.66968h-167.38934z" fill="#272d37" stroke="none" stroke-width="0.77771"/><path d="M316.37721,158.6381l39.86949,-2.80765l5.61541,43.80023l-28.07707,65.70051l-73.56208,-1.12308z" fill="#242a33" stroke="none" stroke-width="0.9963"/><path d="M343.58003,187.92187v-41.96787" fill="none" stroke="#ba4923" stroke-width="10.0226"/><path d="M326.47102,138.2696h37.79015l9.41919,19.46248l-57.30954,0.11353z" fill="#ba4923" stroke="none" stroke-width="0.77771"/><path d="M358.9088,208.86262v-52.13052" fill="none" stroke="#ba4923" stroke-width="6.96287"/></g><path d="M-52.68403,390.99791v-126.68531h636.88161v126.68531z" fill="#464f64" stroke="none" stroke-width="0" stroke-linecap="butt"/><path d="M417.24988,119.86571h43.68847l74.79979,148.9377h-195.27381z" fill="#464f64" stroke="none" stroke-width="0.9963" stroke-linecap="round"/><path d="M405.88381,142.44064l46.99812,-3.30965l6.61945,51.63167l-84.92304,230.62176l-105.14188,-17.44747z" fill="#3c4555" stroke="none" stroke-width="0.9963" stroke-linecap="round"/><path d="M433.18359,166.23604v-34.31752" fill="none" stroke="#ff622e" stroke-width="12.91654" stroke-linecap="round"/><path d="M417.24988,119.79953h44.08565l10.98829,22.70463l-66.85646,0.13248z" fill="#ff622e" stroke="none" stroke-width="0.9963" stroke-linecap="round"/><path d="M455.74657,184.25947v-53.21282" fill="none" stroke="#ff622e" stroke-width="8.89388" stroke-linecap="round"/><path d="M38.60208,125.83075h40.74846l69.76652,138.91542h-182.13377z" fill="#272d37" stroke="none" stroke-width="0.77771" stroke-linecap="round"/><path d="M29.03191,145.3937l39.86949,-2.80765l5.61542,43.80023l-28.07707,65.70051l-73.56208,-1.12308z" fill="#242a33" stroke="none" stroke-width="0.9963" stroke-linecap="round"/><path d="M58.64133,136.00989v45.6646" fill="none" stroke="#ba4923" stroke-width="10.0226" stroke-linecap="round"/><path d="M38.60208,125.76898h41.11888l10.24888,21.17683l-62.35764,0.12353z" fill="#ba4923" stroke="none" stroke-width="0.77771" stroke-linecap="round"/><path d="M73.89713,134.57953v56.72243" fill="none" stroke="#ba4923" stroke-width="6.96287" stroke-linecap="round"/><path d="M199.526,87.38799h52.2018l89.37562,177.96038h-233.32577z" fill="#464f64" stroke="none" stroke-width="0.9963" stroke-linecap="round"/><path d="M188.69833,111.57927l52.06291,0.12127l2.63684,33.92688l-90.92291,245.8132l-109.34474,-7.32231z" fill="#3c4555" stroke="none" stroke-width="0.9963" stroke-linecap="round"/><path d="M218.5646,101.78941v93.29687" fill="none" stroke="#ff622e" stroke-width="12.91653" stroke-linecap="round"/><path d="M199.526,87.30893h52.67637l13.12952,27.12897l-79.88442,0.1583z" fill="#ff622e" stroke="none" stroke-width="0.9963" stroke-linecap="round"/><path d="M239.19005,142.4478v-35.94167" fill="none" stroke="#ff622e" stroke-width="8.89387" stroke-linecap="round"/><path d="M-30.34955,371.06098v-155.87928h545.1574v155.87928z" fill="url(#color-2)" stroke="none" stroke-width="0" stroke-linecap="butt"/><path d="M-63.02206,223.44638l582.12675,-0.50694" fill="none" stroke="#4c4c4c" stroke-width="10" stroke-linecap="round"/><path d="M0.08288,434.55922v-120.47015h493v120.47015z" fill="url(#color-3)" stroke="none" stroke-width="0" stroke-linecap="butt"/><path d="M-1.08285,323.89715v-24.76191h493v24.76191z" fill="#ff6e00" stroke="none" stroke-width="0" stroke-linecap="butt"/><path d="M-0.08284,309.61029v-10.87108h493v10.87108z" fill="#ff9300" stroke="none" stroke-width="0" stroke-linecap="butt"/><path d="M522.67377,214.2322l-590.92027,0.50694" fill="none" stroke="#510000" stroke-width="10" stroke-linecap="round"/><text transform="translate(334.5867,285.59003) scale(0.52439,0.52439)" font-size="40" xml:space="preserve" fill="#4c0000" fill-rule="nonzero" stroke="#4c0000" stroke-width="3" stroke-linecap="butt" stroke-linejoin="miter" stroke-miterlimit="10" stroke-dasharray="" stroke-dashoffset="0" font-family="Sans Serif" font-weight="normal" text-anchor="start" style="mix-blend-mode: normal"><tspan x="0" dy="0">Lava Island</tspan></text><text transform="translate(31.66362,286.47461) scale(0.5244,0.5244)" font-size="40" xml:space="preserve" fill="#4c0000" fill-rule="nonzero" stroke="#4c0000" stroke-width="3" stroke-linecap="butt" stroke-linejoin="miter" stroke-miterlimit="10" stroke-dasharray="" stroke-dashoffset="0" font-family="Sans Serif" font-weight="normal" text-anchor="start" style="mix-blend-mode: normal"><tspan x="0" dy="0">Green Hills</tspan></text><text transform="translate(176.56747,285.53235) scale(0.52439,0.52439)" font-size="40" xml:space="preserve" fill="#4c0000" fill-rule="nonzero" stroke="#4c0000" stroke-width="3" stroke-linecap="butt" stroke-linejoin="miter" stroke-miterlimit="10" stroke-dasharray="" stroke-dashoffset="0" font-family="Sans Serif" font-weight="normal" text-anchor="start" style="mix-blend-mode: normal"><tspan x="0" dy="0">Sandy beach</tspan></text><path d="M-218.61534,524.77579v-709.55159h933.23069v709.55159z" fill="url(#color-4)" stroke="none" stroke-width="NaN" stroke-linecap="butt"/></g></g></svg>