<svg version="1.1" xmlns="http://www.w3.org/2000/svg" xmlns:xlink="http://www.w3.org/1999/xlink" width="282.49999" height="180" viewBox="0,0,282.49999,180"><defs><linearGradient x1="309.81734" y1="303.78473" x2="309.81734" y2="342.67774" gradientUnits="userSpaceOnUse" id="color-1"><stop offset="0" stop-color="#979797"/><stop offset="1" stop-color="#b8b8b8"/></linearGradient></defs><g transform="translate(-100.75,-283.65625)"><g data-paper-data="{&quot;isPaintingLayer&quot;:true}" fill-rule="nonzero" stroke-linejoin="miter" stroke-miterlimit="10" stroke-dasharray="" stroke-dashoffset="0" style="mix-blend-mode: normal"><path d="M100.75001,463.65625c0,0 0,-124.58263 0,-154.375c0,-16.65705 12.96795,-25.625 29.625,-25.625c72.94615,0 176.21501,0 225.125,0c16.87536,0 27.74999,10.49964 27.74999,27.375c0,30.27178 0,152.625 0,152.625z" fill="#ffffff" stroke="none" stroke-width="0" stroke-linecap="butt"/><g fill="#b8b8b8" stroke="none" stroke-width="0" stroke-linecap="butt"><path d="M205.66343,323.34943c0,-5.9405 4.81573,-10.75625 10.75625,-10.75625c5.9405,0 10.75625,4.81573 10.75625,10.75625c0,5.9405 -4.81573,10.75625 -10.75625,10.75625c-5.9405,0 -10.75625,-4.81573 -10.75625,-10.75625z"/><path d="M224.08031,319.76401c0,5.48354 -4.55254,-5.51603 -7.44663,-5.51603c-2.89409,0 -6.89504,9.89637 -6.89504,4.41283c0,-5.48354 4.00092,-15.44486 6.89504,-15.44486c2.89409,0 7.44663,11.06452 7.44663,16.54806z"/><path d="M222.90971,329.034c-5.0184,2.21018 3.2132,-6.38965 2.0467,-9.03823c-1.16648,-2.64859 -11.836,-2.32135 -6.8176,-4.53153c5.0184,-2.21018 15.74736,-2.56362 16.91384,0.08499c1.16648,2.64859 -7.12454,11.27462 -12.14296,13.4848z"/><path d="M213.66113,332.79798c-3.31584,-4.36744 6.96141,1.64044 9.26644,-0.1096c2.30504,-1.75004 -0.4926,-12.05142 2.82323,-7.68398c3.31584,4.36744 6.15276,14.72057 3.84772,16.47058c-2.30504,1.75004 -12.62156,-4.30956 -15.93739,-8.67699z"/><path d="M216.05727,335.99876c-5.94052,0 -10.75623,-4.81573 -10.75623,-10.75623c0,-5.94052 4.81573,-10.75623 10.75623,-10.75623c5.94052,0 10.75623,4.81573 10.75623,10.75623c0,5.94052 -4.81573,10.75623 -10.75623,10.75623z" data-paper-data="{&quot;index&quot;:null}"/><path d="M215.84324,303.45425c2.89409,0 6.89504,9.96132 6.89504,15.44486c0,5.48354 -4.00095,-4.4128 -6.89504,-4.4128c-2.89409,0 -7.44663,10.99957 -7.44663,5.51603c0,-5.48354 4.55254,-16.54806 7.44663,-16.54806z" data-paper-data="{&quot;index&quot;:null}"/><path d="M196.89644,317.97546c0.88709,-2.75478 11.59528,-3.50984 16.81487,-1.82907c5.21961,1.6808 -5.42677,2.45576 -6.31386,5.21053c-0.88709,2.75478 8.1876,10.45971 2.96802,8.77894c-5.21961,-1.6808 -14.35611,-9.40563 -13.46902,-12.16043z" data-paper-data="{&quot;index&quot;:null}"/><path d="M203.60049,341.07173c-2.37567,-1.65288 0.02915,-12.1148 3.16089,-16.61608c3.13174,-4.50128 0.76402,5.90735 3.13969,7.5602c2.37567,1.65288 12.39475,-4.77633 9.26301,-0.27505c-3.13174,4.50128 -13.18792,10.98377 -15.56359,9.3309z" data-paper-data="{&quot;index&quot;:null}"/></g><g fill="#b8b8b8" stroke="none" stroke-width="0" stroke-linecap="butt"><path d="M158.51451,318.87781c5.81268,9.14644 5.90269,19.49848 0.20102,23.12197c-5.70166,3.62349 -15.03589,-0.85373 -20.84857,-10.00015c-5.81268,-9.14644 -5.90266,-19.49848 -0.201,-23.12197c5.70166,-3.62349 15.03589,0.85371 20.84857,10.00015z"/><path d="M170.0509,309.00022c5.70166,3.62349 5.61167,13.97553 -0.20102,23.12197c-5.81268,9.14644 -15.14691,13.62363 -20.84857,10.00015c-5.70166,-3.62349 -5.61169,-13.97553 0.201,-23.12197c5.81268,-9.14644 15.14691,-13.62363 20.84857,-10.00015z" data-paper-data="{&quot;index&quot;:null}"/></g><path d="M273.98337,303.78473h71.66794c4.35782,0 7.86613,3.50831 7.86613,7.86594v23.16113c0,4.35782 -3.50831,7.86594 -7.86613,7.86594h-71.66794c-4.35782,0 -7.86612,-3.50813 -7.86612,-7.86594v-23.16113c0,-4.35762 3.50831,-7.86594 7.86612,-7.86594z" fill="url(#color-1)" stroke="#808080" stroke-width="1.5" stroke-linecap="round"/><path d="M274.54312,306.49908h70.18416c4.26759,0 7.70327,3.19194 7.70327,7.15661v21.07255c0,3.96485 -3.43568,7.15662 -7.70327,7.15662h-70.18416c-4.26759,0 -7.70327,-3.19178 -7.70327,-7.15662v-21.07255c0,-3.96467 3.43568,-7.15661 7.70327,-7.15661z" fill="#b8b8b8" stroke="none" stroke-width="0" stroke-linecap="round"/><path d="M270.43821,341.41889c1.05947,0.59211 2.27523,0.92911 3.57496,0.92911h71.64681c1.29973,0 2.51643,-0.337 3.57515,-0.92911h1.57323c-1.41526,1.14259 -3.20057,1.82811 -5.14838,1.82811h-71.64681c-1.94762,0 -3.73312,-0.68552 -5.14819,-1.82811z" fill="#b8b8b8" stroke="none" stroke-width="4.7" stroke-linecap="butt"/><path d="M274.49464,331.28193c0,-4.11631 3.33692,-7.45323 7.45323,-7.45323c4.11631,0 7.45322,3.33692 7.45322,7.45323c0,4.11631 -3.33692,7.45322 -7.45322,7.45322c-4.11631,0 -7.45323,-3.33692 -7.45323,-7.45322z" fill="#e9e9e9" stroke="none" stroke-width="0" stroke-linecap="butt"/><path d="M283.91405,331.92209c0,-3.56073 2.88655,-6.44727 6.44727,-6.44727c3.56073,0 6.44726,2.88655 6.44726,6.44727c0,3.56073 -2.88654,6.44726 -6.44726,6.44726c-3.56073,0 -6.44727,-2.88654 -6.44727,-6.44726z" fill="#b8b8b8" stroke="none" stroke-width="0" stroke-linecap="butt"/><path d="M284.73711,332.19644c0,-3.3587 2.72276,-6.08146 6.08146,-6.08146c3.3587,0 6.08146,2.72276 6.08146,6.08146c0,3.3587 -2.72276,6.08147 -6.08146,6.08147c-3.3587,0 -6.08146,-2.72277 -6.08146,-6.08147z" fill="#e9e9e9" stroke="none" stroke-width="0" stroke-linecap="butt"/><path d="M271.84258,339.19241v-9.32796h25.60616v9.32796z" fill="#b8b8b8" stroke="none" stroke-width="0" stroke-linecap="butt"/><path d="M278.79282,320.71939c0,-1.86875 1.51492,-3.38368 3.38367,-3.38368c1.86875,0 3.38367,1.51493 3.38367,3.38368c0,1.86875 -1.51492,3.38367 -3.38367,3.38367c-1.86875,0 -3.38367,-1.51492 -3.38367,-3.38367z" fill="#e9e9e9" stroke="none" stroke-width="0" stroke-linecap="butt"/><path d="M287.48063,322.86848c0,-1.79299 1.45351,-3.2465 3.24649,-3.2465c1.79299,0 3.24649,1.45351 3.24649,3.2465c0,1.79299 -1.45351,3.24649 -3.24649,3.24649c-1.79299,0 -3.24649,-1.45351 -3.24649,-3.24649z" fill="#e9e9e9" stroke="none" stroke-width="0" stroke-linecap="butt"/><text transform="translate(298.02416,330.85807) scale(0.46165,0.46165)" font-size="40" xml:space="preserve" fill="#e9e9e9" fill-rule="nonzero" stroke="none" stroke-width="1" stroke-linecap="butt" stroke-linejoin="miter" stroke-miterlimit="10" stroke-dasharray="" stroke-dashoffset="0" font-family="&quot;ヒラギノ角ゴ Pro W3&quot;, &quot;Hiragino Kaku Gothic Pro&quot;, Osaka, &quot;メイリオ&quot;, Meiryo, &quot;ＭＳ Ｐゴシック&quot;, &quot;MS PGothic&quot;" font-weight="normal" text-anchor="start" style="mix-blend-mode: normal"><tspan x="0" dy="0">Follow</tspan></text></g></g></svg>