<svg version="1.1" xmlns="http://www.w3.org/2000/svg" xmlns:xlink="http://www.w3.org/1999/xlink" width="70.22222" height="70.22222" viewBox="0,0,70.22222,70.22222"><g transform="translate(-204.88889,-144.88889)"><g data-paper-data="{&quot;isPaintingLayer&quot;:true}" fill-rule="nonzero" stroke="none" stroke-width="0" stroke-linecap="butt" stroke-linejoin="miter" stroke-miterlimit="10" stroke-dasharray="" stroke-dashoffset="0" style="mix-blend-mode: normal"><path d="M204.88889,180c0,-19.39133 15.71978,-35.11111 35.11111,-35.11111c19.39133,0 35.11111,15.71978 35.11111,35.11111c0,19.39133 -15.71978,35.11111 -35.11111,35.11111c-19.39133,0 -35.11111,-15.71978 -35.11111,-35.11111z" fill="#2c5579"/><g fill="#4c93d2"><path d="M261.98411,178.89077l-4.11931,4.11931l-21.70891,-20.24937l4.11931,-4.11931z" data-paper-data="{&quot;index&quot;:null}"/><path d="M257.44779,175.00911l4.11931,4.11931l-20.24937,21.70891l-4.11931,-4.11931z" data-paper-data="{&quot;index&quot;:null}"/><path d="M243.8441,179.41204l-4.11931,4.11931l-21.70891,-20.24937l4.11931,-4.11931z" data-paper-data="{&quot;index&quot;:null}"/><path d="M239.30779,175.53038l4.11931,4.11931l-20.24937,21.70891l-4.11931,-4.11931z" data-paper-data="{&quot;index&quot;:null}"/></g></g></g></svg>