<svg version="1.1" xmlns="http://www.w3.org/2000/svg" xmlns:xlink="http://www.w3.org/1999/xlink" width="77.31554" height="58.43217" viewBox="0,0,77.31554,58.43217"><defs><linearGradient x1="212.01004" y1="155.00271" x2="265.38195" y2="155.00271" gradientUnits="userSpaceOnUse" id="color-1"><stop offset="0" stop-color="#4b4b4b"/><stop offset="1" stop-color="#000000"/></linearGradient><radialGradient cx="267.40543" cy="162.24851" r="21.22683" gradientUnits="userSpaceOnUse" id="color-2"><stop offset="0" stop-color="#ffde9b"/><stop offset="1" stop-color="#ffde9b" stop-opacity="0"/></radialGradient></defs><g transform="translate(-211.31673,-125.04318)"><g data-paper-data="{&quot;isPaintingLayer&quot;:true}" fill-rule="nonzero" stroke="none" stroke-width="0" stroke-linecap="butt" stroke-linejoin="miter" stroke-miterlimit="10" stroke-dasharray="" stroke-dashoffset="0" style="mix-blend-mode: normal"><path d="M224.00111,159.54045v-34.49727h31.95536v34.49727z" fill="#272727"/><path d="M224.24321,159.54045v-34.49727h31.95536l-7.50467,19.73001l-12.813,14.13586z" fill="#272727"/><path d="M223.94766,153.94974v-6.29424h31.71327v6.29424z" fill="#de0000"/><path d="M218.91731,162.68756c-8.72915,-1.70248 -10.04968,-13.48824 -3.3892,-14.52517c6.3011,-0.98099 7.41036,0.49063 11.78239,2.97099c5.59933,3.17665 6.04167,7.5152 10.44854,8.29296c11.6674,2.05914 20.33516,2.6593 24.49169,-1.70156c4.15653,-4.36086 4.80027,-10.36597 -1.93669,-10.4097c-4.43102,-0.02878 -7.36789,2.52909 -13.55498,6.79093c-6.07324,4.18342 -15.48792,10.32862 -27.84174,8.58155z" fill="url(#color-1)"/><path d="M223.94766,153.94974v-6.29424h13.31474v6.29424z" fill="#de0000"/><path d="M246.17861,162.24851c0,-11.72326 9.50357,-21.22683 21.22683,-21.22683c11.72326,0 21.22683,9.50357 21.22683,21.22683c0,11.72326 -9.50357,21.22683 -21.22683,21.22683c-11.72326,0 -21.22683,-9.50357 -21.22683,-21.22683z" fill="url(#color-2)"/><path d="M277.71158,162.38271c0,2.41398 -4.36471,2.00928 -4.36471,2.00928c0,0 0.14659,7.438 -2.1625,7.438c-2.38227,0 -2.79383,-7.53908 -2.79383,-7.53908c0,0 -4.42046,0.38685 -4.42046,-1.90821c0,-2.57694 4.53149,-2.88878 4.53149,-2.88878c0,0 0.13046,-8.27619 2.33926,-8.27619c2.55366,0 2.70264,8.37223 2.70264,8.37223c0,0 4.16812,0.77621 4.16812,2.79275z" fill="#f4ff00"/><path d="M266.37482,153.23602c0,1.32769 -2.4006,1.1051 -2.4006,1.1051c0,0 0.08063,4.09091 -1.18937,4.09091c-1.31024,0 -1.5366,-4.14649 -1.5366,-4.14649c0,0 -2.43126,0.21277 -2.43126,-1.04952c0,-1.41732 2.49232,-1.58884 2.49232,-1.58884c0,0 0.07175,-4.5519 1.28659,-4.5519c1.40451,0 1.48645,4.60472 1.48645,4.60472c0,0 2.29246,0.42691 2.29246,1.53602z" fill="#f4ff00"/><path d="M268.95136,174.8789c0,1.32769 -2.4006,1.1051 -2.4006,1.1051c0,0 0.08063,4.09091 -1.18937,4.09091c-1.31025,0 -1.5366,-4.14649 -1.5366,-4.14649c0,0 -2.43126,0.21276 -2.43126,-1.04952c0,-1.41732 2.49232,-1.58883 2.49232,-1.58883c0,0 0.07175,-4.55191 1.28659,-4.55191c1.40452,0 1.48644,4.60473 1.48644,4.60473c0,0 2.29247,0.42691 2.29247,1.53602z" fill="#f4ff00"/></g></g></svg>