<svg version="1.1" xmlns="http://www.w3.org/2000/svg" xmlns:xlink="http://www.w3.org/1999/xlink" width="81.25" height="110.25" viewBox="0,0,81.25,110.25"><defs><linearGradient x1="237.78305" y1="88.35554" x2="237.78305" y2="126.89086" gradientUnits="userSpaceOnUse" id="color-1"><stop offset="0" stop-color="#b30000"/><stop offset="1" stop-color="#ff4444"/></linearGradient><linearGradient x1="237.78305" y1="88.35554" x2="237.78305" y2="126.89086" gradientUnits="userSpaceOnUse" id="color-2"><stop offset="0" stop-color="#b30000"/><stop offset="1" stop-color="#ff4444"/></linearGradient><linearGradient x1="237.78305" y1="105.72681" x2="237.78305" y2="120.99554" gradientUnits="userSpaceOnUse" id="color-3"><stop offset="0" stop-color="#b30000"/><stop offset="1" stop-color="#ff4444"/></linearGradient></defs><g transform="translate(-195.73589,-69.28386)"><g data-paper-data="{&quot;isPaintingLayer&quot;:true}" fill-rule="nonzero" stroke-linecap="butt" stroke-linejoin="miter" stroke-miterlimit="10" stroke-dasharray="" stroke-dashoffset="0" style="mix-blend-mode: normal"><path d="M197.4859,109.90886c0,-21.47007 17.40493,-38.875 38.875,-38.875c21.47007,0 38.875,17.40493 38.875,38.875c0,21.47007 -17.40493,38.875 -38.875,38.875c-21.47007,0 -38.875,-17.40493 -38.875,-38.875z" fill="#ffffff" stroke="#dcf6ff" stroke-width="3.5"/><path d="M215.2359,134.53386h45l-20,45z" fill="#ffffff" stroke="none" stroke-width="NaN"/><path d="M218.5154,117.47666c0,-7.38675 0,-17.06894 0,-21.08536c0,-3.54008 1.83529,-5.59458 1.83529,-5.59458c0,0 3.27583,-2.44118 7.13047,-2.44118c4.32556,0 14.59578,0 21.81243,0c2.46456,0 4.526,0.95423 5.84667,2.39615c1.32988,1.45197 1.91044,3.40025 1.91044,5.88198c0,7.44044 0,17.82744 0,22.0548c0,3.59751 -0.84827,5.65761 -0.84827,5.65761c0,0 -2.08277,2.54478 -6.18177,2.54478c-7.54384,0 -19.04369,0 -23.50896,0c-3.5264,0 -6.65747,-2.17539 -6.65747,-2.17539c0,0 -1.33885,-1.94145 -1.33885,-7.23881z" fill="url(#color-1)" stroke="url(#color-2)" stroke-width="2"/><path d="M224.99854,107.62319c0,-7.06069 5.72382,-12.78451 12.78451,-12.78451c7.06069,0 12.78451,5.72382 12.78451,12.78451c0,7.06069 -5.72382,12.78451 -12.78451,12.78451c-7.06069,0 -12.78451,-5.72382 -12.78451,-12.78451z" fill="#ffffff" stroke="none" stroke-width="0"/><path d="M230.14869,113.36117c0,-4.21633 3.41801,-7.63436 7.63436,-7.63436c4.21633,0 7.63436,3.41801 7.63436,7.63436c0,4.21633 -3.41801,7.63436 -7.63436,7.63436c-4.21633,0 -7.63436,-3.41801 -7.63436,-7.63436z" fill="url(#color-3)" stroke="none" stroke-width="0"/><path d="M239.23563,106.59691c0,-1.2716 1.03083,-2.30242 2.30242,-2.30242c1.2716,0 2.30242,1.03083 2.30242,2.30242c0,1.2716 -1.03083,2.30242 -2.30242,2.30242c-1.2716,0 -2.30242,-1.03083 -2.30242,-2.30242z" fill="#ffffff" stroke="none" stroke-width="NaN"/></g></g></svg>