<svg version="1.1" xmlns="http://www.w3.org/2000/svg" xmlns:xlink="http://www.w3.org/1999/xlink" width="331.79186" height="120.72624" viewBox="0,0,331.79186,120.72624"><defs><linearGradient x1="241.51291" y1="119.63688" x2="241.51291" y2="222.29525" gradientUnits="userSpaceOnUse" id="color-1"><stop offset="0" stop-color="#009dff"/><stop offset="1" stop-color="#0085ff"/></linearGradient><linearGradient x1="239.99999" y1="187.80203" x2="239.99999" y2="240.36312" gradientUnits="userSpaceOnUse" id="color-2"><stop offset="0" stop-color="#007da3"/><stop offset="1" stop-color="#3253ba"/></linearGradient></defs><g transform="translate(-74.10405,-119.63688)"><g data-paper-data="{&quot;isPaintingLayer&quot;:true}" fill-rule="nonzero" stroke="none" stroke-linecap="butt" stroke-linejoin="miter" stroke-miterlimit="10" stroke-dasharray="" stroke-dashoffset="0" style="mix-blend-mode: normal"><path d="M95.45703,222.29525c0,0 -0.58342,-49.28482 0,-68.16516c0.82127,-26.57728 26.11053,-34.49321 48.45475,-34.49321c35.19106,0 141.16698,0 201.21041,0c25.49292,0 42.70588,21.0562 42.70588,34.49321c0,18.88935 0,68.16516 0,68.16516z" fill="url(#color-1)" stroke-width="NaN"/><path d="M74.10407,222.96923c0,-8.32368 0,-17.45491 0,-22.02693c0,-5.55373 8.78014,-13.14027 18.88914,-13.14027c35.05138,0 237.47513,0 296.65666,0c10.28695,0 16.24605,8.36166 16.24605,17.4523c0,7.24977 0,14.96317 0,19.26884c0,6.3738 -8.89916,15.83995 -23.70496,15.83995c-65.86936,0 -248.64662,0 -284.82534,0c-12.1669,0 -23.26156,-8.20485 -23.26156,-17.39389z" fill="url(#color-2)" stroke-width="0"/></g></g></svg>