<svg version="1.1" xmlns="http://www.w3.org/2000/svg" xmlns:xlink="http://www.w3.org/1999/xlink" width="110.9021" height="35.9021" viewBox="0,0,110.9021,35.9021"><defs><radialGradient cx="179.90299" cy="234.63364" r="17.95105" gradientUnits="userSpaceOnUse" id="color-1"><stop offset="0" stop-color="#ffffff"/><stop offset="1" stop-color="#ffffff" stop-opacity="0"/></radialGradient><radialGradient cx="254.90299" cy="234.63364" r="17.95105" gradientUnits="userSpaceOnUse" id="color-2"><stop offset="0" stop-color="#ffffff"/><stop offset="1" stop-color="#ffffff" stop-opacity="0"/></radialGradient></defs><g transform="translate(-161.95194,-216.68259)"><g data-paper-data="{&quot;isPaintingLayer&quot;:true}" fill-rule="nonzero" stroke="none" stroke-linecap="butt" stroke-linejoin="miter" stroke-miterlimit="10" stroke-dasharray="" stroke-dashoffset="0" style="mix-blend-mode: normal"><path d="M171.31771,234.63364c0,-4.74152 3.84376,-8.58529 8.58529,-8.58529c4.74152,0 8.58529,3.84376 8.58529,8.58529c0,4.74152 -3.84376,8.58529 -8.58529,8.58529c-4.74152,0 -8.58529,-3.84376 -8.58529,-8.58529z" fill="#ffffff" stroke-width="NaN"/><path d="M161.95194,234.63364c0,-9.91409 8.03696,-17.95105 17.95105,-17.95105c9.91409,0 17.95105,8.03696 17.95105,17.95105c0,9.91409 -8.03696,17.95105 -17.95105,17.95105c-9.91409,0 -17.95105,-8.03696 -17.95105,-17.95105z" fill="url(#color-1)" stroke-width="0"/><path d="M246.31771,234.63364c0,-4.74152 3.84376,-8.58529 8.58529,-8.58529c4.74152,0 8.58529,3.84376 8.58529,8.58529c0,4.74152 -3.84376,8.58529 -8.58529,8.58529c-4.74152,0 -8.58529,-3.84376 -8.58529,-8.58529z" fill="#ffffff" stroke-width="NaN"/><path d="M236.95194,234.63364c0,-9.91409 8.03696,-17.95105 17.95105,-17.95105c9.91409,0 17.95105,8.03696 17.95105,17.95105c0,9.91409 -8.03696,17.95105 -17.95105,17.95105c-9.91409,0 -17.95105,-8.03696 -17.95105,-17.95105z" fill="url(#color-2)" stroke-width="0"/></g></g></svg>