<svg version="1.1" xmlns="http://www.w3.org/2000/svg" xmlns:xlink="http://www.w3.org/1999/xlink" width="49.38738" height="49.38738" viewBox="0,0,49.38738,49.38738"><defs><radialGradient cx="240.48111" cy="180.40013" r="24.69369" gradientUnits="userSpaceOnUse" id="color-1"><stop offset="0" stop-color="#ffe900"/><stop offset="1" stop-color="#ffe900" stop-opacity="0"/></radialGradient><radialGradient cx="239.87139" cy="180.40013" r="9.29825" gradientUnits="userSpaceOnUse" id="color-2"><stop offset="0" stop-color="#ffd500"/><stop offset="1" stop-color="#f6ff00"/></radialGradient></defs><g transform="translate(-215.30631,-155.30631)"><g data-paper-data="{&quot;isPaintingLayer&quot;:true}" fill-rule="nonzero" stroke="none" stroke-width="0" stroke-linecap="butt" stroke-linejoin="miter" stroke-miterlimit="10" stroke-dasharray="" stroke-dashoffset="0" style="mix-blend-mode: normal"><path d="M215.30631,180c0,-13.63795 11.05574,-24.69369 24.69369,-24.69369c13.63795,0 24.69369,11.05574 24.69369,24.69369c0,13.63795 -11.05574,24.69369 -24.69369,24.69369c-13.63795,0 -24.69369,-11.05574 -24.69369,-24.69369z" fill="url(#color-1)"/><path d="M230.70175,180c0,-5.13528 4.16296,-9.29825 9.29825,-9.29825c5.13528,0 9.29825,4.16296 9.29825,9.29825c0,5.13528 -4.16296,9.29825 -9.29825,9.29825c-5.13528,0 -9.29825,-4.16296 -9.29825,-9.29825z" fill="url(#color-2)"/></g></g></svg>