<svg version="1.1" xmlns="http://www.w3.org/2000/svg" xmlns:xlink="http://www.w3.org/1999/xlink" width="147.71314" height="138.30651" viewBox="0,0,147.71314,138.30651"><defs><linearGradient x1="189.79063" y1="200.93987" x2="291.53103" y2="200.93987" gradientUnits="userSpaceOnUse" id="color-1"><stop offset="0" stop-color="#4b4b4b"/><stop offset="1" stop-color="#000000"/></linearGradient></defs><g transform="translate(-166.14343,-110.84679)"><g data-paper-data="{&quot;isPaintingLayer&quot;:true}" fill-rule="nonzero" stroke="none" stroke-width="0" stroke-linecap="butt" stroke-linejoin="miter" stroke-miterlimit="10" stroke-dasharray="" stroke-dashoffset="0" style="mix-blend-mode: normal"><path d="M166.14343,127.0722c0,-6.93822 10.29833,-16.22541 20.35238,-16.22541c20.96483,0 60.63658,0 101.8826,0c15.34479,0 25.47816,9.89252 25.47816,21.04968c0,9.82953 0,90.80438 0,96.69721c0,8.2702 -8.68555,20.55962 -22.16147,20.55962c-40.54014,0 -85.20653,0 -106.40535,0c-9.54122,0 -19.14631,-7.31573 -19.14631,-16.63991c0,0 -0.00001,-101.80514 -0.00001,-105.44119z" fill="#ff5151"/><path d="M212.64866,209.58995v-65.76056h60.91503v65.76056z" fill="#272727"/><path d="M213.11016,209.58995v-65.76056h60.91503l-14.3058,37.6104l-24.42484,26.94654z" fill="#272727"/><path d="M212.54677,198.93264v-11.99842h60.45355v11.99842z" fill="#de0000"/><path d="M202.95764,215.58916c-16.63998,-3.24536 -19.15723,-25.71201 -6.46067,-27.68866c12.01149,-1.87001 14.12604,0.93526 22.46022,5.66346c10.67374,6.05551 11.51696,14.32589 19.91757,15.80848c22.24104,3.92525 38.76397,5.06931 46.68737,-3.24361c7.9234,-8.3129 9.15053,-19.76016 -3.69182,-19.84354c-8.44666,-0.05486 -14.04506,4.82109 -25.83924,12.94524c-11.57714,7.97466 -29.5239,19.68898 -53.07342,16.35861z" fill="url(#color-1)"/><path d="M212.54677,198.93264v-11.99842h25.38127v11.99842z" fill="#de0000"/></g></g></svg>