<svg version="1.1" xmlns="http://www.w3.org/2000/svg" xmlns:xlink="http://www.w3.org/1999/xlink" width="587.56561" height="284.1967" viewBox="0,0,587.56561,284.1967"><defs><linearGradient x1="56.35972" y1="248.99289" x2="56.35972" y2="382.48518" gradientUnits="userSpaceOnUse" id="color-1"><stop offset="0" stop-color="#e0cf09"/><stop offset="1" stop-color="#ff9400"/></linearGradient><linearGradient x1="385.93682" y1="252.36393" x2="385.93682" y2="385.85622" gradientUnits="userSpaceOnUse" id="color-2"><stop offset="0" stop-color="#e0cf09"/><stop offset="1" stop-color="#ff9400"/></linearGradient></defs><g transform="translate(61.11312,-136.10785)"><g data-paper-data="{&quot;isPaintingLayer&quot;:true}" fill-rule="nonzero" stroke-linejoin="miter" stroke-miterlimit="10" stroke-dasharray="" stroke-dashoffset="0" style="mix-blend-mode: normal"><path d="M129.58973,406.20376l7.08248,-142.35786c0,0 84.641,4.211 129.68312,6.4519c48.98891,2.43726 153.40566,7.63212 153.40566,7.63212l-7.08248,142.35786z" fill="#0085fd" stroke="none" stroke-width="0" stroke-linecap="butt"/><path d="M143.15188,420.30455l-5.30844,-142.43505l283.24227,-10.5562l5.30844,142.43505z" fill="#2b9bfc" stroke="none" stroke-width="0" stroke-linecap="butt"/><path d="M-13.90098,382.48518v-133.49229h209.36346v133.49229z" fill="url(#color-1)" stroke="none" stroke-width="0" stroke-linecap="butt"/><path d="M-49.70168,257.55337l251.49575,-0.23313" fill="none" stroke="#fd9800" stroke-width="12" stroke-linecap="round"/><path d="M200.16642,246.22998l-255.27954,0.23289" fill="none" stroke="#ffad00" stroke-width="12" stroke-linecap="round"/><path d="M334.80943,385.85622v-133.49229h152.34989v133.49229z" fill="url(#color-2)" stroke="none" stroke-width="0" stroke-linecap="butt"/><path d="M516.75567,257.02829l-182.58426,0.27495" fill="none" stroke="#fd9800" stroke-width="12" stroke-linecap="round"/><path d="M520.45249,245.93779l-186.27573,0.27396" fill="none" stroke="#ffad00" stroke-width="12" stroke-linecap="round"/><path d="M94.54521,194.70344v-51.94244h277.56v51.94244z" fill="#e0cf09" stroke="none" stroke-width="NaN" stroke-linecap="butt"/><path d="M372.07026,151.81717h-277.32771" fill="none" stroke="#fd9800" stroke-width="12" stroke-linecap="round"/><path d="M373.20838,142.10785h-278.94593" fill="none" stroke="#ffad00" stroke-width="12" stroke-linecap="round"/></g></g></svg>