<svg version="1.1" xmlns="http://www.w3.org/2000/svg" xmlns:xlink="http://www.w3.org/1999/xlink" width="316" height="316" viewBox="0,0,316,316"><defs><radialGradient cx="240" cy="180" r="158" gradientUnits="userSpaceOnUse" id="color-1"><stop offset="0" stop-color="#d3d3d3"/><stop offset="1" stop-color="#d3d3d3" stop-opacity="0"/></radialGradient><linearGradient x1="262.3809" y1="115.60144" x2="262.3809" y2="226.39857" gradientUnits="userSpaceOnUse" id="color-2"><stop offset="0" stop-color="#0081fd"/><stop offset="1" stop-color="#3332b8"/></linearGradient><linearGradient x1="238.22579" y1="121.87076" x2="181.572" y2="222.78534" gradientUnits="userSpaceOnUse" id="color-3"><stop offset="0" stop-color="#0084ff"/><stop offset="1" stop-color="#0300b0"/></linearGradient></defs><g transform="translate(-82,-22)"><g data-paper-data="{&quot;isPaintingLayer&quot;:true}" fill-rule="nonzero" stroke="none" stroke-linecap="butt" stroke-linejoin="miter" stroke-miterlimit="10" stroke-dasharray="" stroke-dashoffset="0" style="mix-blend-mode: normal"><path d="M82,180c0,-87.26099 70.73901,-158 158,-158c87.26099,0 158,70.73901 158,158c0,87.26099 -70.73901,158 -158,158c-87.26099,0 -158,-70.73901 -158,-158z" fill="url(#color-1)" stroke-width="0"/><path d="M143.8445,180c0,-53.10521 43.05028,-96.1555 96.1555,-96.1555c53.10521,0 96.1555,43.05028 96.1555,96.1555c0,53.10521 -43.05028,96.1555 -96.1555,96.1555c-53.10521,0 -96.1555,-43.05028 -96.1555,-96.1555z" fill="#ffffff" stroke-width="3"/><path d="M225.01002,186.5953l11,-15.5l13.5,0.5l-3,16z" fill="#1c55d7" stroke-width="0"/><path d="M258.08805,224.88079c0,0 -13.38768,-4.34733 -14.68173,-14.15486c-2.00641,-15.20646 11.55296,-54.45711 11.60504,-75.39171c0.01459,-5.86464 -11.34211,-19.73278 -11.34211,-19.73278h28.45817c0,0 10.17856,11.2862 10.01328,18.95293c-0.16528,7.66673 -12.79831,66.537 -12.09067,77.41242c0.45137,6.93673 9.28678,14.43177 9.28678,14.43177z" fill="url(#color-2)" stroke-width="NaN"/><path d="M165.8573,222.19606c0.69125,-3.47299 65.58262,-90.59049 70.94109,-97.51113c1.10372,-1.42548 2.28861,-2.43909 3.82399,-1.88252c1.53538,0.55657 2.086,1.32936 2.90209,2.64382c2.16121,3.481 4.15211,6.97949 4.89004,11.15839c0.71788,4.06531 0.21192,8.68273 0.21192,8.68273l-54.43047,76.43695z" fill="url(#color-3)" stroke-width="0"/></g></g></svg>