<svg version="1.1" xmlns="http://www.w3.org/2000/svg" xmlns:xlink="http://www.w3.org/1999/xlink" width="293.49973" height="133.97591" viewBox="0,0,293.49973,133.97591"><g transform="translate(-156.1836,-104.92862)"><g data-paper-data="{&quot;isPaintingLayer&quot;:true}" fill-rule="nonzero" stroke="none" stroke-width="0" stroke-linecap="butt" stroke-linejoin="miter" stroke-miterlimit="10" stroke-dasharray="" stroke-dashoffset="0" style="mix-blend-mode: normal"><g><path d="M204.64714,227.68584c0,-6.19591 5.02278,-11.21869 11.21869,-11.21869c6.19591,0 11.21869,5.02278 11.21869,11.21869c0,6.1959 -5.02278,11.21869 -11.21869,11.21869c-6.19591,0 -11.21869,-5.02278 -11.21869,-11.21869z" fill="#f10000"/><path d="M207.11211,228.80571c0,-5.37484 4.35716,-9.73199 9.73199,-9.73199c5.37484,0 9.73199,4.35716 9.73199,9.73199c0,5.37484 -4.35716,9.73199 -9.73199,9.73199c-5.37484,0 -9.73199,-4.35716 -9.73199,-9.73199z" fill="#cb0000"/></g><g><path d="M156.1836,116.14731c0,-6.19591 5.02278,-11.21869 11.21869,-11.21869c6.19591,0 11.21869,5.02278 11.21869,11.21869c0,6.1959 -5.02278,11.21869 -11.21869,11.21869c-6.19591,0 -11.21869,-5.02278 -11.21869,-11.21869z" fill="#f10000"/><path d="M158.64857,117.26718c0,-5.37484 4.35716,-9.73199 9.73199,-9.73199c5.37484,0 9.73199,4.35716 9.73199,9.73199c0,5.37484 -4.35716,9.73199 -9.73199,9.73199c-5.37484,0 -9.73199,-4.35716 -9.73199,-9.73199z" fill="#cb0000"/></g><g><path d="M284.15355,219.48798c0,-6.19591 5.02278,-11.21869 11.21869,-11.21869c6.19591,0 11.21869,5.02278 11.21869,11.21869c0,6.1959 -5.02278,11.21869 -11.21869,11.21869c-6.19591,0 -11.21869,-5.02278 -11.21869,-11.21869z" fill="#f10000"/><path d="M286.61852,220.60785c0,-5.37484 4.35716,-9.73199 9.73199,-9.73199c5.37484,0 9.73199,4.35716 9.73199,9.73199c0,5.37484 -4.35716,9.73199 -9.73199,9.73199c-5.37484,0 -9.73199,-4.35716 -9.73199,-9.73199z" fill="#cb0000"/></g><g><path d="M427.24595,218.37752c0,-6.1959 5.02278,-11.21869 11.21869,-11.21869c6.19591,0 11.21869,5.02278 11.21869,11.21869c0,6.1959 -5.02278,11.21869 -11.21869,11.21869c-6.19591,0 -11.21869,-5.02278 -11.21869,-11.21869z" fill="#f10000"/><path d="M429.71093,219.49739c0,-5.37484 4.35716,-9.73199 9.73199,-9.73199c5.37484,0 9.73199,4.35716 9.73199,9.73199c0,5.37484 -4.35716,9.73199 -9.73199,9.73199c-5.37484,0 -9.73199,-4.35716 -9.73199,-9.73199z" fill="#cb0000"/></g><path d="M286.24121,210.95597c0,0 -2.03026,-2.70615 -2.03026,-4.01856c0,-1.17735 2.03026,-3.49479 2.03026,-3.49479h158.36029c0,0 2.63934,2.60641 2.63934,3.78377c0,1.31241 -2.63934,3.72959 -2.63934,3.72959z" fill="#1767ff"/><path d="M289.81001,210.81149c0,0 -1.94459,-1.78249 -1.94459,-2.64695c0,-0.7755 1.94459,-2.30196 1.94459,-2.30196h151.67787c0,0 2.52797,1.71681 2.52797,2.4923c0,0.86446 -2.52797,2.45662 -2.52797,2.45662z" fill="#114fc1"/></g></g></svg>