<svg version="1.1" xmlns="http://www.w3.org/2000/svg" xmlns:xlink="http://www.w3.org/1999/xlink" width="428.49149" height="33.8138" viewBox="0,0,428.49149,33.8138"><defs><linearGradient x1="443.97818" y1="23.28993" x2="456.99149" y2="23.28993" gradientUnits="userSpaceOnUse" id="color-1"><stop offset="0" stop-color="#43c900"/><stop offset="1" stop-color="#4be200"/></linearGradient></defs><g transform="translate(-28.5,-17.9987)"><g data-paper-data="{&quot;isPaintingLayer&quot;:true}" fill-rule="nonzero" stroke-linejoin="miter" stroke-miterlimit="10" stroke-dasharray="" stroke-dashoffset="0" style="mix-blend-mode: normal"><path d="M38.5,41.8125h403" fill="none" stroke="#ababab" stroke-width="20" stroke-linecap="round"/><path d="M443.3378,40.2995v-20.8008" fill="#53ff00" stroke="#42c700" stroke-width="3" stroke-linecap="round"/><path d="M443.97818,28.41328v-10.2467c0,0 2.49344,1.92093 3.75626,1.92093c0.82847,0 1.57486,-1.43472 3.06401,-1.46897c1.80675,-0.04155 1.99284,1.57126 2.91499,1.49192c1.44839,-0.12461 3.27805,-1.94389 3.27805,-1.94389v10.2467c0,0 -1.53366,1.38242 -3.10581,1.36255c-1.1027,-0.01393 -2.06819,-1.38135 -3.20736,-1.5492c-1.20619,-0.17773 -1.2424,1.41604 -2.94388,1.41604c-1.26282,0 -3.75626,-1.2294 -3.75626,-1.2294z" fill="url(#color-1)" stroke="none" stroke-width="0" stroke-linecap="butt"/></g></g></svg>