<svg version="1.1" xmlns="http://www.w3.org/2000/svg" xmlns:xlink="http://www.w3.org/1999/xlink" width="296.75966" height="181.57364" viewBox="0,0,296.75966,181.57364"><defs><radialGradient cx="243.52512" cy="186.84693" r="24.69369" gradientUnits="userSpaceOnUse" id="color-1"><stop offset="0" stop-color="#ffe900"/><stop offset="1" stop-color="#ffe900" stop-opacity="0"/></radialGradient><radialGradient cx="242.9154" cy="186.84693" r="9.29825" gradientUnits="userSpaceOnUse" id="color-2"><stop offset="0" stop-color="#ffd500"/><stop offset="1" stop-color="#f6ff00"/></radialGradient><radialGradient cx="140.58802" cy="112.12283" r="62.96559" gradientUnits="userSpaceOnUse" id="color-3"><stop offset="0" stop-color="#ffde9b"/><stop offset="1" stop-color="#ffde9b" stop-opacity="0"/></radialGradient><linearGradient x1="132.69688" y1="98.36567" x2="132.69688" y2="126.7096" gradientUnits="userSpaceOnUse" id="color-4"><stop offset="0" stop-color="#ffa000"/><stop offset="1" stop-color="#ff9f45"/></linearGradient><linearGradient x1="132.69688" y1="98.36567" x2="132.69688" y2="126.7096" gradientUnits="userSpaceOnUse" id="color-5"><stop offset="0" stop-color="#ffa000"/><stop offset="1" stop-color="#ff9f45"/></linearGradient><linearGradient x1="132.69688" y1="106.92232" x2="132.69688" y2="118.15295" gradientUnits="userSpaceOnUse" id="color-6"><stop offset="0" stop-color="#ffa000"/><stop offset="1" stop-color="#ff9f45"/></linearGradient></defs><g transform="translate(-71.12019,-38.94786)"><g data-paper-data="{&quot;isPaintingLayer&quot;:true}" fill-rule="nonzero" stroke-linejoin="miter" stroke-miterlimit="10" stroke-dasharray="" stroke-dashoffset="0" style="mix-blend-mode: normal"><path d="M74.87019,200.13161c0,-5.99564 0,8.41226 0,-38.22019c0,-49.37318 0,-99.35209 0,-102.98814c0,-6.93822 10.29833,-16.22541 20.35238,-16.22541c20.96483,0 202.1831,0 243.42912,0c15.34479,0 25.47816,9.89252 25.47816,21.04968c0,9.82953 0,126.57151 0,132.46434c0,8.2702 -8.68555,20.55962 -22.16147,20.55962c-40.54014,0 -226.75305,0 -247.95187,0c-9.54122,0 -19.14631,-7.31573 -19.14631,-16.63991z" fill="#ff5151" stroke="#b30000" stroke-width="7.5" stroke-linecap="butt"/><text transform="translate(188.50516,75.73418) scale(0.67042,0.67042)" font-size="40" xml:space="preserve" fill="#bf0000" fill-rule="nonzero" stroke="#bf0000" stroke-width="3" stroke-linecap="butt" stroke-linejoin="miter" stroke-miterlimit="10" stroke-dasharray="" stroke-dashoffset="0" font-family="Sans Serif" font-weight="normal" text-anchor="start" style="mix-blend-mode: normal"><tspan x="0" dy="0">Power Boost</tspan></text><text transform="translate(188.98315,96.36538) scale(0.38362,0.38362)" font-size="40" xml:space="preserve" fill="#bf0000" fill-rule="nonzero" stroke="#bf0000" stroke-width="3" stroke-linecap="butt" stroke-linejoin="miter" stroke-miterlimit="10" stroke-dasharray="" stroke-dashoffset="0" font-family="Sans Serif" font-weight="normal" text-anchor="start" style="mix-blend-mode: normal"><tspan x="0" dy="0">Charges twice</tspan><tspan x="0" dy="48px">as fast</tspan></text><text transform="translate(188.739,149.46139) scale(0.41498,0.41498)" font-size="40" xml:space="preserve" fill="#bf0000" fill-rule="nonzero" stroke="#bf0000" stroke-width="2" stroke-linecap="butt" stroke-linejoin="miter" stroke-miterlimit="10" stroke-dasharray="" stroke-dashoffset="0" font-family="Sans Serif" font-weight="normal" text-anchor="start" style="mix-blend-mode: normal"><tspan x="0" dy="0">30 seconds</tspan></text><text transform="translate(186.739,133.93706) scale(0.5,0.5)" font-size="40" xml:space="preserve" fill="#bf0000" fill-rule="nonzero" stroke="#bf0000" stroke-width="2" stroke-linecap="butt" stroke-linejoin="miter" stroke-miterlimit="10" stroke-dasharray="" stroke-dashoffset="0" font-family="Sans Serif" font-weight="normal" text-anchor="start" style="mix-blend-mode: normal"><tspan x="0" dy="0">Charging time: </tspan></text><text transform="translate(185.97799,165.91201) scale(0.5,0.5)" font-size="40" xml:space="preserve" fill="#bf0000" fill-rule="nonzero" stroke="#bf0000" stroke-width="3" stroke-linecap="butt" stroke-linejoin="miter" stroke-miterlimit="10" stroke-dasharray="" stroke-dashoffset="0" font-family="Sans Serif" font-weight="normal" text-anchor="start" style="mix-blend-mode: normal"><tspan x="0" dy="0">15 seconds</tspan></text><path d="M189.261,144.52203h94" fill="none" stroke="#bf0000" stroke-width="1.5" stroke-linecap="round"/><g stroke="none" stroke-width="0" stroke-linecap="butt"><path d="M218.35032,186.44681c0,-13.63795 11.05574,-24.69369 24.69369,-24.69369c13.63795,0 24.69369,11.05574 24.69369,24.69369c0,13.63795 -11.05574,24.69369 -24.69369,24.69369c-13.63795,0 -24.69369,-11.05574 -24.69369,-24.69369z" fill="url(#color-1)"/><path d="M233.74576,186.44681c0,-5.13528 4.16296,-9.29825 9.29825,-9.29825c5.13528,0 9.29825,4.16296 9.29825,9.29825c0,5.13528 -4.16296,9.29825 -9.29825,9.29825c-5.13528,0 -9.29825,-4.16296 -9.29825,-9.29825z" fill="url(#color-2)"/></g><text transform="translate(119.02716,196.35704) scale(0.67042,0.67042)" font-size="40" xml:space="preserve" fill="#bf0000" fill-rule="nonzero" stroke="#bf0000" stroke-width="3" stroke-linecap="butt" stroke-linejoin="miter" stroke-miterlimit="10" stroke-dasharray="" stroke-dashoffset="0" font-family="Sans Serif" font-weight="normal" text-anchor="start" style="mix-blend-mode: normal"><tspan x="0" dy="0">costs:</tspan></text><text transform="translate(269.90933,195.85205) scale(0.67042,0.67042)" font-size="40" xml:space="preserve" fill="#bf0000" fill-rule="nonzero" stroke="#bf0000" stroke-width="3" stroke-linecap="butt" stroke-linejoin="miter" stroke-miterlimit="10" stroke-dasharray="" stroke-dashoffset="0" font-family="Sans Serif" font-weight="normal" text-anchor="start" style="mix-blend-mode: normal"><tspan x="0" dy="0">20</tspan></text><g><path d="M77.62243,112.12283c0,-34.77494 28.19065,-62.96559 62.96559,-62.96559c34.77494,0 62.96559,28.19065 62.96559,62.96559c0,34.77494 -28.19065,62.96559 -62.96559,62.96559c-34.77494,0 -62.96559,-28.19065 -62.96559,-62.96559z" fill="url(#color-3)" stroke="none" stroke-width="0" stroke-linecap="butt"/><path d="M96.62243,112.62283c0,-23.4531 19.01249,-42.46559 42.46559,-42.46559c23.4531,0 42.46559,19.01249 42.46559,42.46559c0,23.4531 -19.01249,42.46559 -42.46559,42.46559c-23.4531,0 -42.46559,-19.01249 -42.46559,-42.46559z" fill="#ffde9b" stroke="none" stroke-width="0" stroke-linecap="butt"/><path d="M108.63778,112.45242c0,-16.8172 13.63304,-30.45024 30.45024,-30.45024c16.8172,0 30.45024,13.63304 30.45024,30.45024c0,16.8172 -13.63304,30.45024 -30.45024,30.45024c-16.8172,0 -30.45024,-13.63304 -30.45024,-30.45024z" fill="#ffc34a" stroke="none" stroke-width="0" stroke-linecap="butt"/><path d="M118.52492,119.78516c0,-5.43319 0,-12.55474 0,-15.50894c0,-2.60384 1.34991,-4.11499 1.34991,-4.11499c0,0 2.40947,-1.79556 5.24468,-1.79556c3.18159,0 10.73566,0 16.04373,0c1.81275,0 3.32901,0.70187 4.30041,1.76244c0.97816,1.06797 1.40519,2.50099 1.40519,4.32638c0,5.47267 0,13.11264 0,16.22199c0,2.64608 -0.62392,4.16135 -0.62392,4.16135c0,0 -1.53195,1.87177 -4.54689,1.87177c-5.54873,0 -14.00722,0 -17.29157,0c-2.59378,0 -4.89678,-1.60006 -4.89678,-1.60006c0,0 -0.98476,-1.428 -0.98476,-5.32437z" fill="url(#color-4)" stroke="url(#color-5)" stroke-width="2" stroke-linecap="butt"/><path d="M123.29347,112.53763c0,-5.19335 4.21005,-9.4034 9.4034,-9.4034c5.19335,0 9.40341,4.21005 9.40341,9.4034c0,5.19335 -4.21005,9.4034 -9.40341,9.4034c-5.19335,0 -9.4034,-4.21005 -9.4034,-9.4034z" fill="#ffffff" stroke="none" stroke-width="0" stroke-linecap="butt"/><path d="M127.08156,112.53763c0,-3.10124 2.51405,-5.61531 5.61531,-5.61531c3.10124,0 5.61531,2.51405 5.61531,5.61531c0,3.10124 -2.51405,5.61531 -5.61531,5.61531c-3.10124,0 -5.61531,-2.51405 -5.61531,-5.61531z" fill="url(#color-6)" stroke="none" stroke-width="0" stroke-linecap="butt"/><path d="M133.76529,110.24806c0,-0.9353 0.75821,-1.6935 1.69351,-1.6935c0.9353,0 1.6935,0.75821 1.6935,1.6935c0,0.9353 -0.75821,1.6935 -1.6935,1.6935c-0.9353,0 -1.69351,-0.75821 -1.69351,-1.6935z" fill="#ffffff" stroke="none" stroke-width="NaN" stroke-linecap="butt"/><g fill="none" stroke="#ffa00b" stroke-width="6.5" stroke-linecap="round"><path d="M158.43187,113.28124l-5.70424,-8.35109"/><path d="M158.07614,113.86804l-5.70424,8.35109" data-paper-data="{&quot;index&quot;:null}"/></g><g fill="none" stroke="#ffa00b" stroke-width="5" stroke-linecap="round"><path d="M166.68231,113.47822l-4.09459,-4.89353"/><path d="M166.42695,113.82206l-4.09459,4.89353" data-paper-data="{&quot;index&quot;:null}"/></g></g></g></g></svg>