<svg version="1.1" xmlns="http://www.w3.org/2000/svg" xmlns:xlink="http://www.w3.org/1999/xlink" width="409.22854" height="200.48307" viewBox="0,0,409.22854,200.48307"><g transform="translate(-16.32579,-55.86714)"><g data-paper-data="{&quot;isPaintingLayer&quot;:true}" fill-rule="nonzero" stroke="none" stroke-width="0" stroke-linecap="butt" stroke-linejoin="miter" stroke-miterlimit="10" stroke-dasharray="" stroke-dashoffset="0" style="mix-blend-mode: normal"><g><path d="M17.63764,222.54365c0,-6.19591 5.02278,-11.21869 11.21869,-11.21869c6.19591,0 11.21869,5.02278 11.21869,11.21869c0,6.1959 -5.02278,11.21869 -11.21869,11.21869c-6.19591,0 -11.21869,-5.02278 -11.21869,-11.21869z" fill="#f10000"/><path d="M20.10261,223.66352c0,-5.37484 4.35716,-9.73199 9.73199,-9.73199c5.37484,0 9.73199,4.35716 9.73199,9.73199c0,5.37484 -4.35716,9.73199 -9.73199,9.73199c-5.37484,0 -9.73199,-4.35716 -9.73199,-9.73199z" fill="#cb0000"/></g><g><path d="M111.60433,220.85526c0,-6.1959 5.02278,-11.21869 11.21869,-11.21869c6.19591,0 11.21869,5.02278 11.21869,11.21869c0,6.1959 -5.02278,11.21869 -11.21869,11.21869c-6.19591,0 -11.21869,-5.02278 -11.21869,-11.21869z" fill="#f10000"/><path d="M114.0693,221.97512c0,-5.37484 4.35716,-9.73199 9.73199,-9.73199c5.37484,0 9.73199,4.35716 9.73199,9.73199c0,5.37484 -4.35716,9.73199 -9.73199,9.73199c-5.37484,0 -9.73199,-4.35716 -9.73199,-9.73199z" fill="#cb0000"/></g><path d="M19.1399,214.01165c0,0 -1.44487,-2.70615 -1.44487,-4.01856c0,-1.17735 1.44487,-3.49479 1.44487,-3.49479h112.70013c0,0 1.87834,2.60641 1.87834,3.78377c0,1.31241 -1.87834,3.72959 -1.87834,3.72959z" fill="#1767ff"/><path d="M21.6797,213.86717c0,0 -1.38391,-1.78249 -1.38391,-2.64695c0,-0.7755 1.38391,-2.30196 1.38391,-2.30196h107.94447c0,0 1.79908,1.71681 1.79908,2.4923c0,0.86446 -1.79908,2.45662 -1.79908,2.45662z" fill="#114fc1"/><g><path d="M248.38345,245.13152c0,-6.19591 5.02278,-11.21869 11.21869,-11.21869c6.19591,0 11.21869,5.02278 11.21869,11.21869c0,6.1959 -5.02278,11.21869 -11.21869,11.21869c-6.19591,0 -11.21869,-5.02278 -11.21869,-11.21869z" fill="#f10000"/><path d="M250.84842,246.25138c0,-5.37484 4.35716,-9.73199 9.73199,-9.73199c5.37484,0 9.73199,4.35716 9.73199,9.73199c0,5.37484 -4.35716,9.73199 -9.73199,9.73199c-5.37484,0 -9.73199,-4.35716 -9.73199,-9.73199z" fill="#cb0000"/></g><g><path d="M16.32579,242.22034c0,-6.1959 5.02278,-11.21869 11.21869,-11.21869c6.19591,0 11.21869,5.02278 11.21869,11.21869c0,6.1959 -5.02278,11.21869 -11.21869,11.21869c-6.19591,0 -11.21869,-5.02278 -11.21869,-11.21869z" fill="#f10000"/><path d="M18.79077,243.34021c0,-5.37484 4.35716,-9.73199 9.73199,-9.73199c5.37484,0 9.73199,4.35716 9.73199,9.73199c0,5.37484 -4.35716,9.73199 -9.73199,9.73199c-5.37484,0 -9.73199,-4.35716 -9.73199,-9.73199z" fill="#cb0000"/></g><g><path d="M122.3827,253.38255c-6.19591,0 -11.21869,-5.02278 -11.21869,-11.21869c0,-6.19591 5.02278,-11.21869 11.21869,-11.21869c6.1959,0 11.21869,5.02278 11.21869,11.21869c0,6.19591 -5.02278,11.21869 -11.21869,11.21869z" fill="#f10000"/><path d="M123.50257,250.91758c-5.37484,0 -9.73199,-4.35716 -9.73199,-9.73199c0,-5.37484 4.35716,-9.73199 9.73199,-9.73199c5.37484,0 9.73199,4.35716 9.73199,9.73199c0,5.37484 -4.35716,9.73199 -9.73199,9.73199z" fill="#cb0000"/></g><g><path d="M110.72439,195.10751c0,-6.19591 5.02278,-11.21869 11.21869,-11.21869c6.19591,0 11.21869,5.02278 11.21869,11.21869c0,6.1959 -5.02278,11.21869 -11.21869,11.21869c-6.19591,0 -11.21869,-5.02278 -11.21869,-11.21869z" fill="#f10000"/><path d="M113.18936,196.22737c0,-5.37484 4.35716,-9.73199 9.73199,-9.73199c5.37484,0 9.73199,4.35716 9.73199,9.73199c0,5.37484 -4.35716,9.73199 -9.73199,9.73199c-5.37484,0 -9.73199,-4.35716 -9.73199,-9.73199z" fill="#cb0000"/></g><g><path d="M120.17982,185.15325c-6.19591,0 -11.21869,-5.02278 -11.21869,-11.21869c0,-6.19591 5.02278,-11.21869 11.21869,-11.21869c6.1959,0 11.21869,5.02278 11.21869,11.21869c0,6.19591 -5.02278,11.21869 -11.21869,11.21869z" fill="#f10000"/><path d="M121.29969,182.68828c-5.37484,0 -9.73199,-4.35716 -9.73199,-9.73199c0,-5.37484 4.35716,-9.73199 9.73199,-9.73199c5.37484,0 9.73199,4.35716 9.73199,9.73199c0,5.37484 -4.35716,9.73199 -9.73199,9.73199z" fill="#cb0000"/></g><g><path d="M248.65715,202.4459c0,-6.1959 5.02278,-11.21869 11.21869,-11.21869c6.19591,0 11.21869,5.02278 11.21869,11.21869c0,6.1959 -5.02278,11.21869 -11.21869,11.21869c-6.19591,0 -11.21869,-5.02278 -11.21869,-11.21869z" fill="#f10000"/><path d="M251.12212,203.56576c0,-5.37484 4.35716,-9.73199 9.73199,-9.73199c5.37484,0 9.73199,4.35716 9.73199,9.73199c0,5.37484 -4.35716,9.73199 -9.73199,9.73199c-5.37484,0 -9.73199,-4.35716 -9.73199,-9.73199z" fill="#cb0000"/></g><g><path d="M259.43552,234.97319c-6.19591,0 -11.21869,-5.02278 -11.21869,-11.21869c0,-6.19591 5.02278,-11.21869 11.21869,-11.21869c6.1959,0 11.21869,5.02278 11.21869,11.21869c0,6.19591 -5.02278,11.21869 -11.21869,11.21869z" fill="#f10000"/><path d="M260.55539,232.50822c-5.37484,0 -9.73199,-4.35716 -9.73199,-9.73199c0,-5.37484 4.35716,-9.73199 9.73199,-9.73199c5.37484,0 9.73199,4.35716 9.73199,9.73199c0,5.37484 -4.35716,9.73199 -9.73199,9.73199z" fill="#cb0000"/></g><g><path d="M248.37745,183.90103c0,-6.19591 5.02278,-11.21869 11.21869,-11.21869c6.19591,0 11.21869,5.02278 11.21869,11.21869c0,6.1959 -5.02278,11.21869 -11.21869,11.21869c-6.19591,0 -11.21869,-5.02278 -11.21869,-11.21869z" fill="#f10000"/><path d="M250.84242,185.02089c0,-5.37484 4.35716,-9.73199 9.73199,-9.73199c5.37484,0 9.73199,4.35716 9.73199,9.73199c0,5.37484 -4.35716,9.73199 -9.73199,9.73199c-5.37484,0 -9.73199,-4.35716 -9.73199,-9.73199z" fill="#cb0000"/></g><g><path d="M247.38105,161.89623c0,-6.19591 5.02278,-11.21869 11.21869,-11.21869c6.19591,0 11.21869,5.02278 11.21869,11.21869c0,6.1959 -5.02278,11.21869 -11.21869,11.21869c-6.19591,0 -11.21869,-5.02278 -11.21869,-11.21869z" fill="#f10000"/><path d="M249.84602,163.01609c0,-5.37484 4.35716,-9.73199 9.73199,-9.73199c5.37484,0 9.73199,4.35716 9.73199,9.73199c0,5.37484 -4.35716,9.73199 -9.73199,9.73199c-5.37484,0 -9.73199,-4.35716 -9.73199,-9.73199z" fill="#cb0000"/></g><g><path d="M247.65475,119.2106c0,-6.1959 5.02278,-11.21869 11.21869,-11.21869c6.19591,0 11.21869,5.02278 11.21869,11.21869c0,6.1959 -5.02278,11.21869 -11.21869,11.21869c-6.19591,0 -11.21869,-5.02278 -11.21869,-11.21869z" fill="#f10000"/><path d="M250.11972,120.33046c0,-5.37484 4.35716,-9.73199 9.73199,-9.73199c5.37484,0 9.73199,4.35716 9.73199,9.73199c0,5.37484 -4.35716,9.73199 -9.73199,9.73199c-5.37484,0 -9.73199,-4.35716 -9.73199,-9.73199z" fill="#cb0000"/></g><g><path d="M258.43312,151.73789c-6.19591,0 -11.21869,-5.02278 -11.21869,-11.21869c0,-6.19591 5.02278,-11.21869 11.21869,-11.21869c6.1959,0 11.21869,5.02278 11.21869,11.21869c0,6.19591 -5.02278,11.21869 -11.21869,11.21869z" fill="#f10000"/><path d="M259.55299,149.27292c-5.37484,0 -9.73199,-4.35716 -9.73199,-9.73199c0,-5.37484 4.35716,-9.73199 9.73199,-9.73199c5.37484,0 9.73199,4.35716 9.73199,9.73199c0,5.37484 -4.35716,9.73199 -9.73199,9.73199z" fill="#cb0000"/></g><g><path d="M247.37505,100.66574c0,-6.19591 5.02278,-11.21869 11.21869,-11.21869c6.19591,0 11.21869,5.02278 11.21869,11.21869c0,6.1959 -5.02278,11.21869 -11.21869,11.21869c-6.19591,0 -11.21869,-5.02278 -11.21869,-11.21869z" fill="#f10000"/><path d="M249.84002,101.7856c0,-5.37484 4.35716,-9.73199 9.73199,-9.73199c5.37484,0 9.73199,4.35716 9.73199,9.73199c0,5.37484 -4.35716,9.73199 -9.73199,9.73199c-5.37484,0 -9.73199,-4.35716 -9.73199,-9.73199z" fill="#cb0000"/></g><g><path d="M178.95368,243.52888c0,-6.19591 5.02278,-11.21869 11.21869,-11.21869c6.19591,0 11.21869,5.02278 11.21869,11.21869c0,6.1959 -5.02278,11.21869 -11.21869,11.21869c-6.19591,0 -11.21869,-5.02278 -11.21869,-11.21869z" fill="#f10000"/><path d="M181.41865,244.64874c0,-5.37484 4.35716,-9.73199 9.73199,-9.73199c5.37484,0 9.73199,4.35716 9.73199,9.73199c0,5.37484 -4.35716,9.73199 -9.73199,9.73199c-5.37484,0 -9.73199,-4.35716 -9.73199,-9.73199z" fill="#cb0000"/></g><g><path d="M179.22738,200.84326c0,-6.1959 5.02278,-11.21869 11.21869,-11.21869c6.19591,0 11.21869,5.02278 11.21869,11.21869c0,6.1959 -5.02278,11.21869 -11.21869,11.21869c-6.19591,0 -11.21869,-5.02278 -11.21869,-11.21869z" fill="#f10000"/><path d="M181.69235,201.96312c0,-5.37484 4.35716,-9.73199 9.73199,-9.73199c5.37484,0 9.73199,4.35716 9.73199,9.73199c0,5.37484 -4.35716,9.73199 -9.73199,9.73199c-5.37484,0 -9.73199,-4.35716 -9.73199,-9.73199z" fill="#cb0000"/></g><g><path d="M190.00575,233.37055c-6.19591,0 -11.21869,-5.02278 -11.21869,-11.21869c0,-6.19591 5.02278,-11.21869 11.21869,-11.21869c6.1959,0 11.21869,5.02278 11.21869,11.21869c0,6.19591 -5.02278,11.21869 -11.21869,11.21869z" fill="#f10000"/><path d="M191.12562,230.90558c-5.37484,0 -9.73199,-4.35716 -9.73199,-9.73199c0,-5.37484 4.35716,-9.73199 9.73199,-9.73199c5.37484,0 9.73199,4.35716 9.73199,9.73199c0,5.37484 -4.35716,9.73199 -9.73199,9.73199z" fill="#cb0000"/></g><g><path d="M178.94768,182.29839c0,-6.19591 5.02278,-11.21869 11.21869,-11.21869c6.19591,0 11.21869,5.02278 11.21869,11.21869c0,6.1959 -5.02278,11.21869 -11.21869,11.21869c-6.19591,0 -11.21869,-5.02278 -11.21869,-11.21869z" fill="#f10000"/><path d="M181.41265,183.41825c0,-5.37484 4.35716,-9.73199 9.73199,-9.73199c5.37484,0 9.73199,4.35716 9.73199,9.73199c0,5.37484 -4.35716,9.73199 -9.73199,9.73199c-5.37484,0 -9.73199,-4.35716 -9.73199,-9.73199z" fill="#cb0000"/></g><g><path d="M177.95127,160.29359c0,-6.19591 5.02278,-11.21869 11.21869,-11.21869c6.19591,0 11.21869,5.02278 11.21869,11.21869c0,6.1959 -5.02278,11.21869 -11.21869,11.21869c-6.19591,0 -11.21869,-5.02278 -11.21869,-11.21869z" fill="#f10000"/><path d="M180.41624,161.41345c0,-5.37484 4.35716,-9.73199 9.73199,-9.73199c5.37484,0 9.73199,4.35716 9.73199,9.73199c0,5.37484 -4.35716,9.73199 -9.73199,9.73199c-5.37484,0 -9.73199,-4.35716 -9.73199,-9.73199z" fill="#cb0000"/></g><g><path d="M189.00334,150.13525c-6.19591,0 -11.21869,-5.02278 -11.21869,-11.21869c0,-6.19591 5.02278,-11.21869 11.21869,-11.21869c6.1959,0 11.21869,5.02278 11.21869,11.21869c0,6.19591 -5.02278,11.21869 -11.21869,11.21869z" fill="#f10000"/><path d="M190.12321,147.67028c-5.37484,0 -9.73199,-4.35716 -9.73199,-9.73199c0,-5.37484 4.35716,-9.73199 9.73199,-9.73199c5.37484,0 9.73199,4.35716 9.73199,9.73199c0,5.37484 -4.35716,9.73199 -9.73199,9.73199z" fill="#cb0000"/></g><g><path d="M309.15026,105.89299c0,-6.19591 5.02278,-11.21869 11.21869,-11.21869c6.19591,0 11.21869,5.02278 11.21869,11.21869c0,6.1959 -5.02278,11.21869 -11.21869,11.21869c-6.19591,0 -11.21869,-5.02278 -11.21869,-11.21869z" fill="#f10000"/><path d="M311.61523,107.01286c0,-5.37484 4.35716,-9.73199 9.73199,-9.73199c5.37484,0 9.73199,4.35716 9.73199,9.73199c0,5.37484 -4.35716,9.73199 -9.73199,9.73199c-5.37484,0 -9.73199,-4.35716 -9.73199,-9.73199z" fill="#cb0000"/></g><g><path d="M403.11695,104.2046c0,-6.1959 5.02278,-11.21869 11.21869,-11.21869c6.19591,0 11.21869,5.02278 11.21869,11.21869c0,6.1959 -5.02278,11.21869 -11.21869,11.21869c-6.19591,0 -11.21869,-5.02278 -11.21869,-11.21869z" fill="#f10000"/><path d="M405.58192,105.32446c0,-5.37484 4.35716,-9.73199 9.73199,-9.73199c5.37484,0 9.73199,4.35716 9.73199,9.73199c0,5.37484 -4.35716,9.73199 -9.73199,9.73199c-5.37484,0 -9.73199,-4.35716 -9.73199,-9.73199z" fill="#cb0000"/></g><path d="M310.65252,97.36099c0,0 -1.44487,-2.70615 -1.44487,-4.01856c0,-1.17735 1.44487,-3.49479 1.44487,-3.49479h112.70013c0,0 1.87834,2.60641 1.87834,3.78377c0,1.31241 -1.87834,3.72959 -1.87834,3.72959z" fill="#1767ff"/><path d="M313.19232,97.21651c0,0 -1.38391,-1.78249 -1.38391,-2.64695c0,-0.7755 1.38391,-2.30196 1.38391,-2.30196h107.94447c0,0 1.79908,1.71681 1.79908,2.4923c0,0.86446 -1.79908,2.45662 -1.79908,2.45662z" fill="#114fc1"/><g><path d="M365.07177,78.30452c-6.19591,0 -11.21869,-5.02278 -11.21869,-11.21869c0,-6.19591 5.02278,-11.21869 11.21869,-11.21869c6.1959,0 11.21869,5.02278 11.21869,11.21869c0,6.19591 -5.02278,11.21869 -11.21869,11.21869z" fill="#f10000"/><path d="M366.19164,75.83955c-5.37484,0 -9.73199,-4.35716 -9.73199,-9.73199c0,-5.37484 4.35716,-9.73199 9.73199,-9.73199c5.37484,0 9.73199,4.35716 9.73199,9.73199c0,5.37484 -4.35716,9.73199 -9.73199,9.73199z" fill="#cb0000"/></g></g></g></svg>