<svg version="1.1" xmlns="http://www.w3.org/2000/svg" xmlns:xlink="http://www.w3.org/1999/xlink" width="41.82744" height="42.09007" viewBox="0,0,41.82744,42.09007"><g transform="translate(-219.08628,-158.95496)"><g data-paper-data="{&quot;isPaintingLayer&quot;:true}" fill="#fabf00" fill-rule="nonzero" stroke="none" stroke-width="0" stroke-linecap="butt" stroke-linejoin="miter" stroke-miterlimit="10" stroke-dasharray="" stroke-dashoffset="0" style="mix-blend-mode: normal"><path d="M228.71949,180.92699c0,-6.48298 5.25549,-11.73849 11.73849,-11.73849c6.48298,0 11.73849,5.25549 11.73849,11.73849c0,6.48298 -5.25549,11.73849 -11.73849,11.73849c-6.48298,0 -11.73849,-5.25549 -11.73849,-11.73849z"/><path d="M248.81817,177.01417c0,5.98429 -4.96827,-6.01974 -8.12664,-6.01974c-3.15837,0 -7.52468,10.80009 -7.52468,4.8158c0,-5.98429 4.36628,-16.85526 7.52468,-16.85526c3.15837,0 8.12664,12.07491 8.12664,18.0592z"/><path d="M247.54067,187.13067c-5.47667,2.41201 3.50662,-6.97314 2.2336,-9.86359c-1.273,-2.89045 -12.91684,-2.53333 -7.44017,-4.94534c5.47667,-2.41201 17.18538,-2.79773 18.45838,0.09275c1.273,2.89045 -7.77514,12.3042 -13.25184,14.71621z"/><path d="M237.44752,191.23837c-3.61864,-4.76627 7.59711,1.79024 10.11264,-0.11961c2.51553,-1.90985 -0.53758,-13.15194 3.08104,-8.38567c3.61864,4.76627 6.71462,16.06483 4.19909,17.97465c-2.51553,1.90985 -13.77414,-4.7031 -17.39277,-9.46936z"/><path d="M240.06248,194.73144c-6.483,0 -11.73847,-5.25549 -11.73847,-11.73847c0,-6.483 5.25549,-11.73847 11.73847,-11.73847c6.483,0 11.73847,5.25549 11.73847,11.73847c0,6.483 -5.25549,11.73847 -11.73847,11.73847z" data-paper-data="{&quot;index&quot;:null}"/><path d="M239.8289,159.21501c3.15837,0 7.52468,10.87097 7.52468,16.85526c0,5.98429 -4.36631,-4.81577 -7.52468,-4.81577c-3.15837,0 -8.12664,12.00403 -8.12664,6.01974c0,-5.98429 4.96827,-18.0592 8.12664,-18.0592z" data-paper-data="{&quot;index&quot;:null}"/><path d="M219.15191,175.06228c0.9681,-3.00634 12.65414,-3.83035 18.35038,-1.9961c5.69626,1.83429 -5.92233,2.68002 -6.89043,5.68635c-0.9681,3.00634 8.93528,11.41487 3.23905,9.58062c-5.69626,-1.83429 -15.66709,-10.26454 -14.69899,-13.2709z" data-paper-data="{&quot;index&quot;:null}"/><path d="M226.46816,200.26766c-2.59261,-1.80382 0.03181,-13.2211 3.44954,-18.13343c3.41773,-4.91233 0.83379,6.4468 3.4264,8.25059c2.59261,1.80382 13.52662,-5.2125 10.10889,-0.30017c-3.41773,4.91233 -14.39222,11.98679 -16.98483,10.18298z" data-paper-data="{&quot;index&quot;:null}"/></g></g></svg>