<svg version="1.1" xmlns="http://www.w3.org/2000/svg" xmlns:xlink="http://www.w3.org/1999/xlink" width="666" height="454.6875" viewBox="0,0,666,454.6875"><defs><linearGradient x1="232.01201" y1="179.14276" x2="232.01201" y2="237.14276" gradientUnits="userSpaceOnUse" id="color-1"><stop offset="0" stop-color="#ffffff" stop-opacity="0"/><stop offset="1" stop-color="#ffffff"/></linearGradient><linearGradient x1="247.01201" y1="211.83026" x2="247.01201" y2="316.83025" gradientUnits="userSpaceOnUse" id="color-2"><stop offset="0" stop-color="#408bff"/><stop offset="1" stop-color="#4075ff"/></linearGradient><linearGradient x1="252.01201" y1="318.83025" x2="252.01201" y2="633.83026" gradientUnits="userSpaceOnUse" id="color-3"><stop offset="0" stop-color="#fff6ad"/><stop offset="1" stop-color="#ddd596"/></linearGradient></defs><g transform="translate(80.98799,-179.14275)"><g data-paper-data="{&quot;isPaintingLayer&quot;:true}" fill-rule="nonzero" stroke-linejoin="miter" stroke-miterlimit="10" stroke-dasharray="" stroke-dashoffset="0" style="mix-blend-mode: normal"><path d="M-0.48799,237.14276v-58h465v58z" fill="url(#color-1)" stroke="none" stroke-width="0" stroke-linecap="butt"/><path d="M-3.98799,316.83025v-105h502v105z" fill="url(#color-2)" stroke="none" stroke-width="0" stroke-linecap="butt"/><path d="M75.01201,286.83025v-1h2v1z" fill="#fff6ad" stroke="none" stroke-width="0" stroke-linecap="butt"/><path d="M-80.98799,633.83026v-315h666v315z" fill="url(#color-3)" stroke="none" stroke-width="0" stroke-linecap="butt"/><path d="M-9.98799,318.83025v-7h500v7z" fill="#94bfff" stroke="none" stroke-width="0" stroke-linecap="butt"/><path d="M13.01201,225.83026h48" fill="none" stroke="#afcfff" stroke-width="2" stroke-linecap="round"/><path d="M107.01201,244.83026h-36" fill="none" stroke="#afcfff" stroke-width="2" stroke-linecap="round"/><path d="M0.01201,277.83025h41" fill="none" stroke="#afcfff" stroke-width="2" stroke-linecap="round"/><path d="M54.01201,286.83025h44" fill="none" stroke="#afcfff" stroke-width="2" stroke-linecap="round"/><path d="M133.01201,258.83025h57" fill="none" stroke="#afcfff" stroke-width="2" stroke-linecap="round"/><path d="M174.01201,222.83026h-44" fill="none" stroke="#afcfff" stroke-width="2" stroke-linecap="round"/><path d="M150.01201,286.83025h31" fill="none" stroke="#afcfff" stroke-width="2" stroke-linecap="round"/><path d="M202.01201,299.83025h21" fill="none" stroke="#afcfff" stroke-width="2" stroke-linecap="round"/><path d="M198.01201,268.83025h42" fill="none" stroke="#afcfff" stroke-width="2" stroke-linecap="round"/><path d="M200.01201,238.83026h46" fill="none" stroke="#afcfff" stroke-width="2" stroke-linecap="round"/><path d="M258.01201,220.83026h45" fill="none" stroke="#afcfff" stroke-width="2" stroke-linecap="round"/><path d="M300.01201,241.83026h-35" fill="none" stroke="#afcfff" stroke-width="2" stroke-linecap="round"/><path d="M362.01201,220.83026h-38" fill="none" stroke="#afcfff" stroke-width="2" stroke-linecap="round"/><path d="M409.01201,233.83026h-71" fill="none" stroke="#afcfff" stroke-width="2" stroke-linecap="round"/><path d="M404.01201,222.83026h38" fill="none" stroke="#afcfff" stroke-width="2" stroke-linecap="round"/><path d="M415.01201,243.83026h48" fill="none" stroke="#afcfff" stroke-width="2" stroke-linecap="round"/><path d="M447.01201,260.83025h14" fill="none" stroke="#afcfff" stroke-width="2" stroke-linecap="round"/></g></g></svg>