<svg version="1.1" xmlns="http://www.w3.org/2000/svg" xmlns:xlink="http://www.w3.org/1999/xlink" width="405.54618" height="147.56259" viewBox="0,0,405.54618,147.56259"><defs><linearGradient x1="241.8492" y1="106.21871" x2="241.8492" y2="231.6971" gradientUnits="userSpaceOnUse" id="color-1"><stop offset="0" stop-color="#ffdcbc"/><stop offset="1" stop-color="#ffcbe6"/></linearGradient><linearGradient x1="240" y1="189.53635" x2="240" y2="253.78129" gradientUnits="userSpaceOnUse" id="color-2"><stop offset="0" stop-color="#fffac4"/><stop offset="1" stop-color="#ffffff"/></linearGradient></defs><g transform="translate(-37.22691,-106.21871)"><g data-paper-data="{&quot;isPaintingLayer&quot;:true}" fill-rule="nonzero" stroke="none" stroke-linecap="butt" stroke-linejoin="miter" stroke-miterlimit="10" stroke-dasharray="" stroke-dashoffset="0" style="mix-blend-mode: normal"><path d="M63.32644,231.6971c0,0 -0.71311,-60.24039 0,-83.31766c1.00383,-32.48517 31.91466,-42.16074 59.2258,-42.16074c43.01371,0 172.54712,0 245.93766,0c31.15977,0 52.19901,25.7368 52.19901,42.16074c0,23.08828 0,83.31766 0,83.31766z" data-paper-data="{&quot;index&quot;:null}" fill="url(#color-1)" stroke-width="NaN"/><path d="M37.22692,232.5209c0,-10.17396 0,-21.33498 0,-26.92332c0,-6.78827 10.73189,-16.06123 23.08802,-16.06123c42.84298,0 290.2637,0 362.60075,0c12.57365,0 19.8574,10.22038 19.8574,21.33179c0,8.86133 0,18.28935 0,23.55213c0,7.79064 -10.87736,19.36103 -28.97436,19.36103c-80.51152,0 -303.91851,0 -348.13943,0c-14.87149,0 -28.43239,-10.02871 -28.43239,-21.26039z" fill="url(#color-2)" stroke-width="0"/></g></g></svg>