<svg version="1.1" xmlns="http://www.w3.org/2000/svg" xmlns:xlink="http://www.w3.org/1999/xlink" width="573" height="133.53574" viewBox="0,0,573,133.53574"><defs><linearGradient x1="259" y1="310.3125" x2="259" y2="406.3125" gradientUnits="userSpaceOnUse" id="color-1"><stop offset="0" stop-color="#656565" stop-opacity="0"/><stop offset="1" stop-color="#656565"/></linearGradient><radialGradient cx="244.19217" cy="317.29467" r="44.51326" gradientUnits="userSpaceOnUse" id="color-2"><stop offset="0" stop-color="#860000"/><stop offset="1" stop-color="#860000" stop-opacity="0"/></radialGradient><linearGradient x1="240.9162" y1="291.28021" x2="248.08104" y2="348.88498" gradientUnits="userSpaceOnUse" id="color-3"><stop offset="0" stop-color="#ff0000"/><stop offset="1" stop-color="#b30000"/></linearGradient></defs><g transform="translate(27.5,-272.77676)"><g data-paper-data="{&quot;isPaintingLayer&quot;:true}" fill-rule="nonzero" stroke-miterlimit="10" stroke-dasharray="" stroke-dashoffset="0" style="mix-blend-mode: normal"><path d="M-27.5,406.3125v-96h573v96z" fill="url(#color-1)" stroke="none" stroke-width="0" stroke-linecap="butt" stroke-linejoin="miter"/><path d="M200.01928,322.78886c-3.03436,-24.39601 14.28269,-46.63272 38.6787,-49.66708c24.39601,-3.03436 46.63272,14.28269 49.66708,38.6787c3.03436,24.39601 -14.28269,46.63272 -38.6787,49.66708c-24.39601,3.03436 -46.63272,-14.28269 -49.66708,-38.6787z" fill="url(#color-2)" stroke="none" stroke-width="0" stroke-linecap="butt" stroke-linejoin="miter"/><path d="M242.08719,300.69543c1.7519,-5.85838 6.54383,-10.37479 12.66933,-11.13667c8.44474,-1.05035 16.20837,5.41296 17.32953,14.42699c2.20805,17.75256 -16.69532,38.32795 -24.69859,39.32339c-8.00327,0.99544 -31.29807,-13.73704 -33.57892,-32.07488c-1.12116,-9.01403 4.82261,-17.18226 13.26735,-18.23261c6.1255,-0.76188 11.8778,2.44303 15.0113,7.69378z" fill="url(#color-3)" stroke="#000000" stroke-width="3.72999" stroke-linecap="butt" stroke-linejoin="round"/><g fill="none" stroke="#000000" stroke-width="3.72999" stroke-linecap="round" stroke-linejoin="miter"><path d="M198.14961,322.04751l4.88564,19.11161"/><path d="M190.86675,333.56833l19.11161,-4.88564" data-paper-data="{&quot;index&quot;:null}"/></g></g></g></svg>