<svg version="1.1" xmlns="http://www.w3.org/2000/svg" xmlns:xlink="http://www.w3.org/1999/xlink" width="379.77259" height="49.85191" viewBox="0,0,379.77259,49.85191"><g transform="translate(-16.32579,-206.4983)"><g data-paper-data="{&quot;isPaintingLayer&quot;:true}" fill-rule="nonzero" stroke="none" stroke-width="0" stroke-linecap="butt" stroke-linejoin="miter" stroke-miterlimit="10" stroke-dasharray="" stroke-dashoffset="0" style="mix-blend-mode: normal"><g><path d="M17.63764,222.54365c0,-6.19591 5.02278,-11.21869 11.21869,-11.21869c6.19591,0 11.21869,5.02278 11.21869,11.21869c0,6.1959 -5.02278,11.21869 -11.21869,11.21869c-6.19591,0 -11.21869,-5.02278 -11.21869,-11.21869z" fill="#f10000"/><path d="M20.10261,223.66352c0,-5.37484 4.35716,-9.73199 9.73199,-9.73199c5.37484,0 9.73199,4.35716 9.73199,9.73199c0,5.37484 -4.35716,9.73199 -9.73199,9.73199c-5.37484,0 -9.73199,-4.35716 -9.73199,-9.73199z" fill="#cb0000"/></g><g><path d="M111.60433,220.85526c0,-6.1959 5.02278,-11.21869 11.21869,-11.21869c6.19591,0 11.21869,5.02278 11.21869,11.21869c0,6.1959 -5.02278,11.21869 -11.21869,11.21869c-6.19591,0 -11.21869,-5.02278 -11.21869,-11.21869z" fill="#f10000"/><path d="M114.0693,221.97512c0,-5.37484 4.35716,-9.73199 9.73199,-9.73199c5.37484,0 9.73199,4.35716 9.73199,9.73199c0,5.37484 -4.35716,9.73199 -9.73199,9.73199c-5.37484,0 -9.73199,-4.35716 -9.73199,-9.73199z" fill="#cb0000"/></g><path d="M19.1399,214.01165c0,0 -1.44487,-2.70615 -1.44487,-4.01856c0,-1.17735 1.44487,-3.49479 1.44487,-3.49479h112.70013c0,0 1.87834,2.60641 1.87834,3.78377c0,1.31241 -1.87834,3.72959 -1.87834,3.72959z" fill="#1767ff"/><path d="M21.6797,213.86717c0,0 -1.38391,-1.78249 -1.38391,-2.64695c0,-0.7755 1.38391,-2.30196 1.38391,-2.30196h107.94447c0,0 1.79908,1.71681 1.79908,2.4923c0,0.86446 -1.79908,2.45662 -1.79908,2.45662z" fill="#114fc1"/><g><path d="M248.38345,245.13152c0,-6.19591 5.02278,-11.21869 11.21869,-11.21869c6.19591,0 11.21869,5.02278 11.21869,11.21869c0,6.1959 -5.02278,11.21869 -11.21869,11.21869c-6.19591,0 -11.21869,-5.02278 -11.21869,-11.21869z" fill="#f10000"/><path d="M250.84842,246.25138c0,-5.37484 4.35716,-9.73199 9.73199,-9.73199c5.37484,0 9.73199,4.35716 9.73199,9.73199c0,5.37484 -4.35716,9.73199 -9.73199,9.73199c-5.37484,0 -9.73199,-4.35716 -9.73199,-9.73199z" fill="#cb0000"/></g><g><path d="M16.32579,242.22034c0,-6.1959 5.02278,-11.21869 11.21869,-11.21869c6.19591,0 11.21869,5.02278 11.21869,11.21869c0,6.1959 -5.02278,11.21869 -11.21869,11.21869c-6.19591,0 -11.21869,-5.02278 -11.21869,-11.21869z" fill="#f10000"/><path d="M18.79077,243.34021c0,-5.37484 4.35716,-9.73199 9.73199,-9.73199c5.37484,0 9.73199,4.35716 9.73199,9.73199c0,5.37484 -4.35716,9.73199 -9.73199,9.73199c-5.37484,0 -9.73199,-4.35716 -9.73199,-9.73199z" fill="#cb0000"/></g><g><path d="M122.3827,253.38255c-6.19591,0 -11.21869,-5.02278 -11.21869,-11.21869c0,-6.19591 5.02278,-11.21869 11.21869,-11.21869c6.1959,0 11.21869,5.02278 11.21869,11.21869c0,6.19591 -5.02278,11.21869 -11.21869,11.21869z" fill="#f10000"/><path d="M123.50257,250.91758c-5.37484,0 -9.73199,-4.35716 -9.73199,-9.73199c0,-5.37484 4.35716,-9.73199 9.73199,-9.73199c5.37484,0 9.73199,4.35716 9.73199,9.73199c0,5.37484 -4.35716,9.73199 -9.73199,9.73199z" fill="#cb0000"/></g><g><path d="M178.95368,243.52888c0,-6.19591 5.02278,-11.21869 11.21869,-11.21869c6.19591,0 11.21869,5.02278 11.21869,11.21869c0,6.1959 -5.02278,11.21869 -11.21869,11.21869c-6.19591,0 -11.21869,-5.02278 -11.21869,-11.21869z" fill="#f10000"/><path d="M181.41865,244.64874c0,-5.37484 4.35716,-9.73199 9.73199,-9.73199c5.37484,0 9.73199,4.35716 9.73199,9.73199c0,5.37484 -4.35716,9.73199 -9.73199,9.73199c-5.37484,0 -9.73199,-4.35716 -9.73199,-9.73199z" fill="#cb0000"/></g><g><path d="M190.00575,233.37055c-6.19591,0 -11.21869,-5.02278 -11.21869,-11.21869c0,-6.19591 5.02278,-11.21869 11.21869,-11.21869c6.1959,0 11.21869,5.02278 11.21869,11.21869c0,6.19591 -5.02278,11.21869 -11.21869,11.21869z" fill="#f10000"/><path d="M191.12562,230.90558c-5.37484,0 -9.73199,-4.35716 -9.73199,-9.73199c0,-5.37484 4.35716,-9.73199 9.73199,-9.73199c5.37484,0 9.73199,4.35716 9.73199,9.73199c0,5.37484 -4.35716,9.73199 -9.73199,9.73199z" fill="#cb0000"/></g><g><path d="M306.7493,243.94821c0,-6.19591 5.02278,-11.21869 11.21869,-11.21869c6.19591,0 11.21869,5.02278 11.21869,11.21869c0,6.1959 -5.02278,11.21869 -11.21869,11.21869c-6.19591,0 -11.21869,-5.02278 -11.21869,-11.21869z" fill="#f10000"/><path d="M309.21427,245.06808c0,-5.37484 4.35716,-9.73199 9.73199,-9.73199c5.37484,0 9.73199,4.35716 9.73199,9.73199c0,5.37484 -4.35716,9.73199 -9.73199,9.73199c-5.37484,0 -9.73199,-4.35716 -9.73199,-9.73199z" fill="#cb0000"/></g><g><path d="M306.69888,223.46518c-1.22262,-6.07407 2.71026,-11.98924 8.78434,-13.21186c6.07408,-1.22263 11.98924,2.71026 13.21186,8.78434c1.22262,6.07407 -2.71026,11.98924 -8.78434,13.21186c-6.07408,1.22263 -11.98924,-2.71026 -13.21186,-8.78434z" fill="#f10000"/><path d="M309.33636,224.07661c-1.06061,-5.26916 2.3511,-10.40042 7.62024,-11.46103c5.26916,-1.06061 10.40042,2.3511 11.46103,7.62024c1.06061,5.26916 -2.3511,10.40042 -7.62024,11.46103c-5.26916,1.06061 -10.40042,-2.3511 -11.46103,-7.62024z" fill="#cb0000"/></g><g><path d="M384.87969,252.37415c-6.19591,0 -11.21869,-5.02278 -11.21869,-11.21869c0,-6.19591 5.02278,-11.21869 11.21869,-11.21869c6.1959,0 11.21869,5.02278 11.21869,11.21869c0,6.19591 -5.02278,11.21869 -11.21869,11.21869z" fill="#f10000"/><path d="M385.99956,249.90918c-5.37484,0 -9.73199,-4.35716 -9.73199,-9.73199c0,-5.37484 4.35716,-9.73199 9.73199,-9.73199c5.37484,0 9.73199,4.35716 9.73199,9.73199c0,5.37484 -4.35716,9.73199 -9.73199,9.73199z" fill="#cb0000"/></g></g></g></svg>