<svg version="1.1" xmlns="http://www.w3.org/2000/svg" xmlns:xlink="http://www.w3.org/1999/xlink" width="571.07787" height="244.2872" viewBox="0,0,571.07787,244.2872"><defs><linearGradient x1="56.35972" y1="248.99289" x2="56.35972" y2="382.48518" gradientUnits="userSpaceOnUse" id="color-1"><stop offset="0" stop-color="#e0cf09"/><stop offset="1" stop-color="#ff9400"/></linearGradient><linearGradient x1="340.55775" y1="252.36393" x2="340.55775" y2="385.85622" gradientUnits="userSpaceOnUse" id="color-2"><stop offset="0" stop-color="#e0cf09"/><stop offset="1" stop-color="#ff9400"/></linearGradient></defs><g transform="translate(61.11312,-176.01735)"><g data-paper-data="{&quot;isPaintingLayer&quot;:true}" fill-rule="nonzero" stroke-linejoin="miter" stroke-miterlimit="10" stroke-dasharray="" stroke-dashoffset="0" style="mix-blend-mode: normal"><path d="M129.58973,406.20376l7.08248,-142.35786c0,0 84.641,4.211 129.68312,6.4519c48.98891,2.43726 153.40566,7.63212 153.40566,7.63212l-7.08248,142.35786z" fill="#0085fd" stroke="none" stroke-width="0" stroke-linecap="butt"/><path d="M143.15188,420.30455l-5.30844,-142.43505l283.24227,-10.5562l5.30844,142.43505z" fill="#2b9bfc" stroke="none" stroke-width="0" stroke-linecap="butt"/><path d="M-13.90098,382.48518v-133.49229h209.36346v133.49229z" fill="url(#color-1)" stroke="none" stroke-width="0" stroke-linecap="butt"/><path d="M201.79407,257.32024l-251.49575,0.23313" fill="none" stroke="#fd9800" stroke-width="12" stroke-linecap="round"/><path d="M200.16642,246.22998l-255.27954,0.23289" fill="none" stroke="#ffad00" stroke-width="12" stroke-linecap="round"/><path d="M254.99043,385.85622v-133.49229h254.97432v133.49229z" fill="url(#color-2)" stroke="none" stroke-width="0" stroke-linecap="butt"/><path d="M273.89991,257.30324l215.97793,-0.27495" fill="none" stroke="#fd9800" stroke-width="12" stroke-linecap="round"/><path d="M493.57466,245.93779l-219.6694,0.27396" fill="none" stroke="#ffad00" stroke-width="12" stroke-linecap="round"/><path d="M337.21721,240.11877l17.19031,-37.46606l20.27575,37.46606z" fill="#ff0000" stroke="none" stroke-width="NaN" stroke-linecap="butt"/><path d="M355.3503,236.65378l-0.48226,-27.76897l15.02791,27.76897z" fill="#bf0000" stroke="none" stroke-width="NaN" stroke-linecap="butt"/><path d="M254.9977,268.00661v-85.3361h73.12561v85.3361z" fill="#e0cf09" stroke="none" stroke-width="NaN" stroke-linecap="butt"/><path d="M328.08836,191.72667h-72.89332" fill="none" stroke="#fd9800" stroke-width="12" stroke-linecap="round"/><path d="M329.22647,182.01735h-74.51154" fill="none" stroke="#ffad00" stroke-width="12" stroke-linecap="round"/></g></g></svg>