<svg version="1.1" xmlns="http://www.w3.org/2000/svg" xmlns:xlink="http://www.w3.org/1999/xlink" width="571.07787" height="273.00959" viewBox="0,0,571.07787,273.00959"><defs><linearGradient x1="56.35972" y1="248.9929" x2="56.35972" y2="382.48519" gradientUnits="userSpaceOnUse" id="color-1"><stop offset="0" stop-color="#e0cf09"/><stop offset="1" stop-color="#ff9400"/></linearGradient><linearGradient x1="354.08642" y1="252.36394" x2="354.08642" y2="385.85623" gradientUnits="userSpaceOnUse" id="color-2"><stop offset="0" stop-color="#e0cf09"/><stop offset="1" stop-color="#ff9400"/></linearGradient></defs><g transform="translate(61.11312,-147.29496)"><g data-paper-data="{&quot;isPaintingLayer&quot;:true}" fill-rule="nonzero" stroke-linejoin="miter" stroke-miterlimit="10" stroke-dasharray="" stroke-dashoffset="0" style="mix-blend-mode: normal"><path d="M129.58973,406.20377l7.08248,-142.35786c0,0 84.641,4.211 129.68312,6.4519c48.98891,2.43726 153.40566,7.63212 153.40566,7.63212l-7.08248,142.35786z" fill="#0085fd" stroke="none" stroke-width="0" stroke-linecap="butt"/><path d="M143.15188,420.30456l-5.30844,-142.43505l283.24227,-10.5562l5.30844,142.43505z" fill="#2b9bfc" stroke="none" stroke-width="0" stroke-linecap="butt"/><path d="M-13.90098,382.48519v-133.49229h209.36346v133.49229z" fill="url(#color-1)" stroke="none" stroke-width="0" stroke-linecap="butt"/><path d="M-49.70168,257.55338l251.49575,-0.23313" fill="none" stroke="#fd9800" stroke-width="12" stroke-linecap="round"/><path d="M-55.11312,246.46288l255.27954,-0.23289" fill="none" stroke="#ffad00" stroke-width="12" stroke-linecap="round"/><path d="M275.35242,385.85623v-133.49229h234.61233v133.49229z" fill="url(#color-2)" stroke="none" stroke-width="0" stroke-linecap="butt"/><path d="M489.87784,257.0283l-215.97793,0.27495" fill="none" stroke="#fd9800" stroke-width="12" stroke-linecap="round"/><path d="M493.57466,245.9378l-219.6694,0.27396" fill="none" stroke="#ffad00" stroke-width="12" stroke-linecap="round"/><path d="M154.58573,206.70505v-52.75691h73.12561v52.75691z" fill="#e0cf09" stroke="none" stroke-width="NaN" stroke-linecap="butt"/><path d="M154.78307,163.00429h72.89332" fill="none" stroke="#fd9800" stroke-width="12" stroke-linecap="round"/><path d="M154.30296,153.29496h74.51154" fill="none" stroke="#ffad00" stroke-width="12" stroke-linecap="round"/></g></g></svg>