<svg version="1.1" xmlns="http://www.w3.org/2000/svg" xmlns:xlink="http://www.w3.org/1999/xlink" width="343.27154" height="173.80232" viewBox="0,0,343.27154,173.80232"><g transform="translate(-24.18143,-289.71943)"><g data-paper-data="{&quot;isPaintingLayer&quot;:true}" fill-rule="nonzero" stroke="none" stroke-linecap="butt" stroke-linejoin="miter" stroke-miterlimit="10" stroke-dasharray="" stroke-dashoffset="0" style="mix-blend-mode: normal"><path d="M70.64855,449.42096l7.08248,-142.35786c0,0 84.641,4.211 129.68312,6.4519c48.98891,2.43726 153.40566,7.63212 153.40566,7.63212l-7.08248,142.35786z" fill="#0085fd" stroke-width="0"/><g stroke-width="1"><g><path d="M230.70342,329.84495c0,0 3.21627,24.43901 -19.31226,43.97859c-0.60577,0.493 -1.40456,0.38371 -1.39642,-0.31625c0.06971,-5.99959 0.01371,-27.00166 -4.8604,-29.25844c7.62614,-10.81212 16.17435,-14.91309 25.56908,-14.4039z" fill="#608899"/><path d="M206.22265,345.26156c0.493,0.60577 1.08017,1.71266 1.56504,3.01838c0.29184,0.70344 0.4837,1.40571 0.67439,2.20799c0.19069,0.80227 0.38138,1.60454 0.47092,2.50564c0.18953,0.90226 0.27907,1.80336 0.36861,2.70446c0.08954,0.9011 0.17791,1.9022 0.26745,2.8033c0.17908,1.8022 0.25699,3.70324 0.33607,5.50428c0.08024,1.70105 0.16049,3.40209 0.14422,4.802c-0.03253,2.79981 -0.05461,4.69968 -0.05461,4.69968c0,0 -0.17791,-1.90219 -0.34537,-4.70433c-0.08373,-1.40107 -0.26512,-3.00328 -0.3442,-4.80432c-0.08024,-1.70105 -0.15816,-3.60208 -0.33607,-5.50428c-0.25583,-3.80323 -0.61282,-7.50762 -1.48139,-10.2179c-0.3837,-1.40456 -0.87205,-2.4103 -1.36389,-3.11606c-0.39184,-0.7046 -0.78832,-1.00923 -0.78832,-1.00923c0,0 0.39649,0.30463 0.88716,1.11038z" fill="#4e6f7d"/><path d="M231.18015,331.85062c-0.00697,0.59996 0.08256,1.50106 0.07211,2.401c-0.00581,0.49996 -0.01162,0.99993 -0.01743,1.4999c-0.00697,0.59996 -0.11277,1.09876 -0.11974,1.69872c-0.11277,1.09877 -0.22787,2.39751 -0.44296,3.69511c-0.21509,1.29759 -0.43134,2.69516 -0.84758,4.09042c-0.10812,0.69879 -0.31624,1.39642 -0.52436,2.09405c-0.20812,0.69763 -0.5174,1.49409 -0.72552,2.19172c-0.20463,0.39765 -0.30811,0.69647 -0.41275,1.09528l-0.41276,1.09528c-0.30928,0.79646 -0.61739,1.49293 -0.9255,2.18939c-0.71738,1.49176 -1.43243,2.78355 -2.14866,4.17532c-0.81505,1.29062 -1.53011,2.58239 -2.344,3.77302c-0.91388,1.18946 -1.7266,2.2801 -2.53933,3.37073c-0.81273,1.09063 -1.72312,1.98012 -2.43353,2.87192c-0.8104,0.89065 -1.51965,1.68246 -2.22657,2.27428c-0.70809,0.69182 -1.31385,1.18482 -1.81963,1.67898c-1.01155,0.98832 -1.71615,1.38016 -1.71615,1.38016c0,0 0.60576,-0.493 1.51732,-1.48248c0.50577,-0.49415 1.11271,-1.08715 1.7208,-1.78012c0.60809,-0.69298 1.31734,-1.4848 2.02775,-2.3766c0.71041,-0.8918 1.6208,-1.78129 2.33354,-2.87309c0.81273,-1.09063 1.62545,-2.18126 2.43934,-3.37189c0.81389,-1.19063 1.52894,-2.4824 2.344,-3.77302c0.71506,-1.29178 1.43128,-2.68355 2.0475,-4.07648c0.30811,-0.69646 0.61622,-1.39294 0.92433,-2.0894l0.41276,-1.09528c0.20463,-0.39765 0.30811,-0.69647 0.41276,-1.09528c0.20812,-0.69763 0.51623,-1.39409 0.72435,-2.09172c0.30811,-0.69646 0.41624,-1.39526 0.62436,-2.09289c0.41624,-1.39526 0.63249,-2.79284 0.94757,-4.08927c0.21509,-1.29759 0.43018,-2.59517 0.54296,-3.69394c0.11277,-1.09877 0.22555,-2.19752 0.23601,-3.09746c0.01045,-0.89994 0.01975,-1.69988 0.02788,-2.39984c-0.08489,-1.30108 -0.17559,-2.10218 -0.17559,-2.10218c0,0 0.19186,0.70227 0.47673,2.00567z" fill="#4e6f7d"/></g><g><path d="M73.05952,341.31417c-6.29842,-0.17319 -11.43176,2.66736 -20.82176,10.35878c-7.37154,6.11477 -15.50817,9.22044 -23.2274,10.83087c-1.10225,0.18721 -1.89057,-0.82202 -1.28016,-1.71499c4.97984,-6.8426 12.35246,-21.65794 12.03962,-29.16208c-0.22911,-6.10307 -0.05011,-12.90145 -7.1346,-22.88444c-2.7545,-3.93227 -7.18565,-9.88415 -8.3542,-12.59791c-0.38952,-0.90458 0.42205,-1.89522 1.4185,-1.58362c16.93495,5.69714 27.17392,19.61703 32.57943,27.78039c5.70202,8.46682 9.87618,10.71546 15.27581,10.7782" fill="#6da3b2"/><path d="M68.8667,332.06483c-0.39881,-0.10464 -0.99645,-0.3116 -1.79291,-0.62087c-0.79646,-0.30928 -1.69059,-0.81969 -2.5824,-1.5301c-0.89181,-0.71041 -1.78129,-1.6208 -2.7696,-2.63235c-0.49416,-0.50578 -0.98716,-1.11155 -1.38016,-1.71616c-0.393,-0.6046 -0.88599,-1.21037 -1.27783,-1.91498c-0.88483,-1.31037 -1.86966,-2.62189 -2.85333,-4.03342c-2.06849,-2.72422 -4.33581,-5.55075 -6.80427,-8.27961c-1.28364,-1.41501 -2.56845,-2.73002 -3.85442,-3.94505c-1.28481,-1.31502 -2.67194,-2.43121 -3.95907,-3.54624c-1.28713,-1.11503 -2.57542,-2.13006 -3.86488,-3.04511c-1.28946,-0.91505 -2.58007,-1.7301 -3.77186,-2.44399c-2.38357,-1.42779 -4.37066,-2.55095 -5.86359,-3.16834c-0.69647,-0.30811 -1.29295,-0.61506 -1.69176,-0.7197c-0.39881,-0.10464 -0.59763,-0.20696 -0.59763,-0.20696c0,0 0.19882,0.10232 0.59763,0.20696c0.39881,0.10464 0.99761,0.2116 1.79407,0.52087c1.49409,0.5174 3.68464,1.3429 6.16937,2.67186c2.48473,1.32896 5.26479,3.06138 8.0402,5.19377c1.38712,1.11619 2.77309,2.33237 4.05906,3.54739c1.38596,1.21618 2.66961,2.63119 3.95442,3.94621c1.18366,1.41384 2.36731,2.8277 3.55096,4.24154c1.18366,1.41384 2.26615,2.92653 3.24982,4.33805c1.08366,1.41269 1.96733,2.82304 2.75101,4.23224c0.39184,0.7046 0.78368,1.40921 1.17668,2.01381c0.29301,0.60345 0.78601,1.20921 1.18017,1.71382c0.393,0.6046 0.88832,1.01039 1.28248,1.515c0.39417,0.50462 0.78949,0.90923 1.18482,1.31385c0.79181,0.70925 1.58595,1.21851 2.28126,1.62661c1.49177,0.71738 2.28706,1.12665 2.28706,1.12665c0,0 -0.19883,-0.10232 -0.49532,-0.40578z" fill="#4e6f7d"/><path d="M27.81804,301.58586c1.08366,1.41269 2.66032,3.43114 4.53231,5.85305c0.98599,1.21154 1.97082,2.52307 2.95332,4.03458c1.0825,1.51268 1.96385,3.12303 2.74288,4.9322c0.77903,1.80917 1.45692,3.71718 1.83365,5.72169c0.47673,2.00567 0.65231,4.10785 0.72791,6.20887c-0.0244,2.09986 -0.14879,4.19855 -0.472,6.19493c-0.22438,2.09753 -0.74759,4.09159 -1.36846,5.8845c-1.14292,3.68697 -2.78114,6.96816 -4.21242,9.65172c-1.43127,2.68355 -2.85674,4.86714 -3.8741,6.35541c-0.5081,0.69414 -0.91504,1.28946 -1.21967,1.68595c-0.30463,0.39649 -0.40695,0.59531 -0.40695,0.59531c0,0 0.51042,-0.89413 1.42895,-2.48356c0.81853,-1.5906 2.04401,-3.77651 3.37646,-6.56122c1.33128,-2.68471 2.77069,-6.06822 3.81244,-9.65636c0.52088,-1.79407 0.94293,-3.6893 1.26615,-5.68568c0.32322,-1.99638 0.44644,-3.99508 0.36969,-5.99611c-0.07676,-2.00103 -0.25351,-4.00322 -0.63141,-5.90774c-0.3779,-1.90452 -0.95578,-3.81136 -1.63598,-5.51938c-0.6802,-1.70802 -1.56156,-3.31836 -2.44407,-4.82872c-0.88251,-1.51036 -1.76734,-2.82072 -2.65218,-4.13109c-1.77083,-2.52074 -3.14634,-4.63687 -4.12885,-6.14838c-0.49067,-0.80575 -0.88367,-1.41037 -1.07901,-1.81266c-0.29533,-0.40346 -0.393,-0.60461 -0.393,-0.60461c0,0 0.5895,0.90691 1.47434,2.21728z" fill="#4e6f7d"/><path d="M66.04373,342.63275c-1.00458,0.38835 -2.51493,1.27086 -4.12877,2.45219c-1.61383,1.18133 -3.52997,2.55916 -5.54843,4.13582c-2.01729,1.47666 -4.1369,3.15215 -6.35534,4.72648c-1.10806,0.68718 -2.31727,1.47317 -3.42533,2.16035c-1.10922,0.78717 -2.31611,1.37319 -3.423,1.96037c-0.60228,0.19302 -1.10574,0.48719 -1.70918,0.78019c-0.50229,0.19417 -1.10573,0.48719 -1.60802,0.68136c-1.10573,0.48719 -2.11031,0.87554 -3.11374,1.1639c-1.00458,0.38835 -1.90684,0.57788 -2.70911,0.76857c-0.80227,0.19069 -1.50455,0.38255 -2.10567,0.47557c-1.10225,0.18721 -1.80336,0.27907 -1.80336,0.27907c0,0 0.70344,-0.29185 1.80685,-0.57905c0.60228,-0.19302 1.20457,-0.38603 2.008,-0.67672c0.70344,-0.29185 1.60687,-0.58137 2.51145,-0.97089c0.90458,-0.38952 1.91033,-0.87786 2.91607,-1.36621c1.00574,-0.48835 2.11264,-1.07553 3.21954,-1.66271c1.10689,-0.58718 2.21496,-1.27435 3.32301,-1.96152c1.10922,-0.78717 2.21728,-1.47433 3.32649,-2.2615c2.21844,-1.57433 4.33689,-3.14983 6.45418,-4.62533c2.11728,-1.4755 4.03343,-2.85333 5.84492,-3.83235c1.81149,-0.97902 3.41952,-1.66038 4.5241,-2.04757c0.50229,-0.19417 1.00342,-0.28836 1.30456,-0.38487c0.30114,-0.09651 0.50113,-0.09418 0.50113,-0.09418c0,0 -0.60229,0.19302 -1.81034,0.87903z" fill="#4e6f7d"/></g><g><g><path d="M124.27597,357.4103c-7.3995,-0.08598 -14.53387,2.83134 -17.8383,3.19297c-3.30443,0.36163 0.76618,-5.69148 -0.90234,-8.41105" fill="#aedeeb"/><path d="M118.87053,357.84753c-0.60228,0.19302 -1.40571,0.4837 -2.30914,0.77323c-0.90342,0.28953 -2.00684,0.57673 -3.2114,0.96276c-1.20457,0.38603 -2.50912,0.7709 -3.81252,1.05577c-0.70111,0.09186 -1.40339,0.28371 -2.00451,0.37673c-0.40114,0.09535 -0.70227,0.19185 -1.10225,0.18721c-0.39998,-0.00464 -0.79995,-0.00929 -1.29642,-0.31508c-0.49648,-0.30579 -0.6895,-0.90807 -0.68485,-1.30804c0.00465,-0.39997 0.00814,-0.69995 0.11162,-0.99877c0.20579,-0.49764 0.41159,-0.99529 0.51739,-1.49409c0.52204,-1.89407 0.83713,-3.19049 0.83713,-3.19049c0,0 0.08373,1.40107 -0.1395,3.39861c-0.00581,0.49996 -0.11277,1.09876 -0.21857,1.59757c-0.1058,0.49881 -0.01162,0.99993 0.08837,1.00109c0.09767,0.20115 0.79878,0.10929 1.40107,-0.08372c0.60228,-0.19302 1.3034,-0.28488 1.90568,-0.4779c1.3034,-0.28487 2.6068,-0.56975 3.8102,-0.85579c1.30223,-0.18489 2.40449,-0.37209 3.40674,-0.56046c1.00225,-0.18837 1.80336,-0.27907 2.40332,-0.27209c0.59996,0.00697 0.89993,0.01045 0.89993,0.01045c0,0 -0.30114,0.0965 -0.60228,0.19302z" fill="#648f9e"/></g><g><path d="M101.74721,351.14814c-5.59962,-0.06506 -10.92598,2.1732 -13.52813,2.34298c-2.50332,0.27094 0.54993,-4.2939 -0.72559,-6.40886" fill="#aedeeb"/><path d="M97.64051,351.70046c-0.4023,0.19534 -1.00574,0.48834 -1.80917,0.77903c-1.50687,0.58253 -3.61602,1.35808 -5.82052,1.7325c-0.50113,0.09418 -1.10225,0.18721 -1.70221,0.18023c-0.29998,-0.00349 -0.59996,-0.00697 -1.09644,-0.31276c-0.09883,-0.10116 -0.09883,-0.10116 -0.19766,-0.20231c-0.09883,-0.10116 0,0 -0.09883,-0.10116c0.00116,-0.09999 -0.09883,-0.10116 -0.09767,-0.20115c-0.09767,-0.20115 -0.19418,-0.50229 -0.19302,-0.60228c-0.09302,-0.60112 0.11277,-1.09877 0.21858,-1.59757c0.20579,-0.49764 0.31044,-0.89645 0.41508,-1.29526c0.20928,-0.79762 0.31625,-1.39642 0.32206,-1.89639c0.00464,-0.39997 -0.09186,-0.70112 -0.09186,-0.70112c0,0 0.19767,0.20231 0.39184,0.7046c0.09418,0.50113 0.28487,1.30339 0.17558,2.10218c-0.00464,0.39997 -0.00929,0.79994 -0.11509,1.29875c-0.00581,0.49996 -0.11161,0.99878 -0.0151,1.29991c-0.00116,0.09999 -0.00116,0.1 -0.00116,0.1l0.09883,0.10116c-0.19767,-0.20231 -0.09883,-0.10116 -0.09883,-0.10116v0c0,0 0.19998,0.00232 0.39997,0.00464c0.49997,0.00581 1.00109,-0.08837 1.50222,-0.18256c1.10225,-0.18721 2.10567,-0.47557 3.10792,-0.66394c0.90342,-0.28953 1.90568,-0.47789 2.70679,-0.56859c0.80227,-0.19069 1.50338,-0.28256 2.00335,-0.27675c0.49997,0.00581 0.79995,0.0093 0.79995,0.0093c0,0 -0.20115,0.09767 -0.8046,0.39068z" fill="#648f9e"/></g><g><path d="M87.08639,330.4764c3.41371,-1.16042 5.15542,-4.74042 5.18098,-6.94027c0.02556,-2.19985 -1.95687,-3.72298 0.2453,-3.89741c3.60441,-0.35814 9.53777,5.41118 13.9398,5.26231" fill="#6da3b2"/><path d="M104.15611,324.57433c-0.29882,-0.10348 -0.79647,-0.30928 -1.3941,-0.51623c-1.19527,-0.41391 -2.68704,-1.13129 -4.17764,-1.94867c-1.38945,-0.9162 -2.88121,-1.63359 -4.07648,-2.0475c-1.09528,-0.41276 -1.99522,-0.42321 -1.99522,-0.42321c0,0 0.19999,0.00232 0.59996,0.00697c0.29998,0.00349 0.89994,0.01046 1.49757,0.21742c0.69763,0.20812 1.39526,0.41624 2.09172,0.72435c0.69646,0.30811 1.49177,0.71738 2.18707,1.12548c1.4906,0.81738 2.98237,1.53476 4.07532,2.1475c0.59647,0.30695 1.09295,0.61273 1.39177,0.71621c0.29882,0.10348 0.49764,0.2058 0.49764,0.2058c0,0 -0.19998,-0.00232 -0.69763,-0.20812z" fill="#4e6f7d"/><path d="M90.621,327.51728c0.30812,-0.69646 0.81737,-1.49061 1.02782,-2.38822c0.10464,-0.39881 0.21045,-0.89762 0.21509,-1.29759c0.00464,-0.39997 0.00929,-0.79995 0.01394,-1.19992c0.00464,-0.39997 0.00813,-0.69995 -0.08953,-0.9011c0.00232,-0.19999 0.00348,-0.29998 0.00348,-0.29998c0,0 -0.00116,0.09999 0.09651,0.30114c0.09767,0.20115 0.19534,0.4023 0.29068,0.80344c0.09534,0.40114 0.1907,0.80227 0.18489,1.30223c-0.00232,0.19999 -0.00581,0.49996 -0.00814,0.69995c-0.00232,0.19999 -0.00581,0.49996 -0.10813,0.69879c-0.3116,0.99644 -0.82086,1.79059 -1.32779,2.38474c-0.40694,0.59531 -0.8104,0.89065 -0.8104,0.89065c0,0 0.30463,-0.39648 0.51158,-0.99412z" fill="#4e6f7d"/></g><g><path d="M154.07939,314.25366c6.13212,-2.72894 6.6355,-11.62369 3.70309,-17.45816c-2.93241,-5.83447 -6.03337,-5.77049 -4.12769,-6.24838c14.84663,-3.92777 30.86546,11.75939 33.61648,15.99165c2.75101,4.23225 6.14962,4.37174 9.15407,4.00662" fill="#6da3b2"/><path d="M192.62907,310.20126c-0.29998,-0.00349 -0.79995,-0.0093 -1.39758,-0.21625c-1.19644,-0.31392 -2.5824,-1.5301 -3.96488,-3.04627c-0.69066,-0.80808 -1.38132,-1.61616 -2.17081,-2.5254c-0.78949,-0.90924 -1.68013,-1.71964 -2.56961,-2.63003c-1.88012,-1.72196 -3.96023,-3.44624 -6.14265,-4.9717c-2.18242,-1.52546 -4.56716,-2.85325 -6.85539,-3.87991c-2.28823,-1.02666 -4.47994,-1.75217 -6.47516,-2.17538c-1.99522,-0.42321 -3.69278,-0.64295 -4.8927,-0.65689c-0.59996,-0.00697 -1.09992,-0.01278 -1.3999,-0.01626c-0.29998,-0.00349 -0.49997,-0.00581 -0.49997,-0.00581c0,0 0.20114,-0.09767 0.50113,-0.09418c0.30114,-0.09651 0.80227,-0.19069 1.40223,-0.18372c0.60112,-0.09302 1.40107,-0.08373 2.20102,-0.07443c0.79995,0.0093 1.79871,0.12091 2.79748,0.23252c2.09637,0.32438 4.49041,0.85223 6.87863,1.88004c1.19411,0.51391 2.38822,1.02781 3.58001,1.74171c1.19295,0.6139 2.28474,1.32664 3.47536,2.14053c2.28125,1.62662 4.46019,3.45206 6.23916,5.27285c0.88949,0.91039 1.67781,1.91962 2.4673,2.82885c0.68949,0.90807 1.379,1.81615 1.96966,2.62306c0.59067,0.80692 1.18249,1.51384 1.77548,2.12077c0.59299,0.60693 1.18829,1.01387 1.68594,1.21967c0.49648,0.30579 0.99644,0.3116 1.29527,0.41508c0.29882,0.10348 0.49881,0.1058 0.49881,0.1058c0,0 -0.19998,-0.00232 -0.39881,-0.10464z" fill="#4e6f7d"/><path d="M156.50014,312.48166c0.40578,-0.49532 0.91388,-1.18946 1.32547,-2.18475c0.30579,-0.49648 0.4116,-0.99528 0.61855,-1.59292c0.20579,-0.49764 0.31392,-1.19643 0.42088,-1.79523c0.10697,-0.5988 0.11509,-1.29875 0.12323,-1.99871c0.00814,-0.69995 -0.08373,-1.40106 -0.17559,-2.10218c-0.09186,-0.70112 -0.18372,-1.40223 -0.27558,-2.10334c-0.19186,-0.70227 -0.28372,-1.40339 -0.47673,-2.00567c-0.28487,-1.3034 -0.87206,-2.41029 -1.36157,-3.31604c-0.58951,-0.90691 -1.08133,-1.61268 -1.4755,-2.11729c-0.39416,-0.50462 -0.59067,-0.80692 -0.59067,-0.80692c0,0 0.29765,0.20348 0.79297,0.60926c0.49532,0.40578 1.1883,1.01387 1.8778,1.92194c0.69066,0.80808 1.37666,2.01613 1.86153,3.32185c0.48487,1.30572 0.76741,2.8091 0.94997,4.31133c-0.00814,0.69995 0.08257,1.50106 0.07443,2.20101c-0.0093,0.79994 -0.11742,1.49874 -0.22555,2.19753c-0.31625,1.39642 -0.83015,2.59053 -1.44173,3.58349c-0.30579,0.49648 -0.61042,0.89297 -0.91388,1.18946c-0.40346,0.29533 -0.70692,0.59183 -0.90923,0.78949c-0.20231,0.19766 -0.50345,0.29417 -0.60461,0.39301c-0.10116,0.09883 -0.20115,0.09767 -0.20115,0.09767c0,0 0.30231,-0.1965 0.60693,-0.59298z" fill="#4e6f7d"/></g><g><g><g><path d="M265.6198,345.85169c-3.73336,11.4574 -55.04493,20.76188 -106.1136,17.76835c-51.16866,-2.99469 -77.16822,-20.39794 -87.44545,-22.41748c-10.27723,-2.01954 -9.02155,-6.80527 -1.10814,-7.91341c22.83796,-3.13488 69.67183,-22.99208 124.07746,-23.16c54.30563,-0.16908 94.99606,18.10491 93.73108,23.69059c-1.04989,4.28809 -23.14135,12.03195 -23.14135,12.03195z" fill="#6da3b2"/><path d="M77.45226,341.96525c5.40545,-0.43723 4.55902,3.5532 9.77145,2.51369c5.21243,-1.03951 8.97732,2.00444 13.26076,3.4543c4.28345,1.44986 8.7087,-0.69887 13.30839,-0.64542c4.59969,0.05345 5.35201,4.16246 8.95176,4.20429c3.49976,0.04066 8.96454,3.10436 13.24914,4.45423c4.28345,1.44986 12.85955,-5.05093 15.57099,-6.0195c2.7126,-1.06856 6.80302,-0.22097 9.79353,0.61383c2.99051,0.8348 7.14019,-3.41727 14.91526,-1.22679c7.87391,2.29163 28.92493,15.23709 33.81871,7.1934c4.89379,-8.04368 16.13485,-11.51332 19.43463,-11.47498c3.29978,0.03834 3.30907,-0.7616 5.22172,-1.83945c1.91265,-1.07785 5.95196,4.16943 8.09597,0.39409c2.244,-3.77418 6.21585,-1.32787 8.7122,-0.99885c2.39636,0.32786 6.5623,-5.32412 13.37113,-6.04506c6.80883,-0.72094 12.99331,0.651 16.81513,-1.20472c2.31378,-1.1732 4.22412,-2.05106 6.83091,-2.62081c0.19534,0.40229 0.19069,0.80226 0.18721,1.10224c-1.04989,4.28809 -23.14135,12.03195 -23.14135,12.03195c-3.73336,11.4574 -55.04493,20.76188 -106.1136,17.76835c-46.07249,-2.63546 -71.70693,-17.03426 -83.85731,-21.37572c0.50113,-0.09418 1.10341,-0.2872 1.80337,-0.27907z" fill="#aedeeb"/><path d="M283.42309,328.45736c-0.69531,-0.4081 -1.68943,-0.91969 -3.08236,-1.53592c-1.39294,-0.61622 -3.08352,-1.43592 -4.97526,-2.15795c-1.99057,-0.82319 -4.18113,-1.64869 -6.57167,-2.47652c-2.39054,-0.82783 -5.08107,-1.65915 -7.87158,-2.49162c-2.79052,-0.83247 -5.78218,-1.56728 -8.87268,-2.40325c-1.49525,-0.4174 -3.09166,-0.73597 -4.6869,-1.15453c-1.59641,-0.31857 -3.29165,-0.73829 -4.88805,-1.05686c-3.2928,-0.6383 -6.58561,-1.2766 -9.98073,-1.71607c-3.39396,-0.53947 -6.78908,-0.97895 -10.08537,-1.31727c-3.29513,-0.43831 -6.59259,-0.67664 -9.79005,-0.9138c-3.19862,-0.13717 -6.29609,-0.37318 -9.19473,-0.50686c-2.89864,-0.13369 -5.59846,-0.16505 -8.19828,-0.19526c-5.10082,0.04074 -9.30053,-0.00805 -12.30265,0.15708c-3.00212,0.16513 -4.70317,0.24537 -4.70317,0.24537c0,0 1.7022,-0.18023 4.70549,-0.44536c1.50106,-0.08256 3.30326,-0.26164 5.40428,-0.33723c2.10102,-0.0756 4.40203,-0.14887 7.00302,-0.21865c2.60099,-0.06979 5.4008,-0.03726 8.3006,-0.00356c2.8998,0.0337 5.99959,0.06971 9.19706,0.30687c3.19746,0.23717 6.49491,0.47549 9.8912,0.81497c3.29629,0.33832 6.69258,0.6778 10.08653,1.21727c3.39396,0.53947 6.78677,1.17893 10.07957,1.81723c1.6964,0.31973 3.29165,0.73829 4.88805,1.05687c1.69524,0.41973 3.19165,0.73713 4.7869,1.15569c3.09049,0.83596 6.081,1.67076 8.87035,2.60323c2.78936,0.93247 5.37872,1.86262 7.7681,2.79044c2.38938,0.92782 4.57878,1.85333 6.46936,2.67535c1.89058,0.82202 3.58116,1.64172 4.87295,2.35677c1.29178,0.71506 2.28474,1.32664 2.98005,1.73474c0.59531,0.40695 0.99296,0.61158 0.99296,0.61158c0,0 -0.39765,-0.20463 -1.09296,-0.61274z" fill="#4e6f7d"/><path d="M163.20085,312.45951c-1.80337,0.27907 -4.50899,0.74766 -7.61575,1.3116c-3.10676,0.56394 -6.81581,1.3209 -10.726,2.17553c-4.01019,0.85347 -8.12037,1.70577 -12.3317,2.6569c-4.21017,0.85114 -8.42151,1.80228 -12.3317,2.6569c-3.91019,0.85463 -7.52041,1.71274 -10.62949,2.47668c-3.10908,0.76393 -5.71704,1.43367 -7.52273,1.91272c-1.80569,0.47906 -2.8091,0.76742 -2.8091,0.76742c0,0 1.00458,-0.38835 2.81143,-0.9674c1.80685,-0.57905 4.3183,-1.54993 7.42854,-2.41386c3.11141,-0.96391 6.72395,-2.02202 10.6353,-2.97664c1.90568,-0.47789 3.91136,-0.95462 6.01702,-1.43019c2.00567,-0.47673 4.11134,-0.95229 6.21701,-1.42786c4.21133,-0.95114 8.42151,-1.80227 12.33054,-2.55691c3.90903,-0.75464 7.61575,-1.31161 10.82135,-1.7744c3.1056,-0.46395 5.8089,-0.73256 7.70994,-0.81048c1.00109,-0.08837 1.70104,-0.08024 2.20101,-0.07443c0.49997,0.00581 0.79995,0.00929 0.79995,0.00929c0,0 -1.0011,0.08838 -3.00561,0.46512z" fill="#4e6f7d"/><path d="M246.99093,356.836c-1.00342,0.28836 -2.30797,0.67323 -4.11366,1.15228c-1.80453,0.37906 -3.91136,0.95462 -6.41816,1.52553c-2.50797,0.67091 -5.31358,1.13834 -8.42034,1.70229c-3.10676,0.56394 -6.41235,1.02557 -10.01792,1.48371c-3.60557,0.45814 -7.40996,0.81397 -11.31434,1.16863c-7.80877,0.70932 -16.21284,1.0117 -24.61576,1.21409c-8.40176,0.1024 -16.79771,-0.29517 -24.59137,-0.88576c-3.89625,-0.34529 -7.69251,-0.68942 -11.28762,-1.13122c-3.59511,-0.4418 -6.99024,-0.88127 -10.08421,-1.41725c-1.59757,-0.21857 -3.09514,-0.43599 -4.49156,-0.75224c-1.39642,-0.31624 -2.69401,-0.53133 -3.99044,-0.84642c-1.29642,-0.31509 -2.39402,-0.52785 -3.49047,-0.84061c-1.0976,-0.21276 -2.09521,-0.42437 -2.99166,-0.73481c-0.89762,-0.21044 -1.69524,-0.41972 -2.39287,-0.62784c-0.69646,-0.30811 -1.19527,-0.41391 -1.69291,-0.61971c-0.89646,-0.31043 -1.39409,-0.51623 -1.39409,-0.51623c0,0 0.59879,0.10697 1.49525,0.4174c0.39765,0.20463 0.99645,0.3116 1.69408,0.51972c0.69879,0.10812 1.49641,0.31741 2.39402,0.52785c0.89762,0.21044 1.89523,0.42205 2.99283,0.63482c1.0976,0.21276 2.1952,0.42553 3.49279,0.64062c1.1976,0.21393 2.59518,0.43018 3.99276,0.64643c1.49758,0.21742 2.89516,0.43366 4.49273,0.65224c3.09515,0.43599 6.49143,0.77548 10.0877,1.11728c3.59627,0.34181 7.39253,0.68593 11.28995,0.93123c7.79483,0.49059 16.19077,0.88817 24.4937,0.68462c8.30176,-0.10355 16.70584,-0.40593 24.51345,-1.01526c3.90322,-0.25467 7.60762,-0.61165 11.21203,-0.9698c3.50441,-0.35931 6.90999,-0.81977 10.01559,-1.28373c1.50338,-0.28255 3.00677,-0.56511 4.409,-0.74883c1.40223,-0.18372 2.80446,-0.36744 4.00786,-0.65348c2.50564,-0.47092 4.61131,-0.94649 6.41583,-1.32555c1.80453,-0.37906 3.10909,-0.76392 4.11134,-0.95229c1.00342,-0.28836 1.50455,-0.38254 1.50455,-0.38254c0,0 -0.50113,0.09418 -1.30804,0.68485z" fill="#648f9e"/><path d="M106.80968,354.40717c-0.69879,-0.10812 -1.59641,-0.31857 -2.49286,-0.62901c-0.89646,-0.31043 -1.79291,-0.62087 -2.78936,-0.93247c-0.89529,-0.41043 -1.89173,-0.72203 -2.78819,-1.03246c-0.89646,-0.31043 -1.69292,-0.61971 -2.38939,-0.92782c-1.39293,-0.61622 -2.28822,-1.02666 -2.28822,-1.02666c0,0 0.89645,0.31043 2.3917,0.72783c0.69763,0.20812 1.59525,0.41857 2.4917,0.729c0.89646,0.31043 1.79291,0.62087 2.78936,0.93247c0.89646,0.31043 1.8929,0.62204 2.78936,0.93247c0.89646,0.31043 1.69291,0.61971 2.39054,0.82783c1.39409,0.51623 2.39055,0.82783 2.39055,0.82783c0,0 -0.99761,-0.21161 -2.49518,-0.42902z" fill="#648f9e"/><path d="M87.68766,347.58456c-0.69647,-0.30811 -1.59293,-0.61855 -2.58821,-1.03014c-0.99528,-0.41159 -1.99057,-0.82318 -2.98586,-1.23477c-0.99412,-0.51159 -2.0894,-0.92434 -2.9847,-1.33477c-0.99528,-0.41159 -1.79058,-0.82085 -2.58704,-1.13013c-0.69647,-0.30811 -1.39293,-0.61622 -1.79058,-0.82086c-0.39765,-0.20463 -0.69647,-0.30811 -0.69647,-0.30811c0,0 0.19882,0.10232 0.69763,0.20812c0.49765,0.2058 1.09644,0.31276 1.8929,0.62203c0.79762,0.20928 1.69408,0.51972 2.68936,0.93131c0.99528,0.41159 1.99057,0.82318 2.98586,1.23477c0.99412,0.51159 2.0894,0.92434 2.98469,1.33477c0.99528,0.41159 1.88942,0.92201 2.58589,1.23012c1.49177,0.71738 2.48589,1.22897 2.48589,1.22897c0,0 -0.99644,-0.3116 -2.68936,-0.93131z" fill="#648f9e"/></g><path d="M283.60689,338.46017c-1.20805,0.68601 -2.82072,1.76735 -4.83337,2.84404c-2.01265,1.07669 -4.42759,2.34872 -7.14019,3.41727c-2.7126,1.06856 -5.62518,2.13479 -8.82961,2.49758c-0.80111,0.0907 -1.60222,0.1814 -2.401,0.07211c-0.79994,-0.0093 -1.59873,-0.11858 -2.29869,-0.12671c-1.49874,-0.11742 -2.9998,-0.03485 -4.40087,0.04888c-2.90213,0.16629 -5.50544,0.43606 -7.80877,0.70932c-2.30333,0.27326 -4.20668,0.55116 -5.50892,0.73604c-1.30223,0.18489 -2.10334,0.27559 -2.10334,0.27559c0,0 0.70227,-0.19186 2.00683,-0.57673c1.3034,-0.28487 3.10908,-0.76393 5.41474,-1.23718c1.20225,-0.18604 2.40565,-0.47208 3.70789,-0.65696c1.30223,-0.18489 2.70563,-0.46859 4.1067,-0.55232c1.50222,-0.18256 2.90329,-0.26629 4.50318,-0.2477c0.79994,0.0093 1.49874,0.11742 2.29868,0.12671c0.69995,0.00813 1.4999,0.01743 2.20102,-0.07443c1.40107,-0.08373 2.90561,-0.46627 4.31016,-0.84998c1.40456,-0.38371 2.81027,-0.8674 4.11599,-1.35227c2.7126,-1.06856 5.12405,-2.04061 7.23553,-3.01614c2.11147,-0.97553 3.82066,-1.75572 5.02755,-2.34175c1.20689,-0.58602 1.91033,-0.87786 1.91033,-0.87786c0,0 -0.60577,0.49299 -1.51384,1.18249z" fill="#648f9e"/><path d="M240.02842,336.35372c-0.66269,-0.0077 -1.189,-0.95408 -1.17552,-2.1138c0.01348,-1.15972 0.56162,-2.09362 1.22432,-2.08592c0.66269,0.0077 1.189,0.95408 1.17552,2.1138c-0.01348,1.15972 -0.56162,2.09362 -1.22432,2.08592z" fill="#212f33"/></g><path d="M217.95199,334.19709c-0.20579,0.49764 -0.31509,1.29642 -0.42553,2.1952c-0.00581,0.49996 -0.11161,0.99878 -0.11742,1.49874c-0.1058,0.49881 -0.11162,0.99877 -0.11858,1.59873c0.09419,0.50113 -0.01278,1.09992 0.08024,1.70104c-0.00697,0.59996 0.08606,1.20109 0.17908,1.80221c0.09302,0.60112 0.1872,1.10224 0.38022,1.70453c0.09302,0.60112 0.28604,1.20341 0.48022,1.7057c0.09419,0.50113 0.38835,1.00458 0.58253,1.50687c0.19418,0.50229 0.48951,0.90575 0.68485,1.30804c0.19534,0.40229 0.39068,0.80459 0.58718,1.1069c0.1965,0.3023 0.39301,0.6046 0.49068,0.80575c0.29533,0.40346 0.49183,0.70576 0.49183,0.70576c0,0 -0.29765,-0.20347 -0.69298,-0.60809c-0.19767,-0.20231 -0.39533,-0.40462 -0.69182,-0.70808c-0.29649,-0.30347 -0.59299,-0.60693 -0.88832,-1.01039c-0.29533,-0.40346 -0.59066,-0.80692 -0.88483,-1.31036c-0.19534,-0.40229 -0.58951,-0.90691 -0.78252,-1.50919c-0.29301,-0.60345 -0.58602,-1.20689 -0.67904,-1.80801c-0.09302,-0.60112 -0.28488,-1.3034 -0.3779,-1.90452c-0.09302,-0.60112 -0.18488,-1.30223 -0.17791,-1.9022c-0.09186,-0.70112 0.01511,-1.29991 0.02208,-1.89987c0.10697,-0.5988 0.21393,-1.1976 0.31973,-1.6964c0.1058,-0.49881 0.3116,-0.99645 0.4174,-1.49525c0.10464,-0.39881 0.30928,-0.79646 0.41392,-1.19527c0.10348,-0.29882 0.30811,-0.69646 0.41043,-0.89529c0.20579,-0.49764 0.40927,-0.7953 0.40927,-0.7953c0,0 -0.10347,0.29882 -0.11277,1.09876z" fill="#4e6f7d"/><path d="M214.05225,334.15178c-0.20579,0.49764 -0.31508,1.29643 -0.42553,2.1952c-0.00581,0.49996 -0.11161,0.99878 -0.11742,1.49874c-0.1058,0.49881 -0.11162,0.99877 -0.11858,1.59873c0.09419,0.50113 -0.01278,1.09993 0.08024,1.70105c-0.00697,0.59996 0.08605,1.20108 0.17907,1.8022c0.09302,0.60112 0.18721,1.10225 0.38022,1.70453c0.09302,0.60112 0.28604,1.2034 0.48022,1.70569c0.09419,0.50113 0.38835,1.00458 0.58253,1.50687c0.19418,0.50229 0.48951,0.90575 0.68485,1.30804c0.19534,0.40229 0.39068,0.80459 0.58718,1.1069c0.1965,0.3023 0.393,0.60461 0.49067,0.80576c0.29533,0.40346 0.49184,0.70576 0.49184,0.70576c0,0 -0.29766,-0.20347 -0.69298,-0.60809c-0.19767,-0.20231 -0.39533,-0.40462 -0.69182,-0.70809c-0.29649,-0.30347 -0.59299,-0.60693 -0.88832,-1.01039c-0.29533,-0.40346 -0.59067,-0.80692 -0.88484,-1.31036c-0.19534,-0.40229 -0.58951,-0.90691 -0.78252,-1.5092c-0.29301,-0.60345 -0.58602,-1.20689 -0.67904,-1.80801c-0.09302,-0.60112 -0.28488,-1.3034 -0.3779,-1.90452c-0.09302,-0.60112 -0.18488,-1.30223 -0.17791,-1.9022c-0.09186,-0.70112 0.01511,-1.29991 0.02208,-1.89988c0.10697,-0.5988 0.21394,-1.19759 0.31974,-1.6964c0.1058,-0.49881 0.3116,-0.99644 0.4174,-1.49525c0.10464,-0.39881 0.30928,-0.79646 0.41392,-1.19527c0.10348,-0.29882 0.30811,-0.69647 0.41043,-0.89529c0.20579,-0.49764 0.40927,-0.7953 0.40927,-0.7953c0,0 -0.10348,0.29882 -0.11277,1.09876z" fill="#4e6f7d"/><path d="M209.05259,334.09369c-0.20579,0.49764 -0.31509,1.29643 -0.42553,2.1952c-0.00581,0.49996 -0.11161,0.99877 -0.11742,1.49874c-0.1058,0.49881 -0.11161,0.99877 -0.11858,1.59873c0.09419,0.50113 -0.01278,1.09993 0.08024,1.70105c-0.00697,0.59996 0.08605,1.20108 0.17907,1.8022c0.09302,0.60112 0.18721,1.10225 0.38022,1.70454c0.09302,0.60112 0.28604,1.2034 0.48021,1.70569c0.09419,0.50113 0.38836,1.00458 0.58254,1.50687c0.19418,0.50229 0.48951,0.90575 0.68484,1.30804c0.19534,0.40229 0.39068,0.80459 0.58718,1.1069c0.1965,0.3023 0.393,0.6046 0.49067,0.80575c0.29533,0.40346 0.49183,0.70576 0.49183,0.70576c0,0 -0.29765,-0.20347 -0.69298,-0.60809c-0.19767,-0.20231 -0.39533,-0.40462 -0.69182,-0.70809c-0.29649,-0.30347 -0.59299,-0.60693 -0.88832,-1.01039c-0.29533,-0.40346 -0.59067,-0.80692 -0.88484,-1.31037c-0.19534,-0.40229 -0.58951,-0.9069 -0.78252,-1.50919c-0.29301,-0.60345 -0.58602,-1.2069 -0.67904,-1.80802c-0.09302,-0.60112 -0.28488,-1.3034 -0.3779,-1.90452c-0.09302,-0.60112 -0.18488,-1.30223 -0.17791,-1.9022c-0.09186,-0.70112 0.01511,-1.29991 0.02208,-1.89987c0.10697,-0.5988 0.21393,-1.1976 0.31973,-1.6964c0.1058,-0.49881 0.3116,-0.99644 0.4174,-1.49525c0.10464,-0.39881 0.30928,-0.79646 0.41392,-1.19527c0.10348,-0.29882 0.30811,-0.69646 0.41043,-0.89529c0.20579,-0.49764 0.40927,-0.7953 0.40927,-0.7953c0,0 -0.10348,0.29882 -0.11277,1.09877z" fill="#4e6f7d"/><path d="M266.40456,338.56031c0.00116,-0.09999 -0.1965,-0.3023 -0.29533,-0.40345c-0.09767,-0.20115 -0.29649,-0.30347 -0.39416,-0.50462c-0.19882,-0.10231 -0.2965,-0.30347 -0.49416,-0.50578c-0.29533,-0.40346 -0.59066,-0.80692 -0.786,-1.20921c-0.19534,-0.40229 -0.29185,-0.70344 -0.29185,-0.70344c0,0 0.40114,-0.09535 0.79879,0.10928c0.19882,0.10231 0.49764,0.20579 0.69531,0.4081c0.29882,0.10348 0.49532,0.40578 0.69299,0.60809c0.39416,0.50462 0.58601,1.20689 0.5802,1.70686c-0.00697,0.59996 -0.30928,0.79646 -0.30928,0.79646c0,0 0,0 -0.1965,-0.30231z" fill="#4e6f7d"/></g></g><g><path d="M209.02137,353.99466c0,0 -13.86282,22.54046 -45.87692,23.56858c-0.89994,-0.01045 -1.49292,-0.61739 -0.98599,-1.21154c4.05782,-4.95319 18.26136,-22.38935 15.72195,-27.61921c13.64672,-3.94171 23.61932,-1.52569 31.14096,5.26216z" fill="#6da3b2"/><path d="M178.06413,350.13474c-0.01046,0.89994 -0.22555,2.19753 -0.64295,3.69278c-0.30811,0.69646 -0.51739,1.49409 -0.92666,2.28939c-0.30928,0.79646 -0.71971,1.69176 -1.22897,2.48589c-0.50926,0.79413 -1.01968,1.68827 -1.52894,2.4824c-0.50926,0.79413 -1.01968,1.68827 -1.62893,2.48125c-0.51042,0.89413 -1.11968,1.68711 -1.72893,2.48008c-0.51042,0.89413 -1.11852,1.58711 -1.72777,2.38009c-1.11736,1.48712 -2.23354,2.87424 -3.24742,4.06255c-1.01388,1.1883 -1.82428,2.07895 -2.43237,2.77193c-0.50693,0.59415 -0.91155,0.98947 -0.91155,0.98947c0,0 0.20579,-0.49764 0.71389,-1.19178c0.50926,-0.79413 1.22083,-1.78593 2.03588,-3.07655c0.91504,-1.28945 1.83124,-2.67891 2.94976,-4.26602c1.01852,-1.58828 2.23703,-3.17422 3.35671,-4.86133c0.60925,-0.79298 1.11968,-1.6871 1.72893,-2.48008c0.60925,-0.79298 1.11852,-1.58711 1.62778,-2.38125c0.50926,-0.79413 1.01736,-1.48828 1.42663,-2.28358c0.50926,-0.79413 0.81737,-1.49061 1.12548,-2.18707c0.51507,-1.29411 0.92899,-2.48938 1.03943,-3.38815c0.11045,-0.89878 0.01627,-1.3999 0.01627,-1.3999c0,0 0.29417,0.50345 -0.01627,1.3999z" fill="#4e6f7d"/><path d="M207.79706,356.08059c-0.40695,0.59531 -0.91621,1.38944 -1.52546,2.18242c-0.30462,0.39649 -0.70925,0.79181 -1.01504,1.2883c-0.40578,0.49532 -0.81041,0.89065 -1.21618,1.38596c-0.8104,0.89065 -1.82196,1.87896 -2.83351,2.86727c-1.01039,0.88832 -2.12309,1.97547 -3.43346,2.8603c-0.6046,0.393 -1.21038,0.886 -1.91614,1.37783c-0.60577,0.493 -1.31037,0.88484 -2.01613,1.37667c-0.3023,0.1965 -0.60577,0.493 -1.00807,0.68833l-1.10689,0.58718c-0.7046,0.39184 -1.5092,0.78251 -2.2138,1.17435c-1.60918,0.78136 -3.11606,1.36389 -4.62409,2.04642c-1.6057,0.48138 -3.11257,1.06391 -4.61828,1.54645c-1.50455,0.38254 -3.00793,0.6651 -4.41249,1.04881c-1.40455,0.38371 -2.80562,0.46744 -4.00787,0.65348c-1.30223,0.18489 -2.40448,0.37209 -3.40441,0.36047c-1.00109,0.08837 -1.9022,0.17791 -2.60215,0.16978c-1.50106,0.08256 -2.30101,0.07327 -2.30101,0.07327c0,0 0.90226,-0.18953 2.30449,-0.37325c0.70111,-0.09186 1.60222,-0.18139 2.60448,-0.36976c1.00109,-0.08837 2.1045,-0.37557 3.30791,-0.66161c0.60112,-0.09302 1.30339,-0.28487 1.90452,-0.3779c0.60228,-0.19302 1.3034,-0.28487 2.00567,-0.47673c1.40455,-0.38371 2.81027,-0.86741 4.31481,-1.24995c1.40688,-0.58369 2.91259,-1.06624 4.41945,-1.64877c1.40804,-0.68369 2.91607,-1.36622 4.4241,-2.04874c0.8046,-0.39068 1.5092,-0.78251 2.2138,-1.17435l1.1069,-0.58718c0.3023,-0.1965 0.7046,-0.39184 1.0069,-0.58834c0.70576,-0.49183 1.31037,-0.88484 2.01497,-1.27668c0.70576,-0.49183 1.31153,-0.98483 1.91613,-1.37783c1.3092,-0.78484 2.42076,-1.772 3.53114,-2.65915c0.50577,-0.49415 1.01155,-0.98831 1.51617,-1.38247c0.50462,-0.39416 1.01038,-0.88832 1.415,-1.28365c0.40578,-0.49532 0.81041,-0.89065 1.21503,-1.28597c0.40462,-0.39533 0.80924,-0.79064 1.11386,-1.18714c0.70809,-0.69182 1.21619,-1.38596 1.72313,-1.98011c0.40578,-0.49532 0.81157,-0.99064 1.01504,-1.2883c0.20347,-0.29766 0.30579,-0.49648 0.30579,-0.49648c0,0 -0.30811,0.69647 -1.12432,2.08708z" fill="#4e6f7d"/></g></g><path d="M84.2107,463.52175l-5.30844,-142.43505l283.24227,-10.5562l5.30844,142.43505z" fill="#2b9bfc" stroke-width="0"/></g></g></svg>