<svg version="1.1" xmlns="http://www.w3.org/2000/svg" xmlns:xlink="http://www.w3.org/1999/xlink" width="187.77903" height="99.95985" viewBox="0,0,187.77903,99.95985"><g transform="translate(-146.11049,-130.02008)"><g data-paper-data="{&quot;isPaintingLayer&quot;:true}" fill-rule="nonzero" stroke="#000000" stroke-width="0" stroke-linecap="round" stroke-linejoin="miter" stroke-miterlimit="10" stroke-dasharray="" stroke-dashoffset="0" style="mix-blend-mode: normal"><g><path d="M175.67659,152.89645c2.94866,-12.8805 24.7795,-9.3114 32.58422,-6.24738c7.80469,3.06405 11.79905,13.10395 11.79905,13.10395c0,0 -8.43985,-15.53272 11.7743,-23.76225c19.66772,-8.00707 28.13513,-11.20028 44.59515,11.65599c16.46003,22.85627 -1.24487,62.56916 -1.24487,62.56916l-81.44903,6.80187c0,0 -21.00747,-51.24078 -18.05878,-64.12128z" fill="#b96600"/><path d="M182.82984,187.84504c0,0 34.8985,-8.04823 61.97873,-10.33109c11.87248,-1.00083 37.83282,1.91705 37.83282,1.91705l-3.84591,21.80934l-85.85996,15.81271z" fill="#864a00"/><path d="M228.21896,206.6994c37.82202,-4.80861 81.58858,-17.62667 96.29403,-15.47191c14.70548,2.15476 14.14863,25.32161 -16.43247,27.17384c-13.68546,0.82884 -49.97155,-1.10673 -78.49661,1.06127c-28.52507,2.16797 -61.21392,11.6098 -72.47347,10.41289c-11.25955,-1.19692 -19.82315,-13.64418 5.44571,-21.87994c25.26885,-8.23579 27.84077,3.51252 65.66281,-1.29611z" fill="#a05900"/></g></g></g></svg>