<svg version="1.1" xmlns="http://www.w3.org/2000/svg" xmlns:xlink="http://www.w3.org/1999/xlink" width="458.14477" height="192.86604" viewBox="0,0,458.14477,192.86604"><g transform="translate(13.17867,-72.48777)"><g data-paper-data="{&quot;isPaintingLayer&quot;:true}" fill-rule="nonzero" stroke="none" stroke-width="0" stroke-linecap="butt" stroke-linejoin="miter" stroke-miterlimit="10" stroke-dasharray="" stroke-dashoffset="0" style="mix-blend-mode: normal"><g><path d="M79.11575,254.13512c0,-6.19591 5.02278,-11.21869 11.21869,-11.21869c6.19591,0 11.21869,5.02278 11.21869,11.21869c0,6.1959 -5.02278,11.21869 -11.21869,11.21869c-6.19591,0 -11.21869,-5.02278 -11.21869,-11.21869z" fill="#f10000"/><path d="M81.58072,255.25498c0,-5.37484 4.35716,-9.73199 9.73199,-9.73199c5.37484,0 9.73199,4.35716 9.73199,9.73199c0,5.37484 -4.35716,9.73199 -9.73199,9.73199c-5.37484,0 -9.73199,-4.35716 -9.73199,-9.73199z" fill="#cb0000"/></g><g><path d="M222.20815,253.02466c0,-6.1959 5.02278,-11.21869 11.21869,-11.21869c6.19591,0 11.21869,5.02278 11.21869,11.21869c0,6.1959 -5.02278,11.21869 -11.21869,11.21869c-6.19591,0 -11.21869,-5.02278 -11.21869,-11.21869z" fill="#f10000"/><path d="M224.67313,254.14453c0,-5.37484 4.35716,-9.73199 9.73199,-9.73199c5.37484,0 9.73199,4.35716 9.73199,9.73199c0,5.37484 -4.35716,9.73199 -9.73199,9.73199c-5.37484,0 -9.73199,-4.35716 -9.73199,-9.73199z" fill="#cb0000"/></g><path d="M81.20341,245.60311c0,0 -2.03026,-2.70615 -2.03026,-4.01856c0,-1.17735 2.03026,-3.49479 2.03026,-3.49479h158.36029c0,0 2.63934,2.60641 2.63934,3.78377c0,1.31241 -2.63934,3.72959 -2.63934,3.72959z" fill="#1767ff"/><path d="M84.77221,245.45863c0,0 -1.94459,-1.78249 -1.94459,-2.64695c0,-0.7755 1.94459,-2.30196 1.94459,-2.30196h151.67787c0,0 2.52797,1.71681 2.52797,2.4923c0,0.86446 -2.52797,2.45662 -2.52797,2.45662z" fill="#114fc1"/><g><path d="M141.158,229.09752c0,-6.19591 5.02278,-11.21869 11.21869,-11.21869c6.19591,0 11.21869,5.02278 11.21869,11.21869c0,6.1959 -5.02278,11.21869 -11.21869,11.21869c-6.19591,0 -11.21869,-5.02278 -11.21869,-11.21869z" fill="#f10000"/><path d="M143.62297,230.21738c0,-5.37484 4.35716,-9.73199 9.73199,-9.73199c5.37484,0 9.73199,4.35716 9.73199,9.73199c0,5.37484 -4.35716,9.73199 -9.73199,9.73199c-5.37484,0 -9.73199,-4.35716 -9.73199,-9.73199z" fill="#cb0000"/></g><g><path d="M289.45955,261.99598c-6.19591,0 -11.21869,-5.02278 -11.21869,-11.21869c0,-6.19591 5.02278,-11.21869 11.21869,-11.21869c6.1959,0 11.21869,5.02278 11.21869,11.21869c0,6.19591 -5.02278,11.21869 -11.21869,11.21869z" fill="#f10000"/><path d="M290.57942,259.53101c-5.37484,0 -9.73199,-4.35716 -9.73199,-9.73199c0,-5.37484 4.35716,-9.73199 9.73199,-9.73199c5.37484,0 9.73199,4.35716 9.73199,9.73199c0,5.37484 -4.35716,9.73199 -9.73199,9.73199z" fill="#cb0000"/></g><g><path d="M288.34909,118.90359c-6.1959,0 -11.21869,-5.02278 -11.21869,-11.21869c0,-6.19591 5.02278,-11.21869 11.21869,-11.21869c6.1959,0 11.21869,5.02278 11.21869,11.21869c0,6.19591 -5.02278,11.21869 -11.21869,11.21869z" fill="#f10000"/><path d="M289.46896,116.43861c-5.37484,0 -9.73199,-4.35716 -9.73199,-9.73199c0,-5.37484 4.35716,-9.73199 9.73199,-9.73199c5.37484,0 9.73199,4.35716 9.73199,9.73199c0,5.37484 -4.35716,9.73199 -9.73199,9.73199z" fill="#cb0000"/></g><path d="M280.92754,259.90831c0,0 -2.70615,2.03026 -4.01856,2.03026c-1.17735,0 -3.49479,-2.03026 -3.49479,-2.03026v-158.36029c0,0 2.60641,-2.63934 3.78377,-2.63934c1.31241,0 3.72959,2.63934 3.72959,2.63934z" fill="#1767ff"/><path d="M280.78306,256.33953c0,0 -1.78249,1.94459 -2.64695,1.94459c-0.7755,0 -2.30196,-1.94459 -2.30196,-1.94459v-151.67787c0,0 1.71681,-2.52797 2.4923,-2.52797c0.86446,0 2.45662,2.52797 2.45662,2.52797z" fill="#114fc1"/><g><path d="M328.56202,110.89899c0,-6.19591 5.02278,-11.21869 11.21869,-11.21869c6.19591,0 11.21869,5.02278 11.21869,11.21869c0,6.1959 -5.02278,11.21869 -11.21869,11.21869c-6.19591,0 -11.21869,-5.02278 -11.21869,-11.21869z" fill="#f10000"/><path d="M331.02699,112.01886c0,-5.37484 4.35716,-9.73199 9.73199,-9.73199c5.37484,0 9.73199,4.35716 9.73199,9.73199c0,5.37484 -4.35716,9.73199 -9.73199,9.73199c-5.37484,0 -9.73199,-4.35716 -9.73199,-9.73199z" fill="#cb0000"/></g><g><path d="M422.52871,109.2106c0,-6.1959 5.02278,-11.21869 11.21869,-11.21869c6.19591,0 11.21869,5.02278 11.21869,11.21869c0,6.1959 -5.02278,11.21869 -11.21869,11.21869c-6.19591,0 -11.21869,-5.02278 -11.21869,-11.21869z" fill="#f10000"/><path d="M424.99368,110.33046c0,-5.37484 4.35716,-9.73199 9.73199,-9.73199c5.37484,0 9.73199,4.35716 9.73199,9.73199c0,5.37484 -4.35716,9.73199 -9.73199,9.73199c-5.37484,0 -9.73199,-4.35716 -9.73199,-9.73199z" fill="#cb0000"/></g><path d="M330.06428,102.36699c0,0 -1.44487,-2.70615 -1.44487,-4.01856c0,-1.17735 1.44487,-3.49479 1.44487,-3.49479h112.70013c0,0 1.87834,2.60641 1.87834,3.78377c0,1.31241 -1.87834,3.72959 -1.87834,3.72959z" fill="#1767ff"/><path d="M332.60408,102.22251c0,0 -1.38391,-1.78249 -1.38391,-2.64695c0,-0.7755 1.38391,-2.30196 1.38391,-2.30196h107.94447c0,0 1.79908,1.71681 1.79908,2.4923c0,0.86446 -1.79908,2.45662 -1.79908,2.45662z" fill="#114fc1"/><g><path d="M339.07539,94.92515c-6.19591,0 -11.21869,-5.02278 -11.21869,-11.21869c0,-6.19591 5.02278,-11.21869 11.21869,-11.21869c6.1959,0 11.21869,5.02278 11.21869,11.21869c0,6.19591 -5.02278,11.21869 -11.21869,11.21869z" fill="#f10000"/><path d="M340.19526,92.46018c-5.37484,0 -9.73199,-4.35716 -9.73199,-9.73199c0,-5.37484 4.35716,-9.73199 9.73199,-9.73199c5.37484,0 9.73199,4.35716 9.73199,9.73199c0,5.37484 -4.35716,9.73199 -9.73199,9.73199z" fill="#cb0000"/></g><g><path d="M-13.17867,120.89899c0,-6.19591 5.02278,-11.21869 11.21869,-11.21869c6.19591,0 11.21869,5.02278 11.21869,11.21869c0,6.1959 -5.02278,11.21869 -11.21869,11.21869c-6.19591,0 -11.21869,-5.02278 -11.21869,-11.21869z" fill="#f10000"/><path d="M-10.7137,122.01886c0,-5.37484 4.35716,-9.73199 9.73199,-9.73199c5.37484,0 9.73199,4.35716 9.73199,9.73199c0,5.37484 -4.35716,9.73199 -9.73199,9.73199c-5.37484,0 -9.73199,-4.35716 -9.73199,-9.73199z" fill="#cb0000"/></g><g><path d="M80.78802,119.2106c0,-6.1959 5.02278,-11.21869 11.21869,-11.21869c6.19591,0 11.21869,5.02278 11.21869,11.21869c0,6.1959 -5.02278,11.21869 -11.21869,11.21869c-6.19591,0 -11.21869,-5.02278 -11.21869,-11.21869z" fill="#f10000"/><path d="M83.25299,120.33046c0,-5.37484 4.35716,-9.73199 9.73199,-9.73199c5.37484,0 9.73199,4.35716 9.73199,9.73199c0,5.37484 -4.35716,9.73199 -9.73199,9.73199c-5.37484,0 -9.73199,-4.35716 -9.73199,-9.73199z" fill="#cb0000"/></g><path d="M-11.67641,112.36699c0,0 -1.44487,-2.70615 -1.44487,-4.01856c0,-1.17735 1.44487,-3.49479 1.44487,-3.49479h112.70013c0,0 1.87834,2.60641 1.87834,3.78377c0,1.31241 -1.87834,3.72959 -1.87834,3.72959z" fill="#1767ff"/><path d="M-9.13661,112.22251c0,0 -1.38391,-1.78249 -1.38391,-2.64695c0,-0.7755 1.38391,-2.30196 1.38391,-2.30196h107.94447c0,0 1.79908,1.71681 1.79908,2.4923c0,0.86446 -1.79908,2.45662 -1.79908,2.45662z" fill="#114fc1"/><g><path d="M164.20144,130.73548c-6.19591,0 -11.21869,-5.02278 -11.21869,-11.21869c0,-6.19591 5.02278,-11.21869 11.21869,-11.21869c6.1959,0 11.21869,5.02278 11.21869,11.21869c0,6.19591 -5.02278,11.21869 -11.21869,11.21869z" fill="#f10000"/><path d="M165.32131,128.27051c-5.37484,0 -9.73199,-4.35716 -9.73199,-9.73199c0,-5.37484 4.35716,-9.73199 9.73199,-9.73199c5.37484,0 9.73199,4.35716 9.73199,9.73199c0,5.37484 -4.35716,9.73199 -9.73199,9.73199z" fill="#cb0000"/></g><g><path d="M226.50632,189.49082c-6.19591,0 -11.21869,-5.02278 -11.21869,-11.21869c0,-6.19591 5.02278,-11.21869 11.21869,-11.21869c6.1959,0 11.21869,5.02278 11.21869,11.21869c0,6.19591 -5.02278,11.21869 -11.21869,11.21869z" fill="#f10000"/><path d="M227.62619,187.02585c-5.37484,0 -9.73199,-4.35716 -9.73199,-9.73199c0,-5.37484 4.35716,-9.73199 9.73199,-9.73199c5.37484,0 9.73199,4.35716 9.73199,9.73199c0,5.37484 -4.35716,9.73199 -9.73199,9.73199z" fill="#cb0000"/></g><g><path d="M224.81793,95.52413c-6.1959,0 -11.21869,-5.02278 -11.21869,-11.21869c0,-6.19591 5.02278,-11.21869 11.21869,-11.21869c6.1959,0 11.21869,5.02278 11.21869,11.21869c0,6.19591 -5.02278,11.21869 -11.21869,11.21869z" fill="#f10000"/><path d="M225.93779,93.05916c-5.37484,0 -9.73199,-4.35716 -9.73199,-9.73199c0,-5.37484 4.35716,-9.73199 9.73199,-9.73199c5.37484,0 9.73199,4.35716 9.73199,9.73199c0,5.37484 -4.35716,9.73199 -9.73199,9.73199z" fill="#cb0000"/></g><path d="M217.97432,187.98856c0,0 -2.70615,1.44487 -4.01856,1.44487c-1.17735,0 -3.49479,-1.44487 -3.49479,-1.44487l0,-112.70013c0,0 2.60641,-1.87834 3.78377,-1.87834c1.31241,0 3.72959,1.87834 3.72959,1.87834z" fill="#1767ff"/><path d="M217.82984,185.44876c0,0 -1.78249,1.38391 -2.64695,1.38391c-0.7755,0 -2.30196,-1.38391 -2.30196,-1.38391l0,-107.94447c0,0 1.71681,-1.79908 2.4923,-1.79908c0.86446,0 2.45662,1.79908 2.45662,1.79908z" fill="#114fc1"/><g><path d="M433.71525,95.32731c-6.19591,0 -11.21869,-5.02278 -11.21869,-11.21869c0,-6.19591 5.02278,-11.21869 11.21869,-11.21869c6.1959,0 11.21869,5.02278 11.21869,11.21869c0,6.19591 -5.02278,11.21869 -11.21869,11.21869z" fill="#f10000"/><path d="M434.83512,92.86234c-5.37484,0 -9.73199,-4.35716 -9.73199,-9.73199c0,-5.37484 4.35716,-9.73199 9.73199,-9.73199c5.37484,0 9.73199,4.35716 9.73199,9.73199c0,5.37484 -4.35716,9.73199 -9.73199,9.73199z" fill="#cb0000"/></g></g></g></svg>