<svg version="1.1" xmlns="http://www.w3.org/2000/svg" xmlns:xlink="http://www.w3.org/1999/xlink" width="451.54211" height="223.52538" viewBox="0,0,451.54211,223.52538"><g transform="translate(19.18107,-41.22819)"><g data-paper-data="{&quot;isPaintingLayer&quot;:true}" fill-rule="nonzero" stroke="none" stroke-width="0" stroke-linecap="butt" stroke-linejoin="miter" stroke-miterlimit="10" stroke-dasharray="" stroke-dashoffset="0" style="mix-blend-mode: normal"><g><path d="M315.95697,229.74653c0,-6.19591 5.02278,-11.21869 11.21869,-11.21869c6.19591,0 11.21869,5.02278 11.21869,11.21869c0,6.1959 -5.02278,11.21869 -11.21869,11.21869c-6.19591,0 -11.21869,-5.02278 -11.21869,-11.21869z" fill="#f10000"/><path d="M318.42194,230.8664c0,-5.37484 4.35716,-9.73199 9.73199,-9.73199c5.37484,0 9.73199,4.35716 9.73199,9.73199c0,5.37484 -4.35716,9.73199 -9.73199,9.73199c-5.37484,0 -9.73199,-4.35716 -9.73199,-9.73199z" fill="#cb0000"/></g><g><path d="M409.92366,228.05814c0,-6.1959 5.02278,-11.21869 11.21869,-11.21869c6.19591,0 11.21869,5.02278 11.21869,11.21869c0,6.1959 -5.02278,11.21869 -11.21869,11.21869c-6.19591,0 -11.21869,-5.02278 -11.21869,-11.21869z" fill="#f10000"/><path d="M412.38863,229.178c0,-5.37484 4.35716,-9.73199 9.73199,-9.73199c5.37484,0 9.73199,4.35716 9.73199,9.73199c0,5.37484 -4.35716,9.73199 -9.73199,9.73199c-5.37484,0 -9.73199,-4.35716 -9.73199,-9.73199z" fill="#cb0000"/></g><path d="M317.45923,221.21453c0,0 -1.44487,-2.70615 -1.44487,-4.01856c0,-1.17735 1.44487,-3.49479 1.44487,-3.49479h112.70013c0,0 1.87834,2.60641 1.87834,3.78377c0,1.31241 -1.87834,3.72959 -1.87834,3.72959z" fill="#1767ff"/><path d="M319.99903,221.07005c0,0 -1.38391,-1.78249 -1.38391,-2.64695c0,-0.7755 1.38391,-2.30196 1.38391,-2.30196h107.94447c0,0 1.79908,1.71681 1.79908,2.4923c0,0.86446 -1.79908,2.45662 -1.79908,2.45662z" fill="#114fc1"/><g><path d="M-19.18107,57.27354c0,-6.19591 5.02278,-11.21869 11.21869,-11.21869c6.19591,0 11.21869,5.02278 11.21869,11.21869c0,6.1959 -5.02278,11.21869 -11.21869,11.21869c-6.19591,0 -11.21869,-5.02278 -11.21869,-11.21869z" fill="#f10000"/><path d="M-16.7161,58.39341c0,-5.37484 4.35716,-9.73199 9.73199,-9.73199c5.37484,0 9.73199,4.35716 9.73199,9.73199c0,5.37484 -4.35716,9.73199 -9.73199,9.73199c-5.37484,0 -9.73199,-4.35716 -9.73199,-9.73199z" fill="#cb0000"/></g><g><path d="M74.78562,55.58515c0,-6.1959 5.02278,-11.21869 11.21869,-11.21869c6.19591,0 11.21869,5.02278 11.21869,11.21869c0,6.1959 -5.02278,11.21869 -11.21869,11.21869c-6.19591,0 -11.21869,-5.02278 -11.21869,-11.21869z" fill="#f10000"/><path d="M77.25059,56.70501c0,-5.37484 4.35716,-9.73199 9.73199,-9.73199c5.37484,0 9.73199,4.35716 9.73199,9.73199c0,5.37484 -4.35716,9.73199 -9.73199,9.73199c-5.37484,0 -9.73199,-4.35716 -9.73199,-9.73199z" fill="#cb0000"/></g><path d="M-17.67881,48.74154c0,0 -1.44487,-2.70615 -1.44487,-4.01856c0,-1.17735 1.44487,-3.49479 1.44487,-3.49479h112.70013c0,0 1.87834,2.60641 1.87834,3.78377c0,1.31241 -1.87834,3.72959 -1.87834,3.72959z" fill="#1767ff"/><path d="M-15.13901,48.59706c0,0 -1.38391,-1.78249 -1.38391,-2.64695c0,-0.7755 1.38391,-2.30196 1.38391,-2.30196h107.94447c0,0 1.79908,1.71681 1.79908,2.4923c0,0.86446 -1.79908,2.45662 -1.79908,2.45662z" fill="#114fc1"/><g><path d="M175.7544,253.53488c0,-6.19591 5.02278,-11.21869 11.21869,-11.21869c6.19591,0 11.21869,5.02278 11.21869,11.21869c0,6.1959 -5.02278,11.21869 -11.21869,11.21869c-6.19591,0 -11.21869,-5.02278 -11.21869,-11.21869z" fill="#f10000"/><path d="M178.21937,254.65474c0,-5.37484 4.35716,-9.73199 9.73199,-9.73199c5.37484,0 9.73199,4.35716 9.73199,9.73199c0,5.37484 -4.35716,9.73199 -9.73199,9.73199c-5.37484,0 -9.73199,-4.35716 -9.73199,-9.73199z" fill="#cb0000"/></g><g><path d="M314.64512,249.42322c0,-6.1959 5.02278,-11.21869 11.21869,-11.21869c6.19591,0 11.21869,5.02278 11.21869,11.21869c0,6.1959 -5.02278,11.21869 -11.21869,11.21869c-6.19591,0 -11.21869,-5.02278 -11.21869,-11.21869z" fill="#f10000"/><path d="M317.1101,250.54309c0,-5.37484 4.35716,-9.73199 9.73199,-9.73199c5.37484,0 9.73199,4.35716 9.73199,9.73199c0,5.37484 -4.35716,9.73199 -9.73199,9.73199c-5.37484,0 -9.73199,-4.35716 -9.73199,-9.73199z" fill="#cb0000"/></g><g><path d="M420.70203,260.58543c-6.19591,0 -11.21869,-5.02278 -11.21869,-11.21869c0,-6.19591 5.02278,-11.21869 11.21869,-11.21869c6.1959,0 11.21869,5.02278 11.21869,11.21869c0,6.19591 -5.02278,11.21869 -11.21869,11.21869z" fill="#f10000"/><path d="M421.8219,258.12046c-5.37484,0 -9.73199,-4.35716 -9.73199,-9.73199c0,-5.37484 4.35716,-9.73199 9.73199,-9.73199c5.37484,0 9.73199,4.35716 9.73199,9.73199c0,5.37484 -4.35716,9.73199 -9.73199,9.73199z" fill="#cb0000"/></g><g><path d="M241.37865,144.48927c0,-6.19591 5.02278,-11.21869 11.21869,-11.21869c6.19591,0 11.21869,5.02278 11.21869,11.21869c0,6.1959 -5.02278,11.21869 -11.21869,11.21869c-6.19591,0 -11.21869,-5.02278 -11.21869,-11.21869z" fill="#f10000"/><path d="M243.84362,145.60913c0,-5.37484 4.35716,-9.73199 9.73199,-9.73199c5.37484,0 9.73199,4.35716 9.73199,9.73199c0,5.37484 -4.35716,9.73199 -9.73199,9.73199c-5.37484,0 -9.73199,-4.35716 -9.73199,-9.73199z" fill="#cb0000"/></g><g><path d="M409.04372,202.31039c0,-6.19591 5.02278,-11.21869 11.21869,-11.21869c6.19591,0 11.21869,5.02278 11.21869,11.21869c0,6.1959 -5.02278,11.21869 -11.21869,11.21869c-6.19591,0 -11.21869,-5.02278 -11.21869,-11.21869z" fill="#f10000"/><path d="M411.50869,203.43025c0,-5.37484 4.35716,-9.73199 9.73199,-9.73199c5.37484,0 9.73199,4.35716 9.73199,9.73199c0,5.37484 -4.35716,9.73199 -9.73199,9.73199c-5.37484,0 -9.73199,-4.35716 -9.73199,-9.73199z" fill="#cb0000"/></g><g><path d="M418.49915,192.35613c-6.19591,0 -11.21869,-5.02278 -11.21869,-11.21869c0,-6.19591 5.02278,-11.21869 11.21869,-11.21869c6.1959,0 11.21869,5.02278 11.21869,11.21869c0,6.19591 -5.02278,11.21869 -11.21869,11.21869z" fill="#f10000"/><path d="M419.61902,189.89116c-5.37484,0 -9.73199,-4.35716 -9.73199,-9.73199c0,-5.37484 4.35716,-9.73199 9.73199,-9.73199c5.37484,0 9.73199,4.35716 9.73199,9.73199c0,5.37484 -4.35716,9.73199 -9.73199,9.73199z" fill="#cb0000"/></g></g></g></svg>