<svg version="1.1" xmlns="http://www.w3.org/2000/svg" xmlns:xlink="http://www.w3.org/1999/xlink" width="296.75966" height="181.57364" viewBox="0,0,296.75966,181.57364"><defs><radialGradient cx="241.2421" cy="186.08596" r="24.69369" gradientUnits="userSpaceOnUse" id="color-1"><stop offset="0" stop-color="#ffe900"/><stop offset="1" stop-color="#ffe900" stop-opacity="0"/></radialGradient><radialGradient cx="240.63239" cy="186.08596" r="9.29825" gradientUnits="userSpaceOnUse" id="color-2"><stop offset="0" stop-color="#ffd500"/><stop offset="1" stop-color="#f6ff00"/></radialGradient><radialGradient cx="121.44672" cy="113.66731" r="40.97928" gradientUnits="userSpaceOnUse" id="color-3"><stop offset="0" stop-color="#ffe900"/><stop offset="1" stop-color="#ffe900" stop-opacity="0"/></radialGradient><radialGradient cx="120.49421" cy="114.00867" r="15.43048" gradientUnits="userSpaceOnUse" id="color-4"><stop offset="0" stop-color="#ffd500"/><stop offset="1" stop-color="#f6ff00"/></radialGradient></defs><g transform="translate(-71.12018,-38.94788)"><g data-paper-data="{&quot;isPaintingLayer&quot;:true}" fill-rule="nonzero" stroke-linecap="butt" stroke-linejoin="miter" stroke-miterlimit="10" stroke-dasharray="" stroke-dashoffset="0" style="mix-blend-mode: normal"><path d="M74.87018,200.13162c0,-5.99564 0,8.41226 0,-38.22019c0,-49.37318 0,-99.35209 0,-102.98814c0,-6.93822 10.29833,-16.22541 20.35238,-16.22541c20.96483,0 202.1831,0 243.42912,0c15.34479,0 25.47816,9.89252 25.47816,21.04968c0,9.82953 0,126.57151 0,132.46434c0,8.2702 -8.68555,20.55962 -22.16147,20.55962c-40.54014,0 -226.75305,0 -247.95187,0c-9.54122,0 -19.14631,-7.31573 -19.14631,-16.63991z" fill="#ff5151" stroke="#b30000" stroke-width="7.5"/><text transform="translate(186.98314,87.91026) scale(0.67042,0.67042)" font-size="40" xml:space="preserve" fill="#bf0000" fill-rule="nonzero" stroke="#bf0000" stroke-width="3" stroke-linecap="butt" stroke-linejoin="miter" stroke-miterlimit="10" stroke-dasharray="" stroke-dashoffset="0" font-family="Sans Serif" font-weight="normal" text-anchor="start" style="mix-blend-mode: normal"><tspan x="0" dy="0">2x Coins</tspan></text><text transform="translate(187.46114,106.12845) scale(0.38362,0.38362)" font-size="40" xml:space="preserve" fill="#bf0000" fill-rule="nonzero" stroke="#bf0000" stroke-width="3" stroke-linecap="butt" stroke-linejoin="miter" stroke-miterlimit="10" stroke-dasharray="" stroke-dashoffset="0" font-family="Sans Serif" font-weight="normal" text-anchor="start" style="mix-blend-mode: normal"><tspan x="0" dy="0">You get twice as </tspan><tspan x="0" dy="48px">many coins!</tspan></text><text transform="translate(116.74415,195.59606) scale(0.67042,0.67042)" font-size="40" xml:space="preserve" fill="#bf0000" fill-rule="nonzero" stroke="#bf0000" stroke-width="3" stroke-linecap="butt" stroke-linejoin="miter" stroke-miterlimit="10" stroke-dasharray="" stroke-dashoffset="0" font-family="Sans Serif" font-weight="normal" text-anchor="start" style="mix-blend-mode: normal"><tspan x="0" dy="0">costs:</tspan></text><g stroke="none" stroke-width="0"><path d="M216.0673,185.68585c0,-13.63795 11.05574,-24.69369 24.69369,-24.69369c13.63795,0 24.69369,11.05574 24.69369,24.69369c0,13.63795 -11.05574,24.69369 -24.69369,24.69369c-13.63795,0 -24.69369,-11.05574 -24.69369,-24.69369z" fill="url(#color-1)"/><path d="M231.46275,185.68585c0,-5.13528 4.16296,-9.29825 9.29825,-9.29825c5.13528,0 9.29825,4.16296 9.29825,9.29825c0,5.13528 -4.16296,9.29825 -9.29825,9.29825c-5.13528,0 -9.29825,-4.16296 -9.29825,-9.29825z" fill="url(#color-2)"/></g><text transform="translate(186.6454,148.9036) scale(0.58152,0.58152)" font-size="40" xml:space="preserve" fill="#bf0000" fill-rule="nonzero" stroke="#bf0000" stroke-width="3" stroke-linecap="butt" stroke-linejoin="miter" stroke-miterlimit="10" stroke-dasharray="" stroke-dashoffset="0" font-family="Sans Serif" font-weight="normal" text-anchor="start" style="mix-blend-mode: normal"><tspan x="0" dy="0">unique</tspan></text><text transform="translate(267.62632,195.09109) scale(0.67042,0.67042)" font-size="40" xml:space="preserve" fill="#bf0000" fill-rule="nonzero" stroke="#bf0000" stroke-width="3" stroke-linecap="butt" stroke-linejoin="miter" stroke-miterlimit="10" stroke-dasharray="" stroke-dashoffset="0" font-family="Sans Serif" font-weight="normal" text-anchor="start" style="mix-blend-mode: normal"><tspan x="0" dy="0">15</tspan></text><text transform="translate(145.09056,121.12313) rotate(-19.7166) scale(0.8208,0.8208)" font-size="40" xml:space="preserve" fill="#000000" fill-rule="nonzero" stroke="#000000" stroke-width="2" stroke-linecap="butt" stroke-linejoin="miter" stroke-miterlimit="10" stroke-dasharray="" stroke-dashoffset="0" font-family="Sans Serif" font-weight="normal" text-anchor="start" style="mix-blend-mode: normal"><tspan x="0" dy="0">x2</tspan></text><g stroke="none" stroke-width="0"><path d="M81.89432,127.1367c-7.63539,-21.30537 3.44631,-44.76648 24.75168,-52.40187c21.30537,-7.63539 44.76649,3.44631 52.40188,24.75168c7.63539,21.30537 -3.44631,44.76649 -24.75169,52.40188c-21.30537,7.63539 -44.76648,-3.44632 -52.40188,-24.75169z" fill="url(#color-3)"/><path d="M105.94528,118.51736c-2.87506,-8.0224 1.29768,-16.85653 9.32009,-19.73159c8.0224,-2.87506 16.85653,1.29767 19.73159,9.32008c2.87506,8.0224 -1.29768,16.85653 -9.32009,19.73159c-8.0224,2.87506 -16.85653,-1.29768 -19.73159,-9.32009z" fill="url(#color-4)"/></g></g></g></svg>