<svg version="1.1" xmlns="http://www.w3.org/2000/svg" xmlns:xlink="http://www.w3.org/1999/xlink" width="213.4384" height="100.51246" viewBox="0,0,213.4384,100.51246"><g transform="translate(-149.49889,-139.47548)"><g data-paper-data="{&quot;isPaintingLayer&quot;:true}" fill-rule="nonzero" stroke="none" stroke-width="0" stroke-linecap="butt" stroke-linejoin="miter" stroke-miterlimit="10" stroke-dasharray="" stroke-dashoffset="0" style="mix-blend-mode: normal"><g><path d="M246.53322,155.52083c0,-6.19591 5.02278,-11.21869 11.21869,-11.21869c6.19591,0 11.21869,5.02278 11.21869,11.21869c0,6.1959 -5.02278,11.21869 -11.21869,11.21869c-6.19591,0 -11.21869,-5.02278 -11.21869,-11.21869z" fill="#f10000"/><path d="M248.99819,156.6407c0,-5.37484 4.35716,-9.73199 9.73199,-9.73199c5.37484,0 9.73199,4.35716 9.73199,9.73199c0,5.37484 -4.35716,9.73199 -9.73199,9.73199c-5.37484,0 -9.73199,-4.35716 -9.73199,-9.73199z" fill="#cb0000"/></g><g><path d="M340.49991,153.83244c0,-6.1959 5.02278,-11.21869 11.21869,-11.21869c6.19591,0 11.21869,5.02278 11.21869,11.21869c0,6.1959 -5.02278,11.21869 -11.21869,11.21869c-6.19591,0 -11.21869,-5.02278 -11.21869,-11.21869z" fill="#f10000"/><path d="M342.96488,154.9523c0,-5.37484 4.35716,-9.73199 9.73199,-9.73199c5.37484,0 9.73199,4.35716 9.73199,9.73199c0,5.37484 -4.35716,9.73199 -9.73199,9.73199c-5.37484,0 -9.73199,-4.35716 -9.73199,-9.73199z" fill="#cb0000"/></g><path d="M248.03548,146.98883c0,0 -1.44487,-2.70615 -1.44487,-4.01856c0,-1.17735 1.44487,-3.49479 1.44487,-3.49479h112.70013c0,0 1.87834,2.60641 1.87834,3.78377c0,1.31241 -1.87834,3.72959 -1.87834,3.72959z" fill="#1767ff"/><path d="M250.57528,146.84435c0,0 -1.38391,-1.78249 -1.38391,-2.64695c0,-0.7755 1.38391,-2.30196 1.38391,-2.30196h107.94447c0,0 1.79908,1.71681 1.79908,2.4923c0,0.86446 -1.79908,2.45662 -1.79908,2.45662z" fill="#114fc1"/><g><path d="M149.90105,228.76925c0,-6.1959 5.02278,-11.21869 11.21869,-11.21869c6.19591,0 11.21869,5.02278 11.21869,11.21869c0,6.1959 -5.02278,11.21869 -11.21869,11.21869c-6.19591,0 -11.21869,-5.02278 -11.21869,-11.21869z" fill="#f10000"/><path d="M152.36604,229.88911c0,-5.37484 4.35716,-9.73199 9.73199,-9.73199c5.37484,0 9.73199,4.35716 9.73199,9.73199c0,5.37484 -4.35716,9.73199 -9.73199,9.73199c-5.37484,0 -9.73199,-4.35716 -9.73199,-9.73199z" fill="#cb0000"/></g><g><path d="M149.49889,206.75844c0,-6.1959 5.02278,-11.21869 11.21869,-11.21869c6.19591,0 11.21869,5.02278 11.21869,11.21869c0,6.1959 -5.02278,11.21869 -11.21869,11.21869c-6.19591,0 -11.21869,-5.02278 -11.21869,-11.21869z" fill="#f10000"/><path d="M151.96388,207.8783c0,-5.37484 4.35716,-9.73199 9.73199,-9.73199c5.37484,0 9.73199,4.35716 9.73199,9.73199c0,5.37484 -4.35716,9.73199 -9.73199,9.73199c-5.37484,0 -9.73199,-4.35716 -9.73199,-9.73199z" fill="#cb0000"/></g></g></g></svg>