<svg version="1.1" xmlns="http://www.w3.org/2000/svg" xmlns:xlink="http://www.w3.org/1999/xlink" width="647.1021" height="411.87687" viewBox="0,0,647.1021,411.87687"><g transform="translate(83.55106,25.93844)"><g data-paper-data="{&quot;isPaintingLayer&quot;:true}" fill-rule="nonzero" stroke="none" stroke-width="0" stroke-linecap="butt" stroke-linejoin="miter" stroke-miterlimit="10" stroke-dasharray="" stroke-dashoffset="0" style="mix-blend-mode: normal"><path d="M-20.98349,37.13964v-60.06006h60.06006v60.06006z" fill="#499eff"/><path d="M38.07057,36.13363v-60.06006h60.06006v60.06006z" fill="#0077ff"/><path d="M96.62913,34.63213v-60.06006h60.06006v60.06006z" fill="#499eff"/><path d="M155.68318,35.12763v-60.06006h60.06006v60.06006z" fill="#0077ff"/><path d="M212.74024,35.12762v-60.06006h60.06006v60.06006z" fill="#499eff"/><path d="M267.28979,35.62312v-60.06006h60.06006v60.06006z" fill="#0077ff"/><path d="M327.34985,34.12162v-60.06006h60.06006v60.06006z" fill="#499eff"/><path d="M386.4039,39.12162v-60.06006h60.06006v60.06006z" fill="#0077ff"/><path d="M446.46396,36.11861v-60.06006h60.06006v60.06006z" fill="#499eff"/><path d="M-83.55106,88.68618v-60.06006h60.06006v60.06006z" fill="#499eff"/><path d="M-24.497,87.68018v-60.06006h60.06006v60.06006z" fill="#0077ff"/><path d="M34.06156,86.17867v-60.06006h60.06006v60.06006z" fill="#499eff"/><path d="M93.11561,86.67417v-60.06006h60.06006v60.06006z" fill="#0077ff"/><path d="M150.17267,86.67417v-60.06006h60.06006v60.06006z" fill="#499eff"/><path d="M204.72222,87.16967v-60.06006h60.06006v60.06006z" fill="#0077ff"/><path d="M264.78228,86.0015v-60.06006h60.06006v60.06006z" fill="#499eff"/><path d="M323.83633,90.66817v-60.06006h60.06006v60.06006z" fill="#0077ff"/><path d="M383.89639,88.66516v-60.06006h60.06006v60.06006z" fill="#499eff"/><path d="M440.95345,87.66516v-60.06006h60.06006v60.06006z" fill="#0077ff"/><path d="M-24.49701,147.74023v-60.06006h60.06006v60.06006z" fill="#499eff"/><path d="M34.55705,146.73423v-60.06006h60.06006v60.06006z" fill="#0077ff"/><path d="M93.11561,145.23272v-60.06006h60.06006v60.06006z" fill="#499eff"/><path d="M152.16966,145.72822v-60.06006h60.06006v60.06006z" fill="#0077ff"/><path d="M209.22672,145.72822v-60.06006h60.06006v60.06006z" fill="#499eff"/><path d="M263.77627,146.22372v-60.06006h60.06006v60.06006z" fill="#0077ff"/><path d="M323.83633,144.72221v-60.06006h60.06006v60.06006z" fill="#499eff"/><path d="M382.89038,148.22072v-60.06006h60.06006v60.06006z" fill="#0077ff"/><path d="M442.95044,146.71921v-60.06006h60.06006v60.06006z" fill="#499eff"/><path d="M500.0075,146.71921v-60.06006h60.06006v60.06006z" fill="#0077ff"/><path d="M-78.05556,208.29579v-60.06006h60.06006v60.06006z" fill="#499eff"/><path d="M-19.00151,207.28978v-60.06006h60.06006v60.06006z" fill="#0077ff"/><path d="M39.55705,205.78828v-60.06006h60.06006v60.06006z" fill="#499eff"/><path d="M94.1066,204.78228v-60.06006h60.06006v60.06006z" fill="#0077ff"/><path d="M152.66516,204.78227v-60.06006h60.06006v60.06006z" fill="#499eff"/><path d="M208.71621,205.27777v-60.06006h60.06006v60.06006z" fill="#0077ff"/><path d="M267.27477,205.27777v-60.06006h60.06006v60.06006z" fill="#499eff"/><path d="M323.32582,204.27177v-60.06006h60.06006v60.06006z" fill="#0077ff"/><path d="M383.38588,205.77326v-60.06006h60.06006v60.06006z" fill="#499eff"/><path d="M443.44594,205.77327v-60.06006h60.06006v60.06006z" fill="#0077ff"/><path d="M-23.50601,265.84834v-60.06006h60.06006v60.06006z" fill="#499eff"/><path d="M35.54804,264.84234v-60.06006h60.06006v60.06006z" fill="#0077ff"/><path d="M94.1066,263.34083v-60.06006h60.06006v60.06006z" fill="#499eff"/><path d="M153.16066,263.83633v-60.06006h60.06006v60.06006z" fill="#0077ff"/><path d="M210.21771,263.83633v-60.06006h60.06006v60.06006z" fill="#499eff"/><path d="M264.76726,264.33183v-60.06006h60.06006v60.06006z" fill="#0077ff"/><path d="M324.82732,262.83032v-60.06006h60.06006v60.06006z" fill="#499eff"/><path d="M383.88138,264.82732v-60.06006h60.06006v60.06006z" fill="#0077ff"/><path d="M443.94144,264.82732v-60.06006h60.06006v60.06006z" fill="#499eff"/><path d="M500.99849,264.82732v-60.06006h60.06006v60.06006z" fill="#0077ff"/><path d="M-80.06758,326.4039v-60.06006h60.06006v60.06006z" fill="#499eff"/><path d="M-21.01352,325.39789v-60.06006h60.06006v60.06006z" fill="#0077ff"/><path d="M37.54504,323.89639v-60.06006h60.06006v60.06006z" fill="#499eff"/><path d="M96.59909,322.89039v-60.06006h60.06006v60.06006z" fill="#0077ff"/><path d="M153.65615,322.89038v-60.06006h60.06006v60.06006z" fill="#499eff"/><path d="M208.2057,323.38588v-60.06006h60.06006v60.06006z" fill="#0077ff"/><path d="M268.26576,323.38588v-60.06006h60.06006v60.06006z" fill="#499eff"/><path d="M325.81831,322.37988v-60.06006h60.06006v60.06006z" fill="#0077ff"/><path d="M384.37687,323.88137v-60.06006h60.06006v60.06006z" fill="#499eff"/><path d="M444.43693,325.38288v-60.06006h60.06006v60.06006z" fill="#0077ff"/><path d="M-21.01352,383.95645v-60.06006h60.06006v60.06006z" fill="#499eff"/><path d="M38.04053,382.95045v-60.06006h60.06006v60.06006z" fill="#0077ff"/><path d="M96.59909,381.44894v-60.06006h60.06006v60.06006z" fill="#499eff"/><path d="M155.65315,381.94444v-60.06006h60.06006v60.06006z" fill="#0077ff"/><path d="M212.7102,381.94444v-60.06006h60.06006v60.06006z" fill="#499eff"/><path d="M267.25975,382.43994v-60.06006h60.06006v60.06006z" fill="#0077ff"/><path d="M327.31981,380.93843v-60.06006h60.06006v60.06006z" fill="#499eff"/><path d="M386.37387,382.93543v-60.06006h60.06006v60.06006z" fill="#0077ff"/><path d="M446.43393,385.93843v-60.06006h60.06006v60.06006z" fill="#499eff"/><path d="M503.49098,385.93843v-60.06006h60.06006v60.06006z" fill="#0077ff"/></g></g></svg>