<svg version="1.1" xmlns="http://www.w3.org/2000/svg" xmlns:xlink="http://www.w3.org/1999/xlink" width="155.21314" height="145.80651" viewBox="0,0,155.21314,145.80651"><g transform="translate(-162.39343,-107.09676)"><g data-paper-data="{&quot;isPaintingLayer&quot;:true}" fill-rule="nonzero" stroke-linejoin="miter" stroke-miterlimit="10" stroke-dasharray="" stroke-dashoffset="0" style="mix-blend-mode: normal"><path d="M166.14343,127.07218c0,-6.93822 10.29833,-16.22541 20.35238,-16.22541c20.96483,0 60.63658,0 101.8826,0c15.34479,0 25.47816,9.89252 25.47816,21.04968c0,9.82953 0,90.80438 0,96.69721c0,8.2702 -8.68555,20.55962 -22.16147,20.55962c-40.54014,0 -85.20653,0 -106.40535,0c-9.54122,0 -19.14631,-7.31573 -19.14631,-16.63991c0,0 -0.00001,-101.80514 -0.00001,-105.44119z" fill="#ff5151" stroke="#b30000" stroke-width="7.5" stroke-linecap="butt"/><path d="M201.72978,163.87431c1.75435,-7.66346 14.74295,-5.53996 19.38649,-3.71698c4.64352,1.823 7.02003,7.7964 7.02003,7.7964c0,0 -5.02142,-9.24144 7.0053,-14.13772c11.70162,-4.76393 16.73944,-6.66378 26.53259,6.93491c9.79315,13.5987 -0.74065,37.22651 -0.74065,37.22651l-48.45938,4.04688c0,0 -12.49872,-30.48651 -10.74435,-38.14996z" fill="#b96600" stroke="#000000" stroke-width="0" stroke-linecap="round"/><path d="M205.98571,184.66753c0,0 20.76341,-4.78842 36.87522,-6.14664c7.06372,-0.59546 22.50923,1.14058 22.50923,1.14058l-2.28818,12.97581l-51.08373,9.40802z" fill="#864a00" stroke="#000000" stroke-width="0" stroke-linecap="round"/><path d="M232.99068,195.88522c22.50281,-2.86096 48.54241,-10.48726 57.29165,-9.20526c8.74926,1.28201 8.41795,15.06549 -9.77676,16.1675c-8.14238,0.49313 -29.73136,-0.65847 -46.70279,0.63142c-16.97144,1.28987 -36.42018,6.90743 -43.11923,6.19531c-6.69905,-0.71213 -11.79409,-8.11782 3.24001,-13.01781c15.0341,-4.90001 16.5643,2.08983 39.06712,-0.77114z" fill="#a05900" stroke="#000000" stroke-width="0" stroke-linecap="round"/></g></g></svg>