<svg version="1.1" xmlns="http://www.w3.org/2000/svg" xmlns:xlink="http://www.w3.org/1999/xlink" width="460.66854" height="208.24" viewBox="0,0,460.66854,208.24"><defs><linearGradient x1="244.73474" y1="76.507" x2="244.73474" y2="279.2791" gradientUnits="userSpaceOnUse" id="color-1"><stop offset="0" stop-color="#68b2ff"/><stop offset="1" stop-color="#1086ff"/></linearGradient><linearGradient x1="243.78564" y1="89.22198" x2="243.78564" y2="275.14544" gradientUnits="userSpaceOnUse" id="color-2"><stop offset="0" stop-color="#3699ff"/><stop offset="1" stop-color="#1086ff"/></linearGradient><linearGradient x1="113.49999" y1="212.47589" x2="113.49999" y2="261.10804" gradientUnits="userSpaceOnUse" id="color-3"><stop offset="0" stop-color="#1b8cff"/><stop offset="1" stop-color="#1387ff"/></linearGradient></defs><g transform="translate(-14.40046,-74.007)"><g data-paper-data="{&quot;isPaintingLayer&quot;:true}" fill-rule="nonzero" stroke-linejoin="miter" stroke-miterlimit="10" stroke-dasharray="" stroke-dashoffset="0" style="mix-blend-mode: normal"><path d="M57.9112,76.507h373.64706c22.71985,0 41.01074,18.29089 41.01074,41.00976v120.75258c0,22.71985 -18.29089,41.00976 -41.01074,41.00976h-373.64706c-22.71985,0 -41.01074,-18.28991 -41.01074,-41.00976v-120.75258c0,-22.71887 18.29089,-41.00976 41.01074,-41.00976z" fill="url(#color-1)" stroke="#4765ff" stroke-width="5" stroke-linecap="round"/><path d="M59.40541,89.22198h368.76046c22.42271,0 40.47439,16.77107 40.47439,37.60219v110.71907c0,20.83202 -18.05168,37.60219 -40.47439,37.60219h-368.76046c-22.42271,0 -40.47439,-16.77018 -40.47439,-37.60219v-110.71907c0,-20.83112 18.05168,-37.60219 40.47439,-37.60219z" fill="url(#color-2)" stroke="none" stroke-width="0" stroke-linecap="round"/><path d="M39.42822,272.716c5.52364,3.087 11.86211,4.844 18.63836,4.844h373.53689c6.77625,0 13.11962,-1.757 18.63933,-4.844h8.20221c-7.37856,5.957 -16.68647,9.531 -26.84154,9.531h-373.53689c-10.15409,0 -19.46298,-3.574 -26.84056,-9.531z" fill="#284bff" stroke="none" stroke-width="4.7" stroke-linecap="butt"/><g stroke="none" stroke-width="0" stroke-linecap="butt"><path d="M60.57678,219.86607c0,-21.46071 17.39733,-38.85804 38.85804,-38.85804c21.46071,0 38.85804,17.39733 38.85804,38.85804c0,21.46071 -17.39733,38.85804 -38.85804,38.85804c-21.46071,0 -38.85804,-17.39733 -38.85804,-38.85804z" fill="#ffffff"/><path d="M109.6857,223.20357c0,-18.56417 15.04923,-33.61339 33.61339,-33.61339c18.56417,0 33.61339,15.04923 33.61339,33.61339c0,18.56417 -15.04923,33.61339 -33.61339,33.61339c-18.56417,0 -33.61339,-15.04923 -33.61339,-33.61339z" fill="#1b8cff"/><path d="M113.97678,224.63393c0,-17.51088 14.19537,-31.70625 31.70625,-31.70625c17.51088,0 31.70625,14.19537 31.70625,31.70625c0,17.51088 -14.19537,31.70625 -31.70625,31.70625c-17.51088,0 -31.70625,-14.19537 -31.70625,-31.70625z" fill="#ffffff"/><path d="M46.74999,261.10804v-48.63214h133.5v48.63214z" fill="url(#color-3)"/><path d="M82.9857,164.79732c0,-9.7429 7.89817,-17.64107 17.64107,-17.64107c9.7429,0 17.64107,7.89817 17.64107,17.64107c0,9.7429 -7.89817,17.64107 -17.64107,17.64107c-9.7429,0 -17.64107,-7.89817 -17.64107,-17.64107z" fill="#ffffff"/><path d="M128.28034,176.00179c0,-9.34791 7.57798,-16.92589 16.92589,-16.92589c9.34791,0 16.92589,7.57798 16.92589,16.92589c0,9.34791 -7.57798,16.92589 -16.92589,16.92589c-9.34791,0 -16.92589,-7.57798 -16.92589,-16.92589z" fill="#ffffff"/></g><text transform="translate(183.24999,217.65625) scale(2.40683,2.40683)" font-size="40" xml:space="preserve" fill="#ffffff" fill-rule="nonzero" stroke="none" stroke-width="1" stroke-linecap="butt" stroke-linejoin="miter" stroke-miterlimit="10" stroke-dasharray="" stroke-dashoffset="0" font-family="&quot;ヒラギノ角ゴ Pro W3&quot;, &quot;Hiragino Kaku Gothic Pro&quot;, Osaka, &quot;メイリオ&quot;, Meiryo, &quot;ＭＳ Ｐゴシック&quot;, &quot;MS PGothic&quot;" font-weight="normal" text-anchor="start" style="mix-blend-mode: normal"><tspan x="0" dy="0">Follow</tspan></text></g></g></svg>