<svg version="1.1" xmlns="http://www.w3.org/2000/svg" xmlns:xlink="http://www.w3.org/1999/xlink" width="70.22222" height="70.22222" viewBox="0,0,70.22222,70.22222"><g transform="translate(-204.88889,-144.88889)"><g data-paper-data="{&quot;isPaintingLayer&quot;:true}" fill-rule="nonzero" stroke="none" stroke-width="0" stroke-linecap="butt" stroke-linejoin="miter" stroke-miterlimit="10" stroke-dasharray="" stroke-dashoffset="0" style="mix-blend-mode: normal"><path d="M240,215.11111c-19.39133,0 -35.11111,-15.71978 -35.11111,-35.11111c0,-19.39133 15.71978,-35.11111 35.11111,-35.11111c19.39133,0 35.11111,15.71978 35.11111,35.11111c0,19.39133 -15.71978,35.11111 -35.11111,35.11111z" data-paper-data="{&quot;index&quot;:null}" fill="#2c5579"/><g data-paper-data="{&quot;index&quot;:null}" fill="#4c93d2"><path d="M239.7248,158.6414l4.11931,4.11931l-21.70891,20.24937l-4.11931,-4.11931z" data-paper-data="{&quot;index&quot;:null}"/><path d="M242.80158,196.71802l-4.11931,4.11931l-20.24937,-21.70891l4.11931,-4.11931z" data-paper-data="{&quot;index&quot;:null}"/><path d="M257.86481,159.16267l4.11931,4.11931l-21.70891,20.24937l-4.11931,-4.11931z" data-paper-data="{&quot;index&quot;:null}"/><path d="M260.94158,197.23929l-4.11931,4.11931l-20.24937,-21.70891l4.11931,-4.11931z" data-paper-data="{&quot;index&quot;:null}"/></g></g></g></svg>